<svg xmlns="http://www.w3.org/2000/svg" width="1440" height="80" viewBox="0 0 1440 80" preserveAspectRatio="none">
<rect x="0" y="0" width="1440" height="80" fill="#EDF5FF"/>
<path d="M0 0 H1440 V40 C1200 70 900 50 720 60 C540 70 300 50 0 40 Z" fill="#DEE7FF"/>
<g fill="#ffbd1f">
<circle cx="120" cy="20" r="3"/><circle cx="180" cy="35" r="2"/><circle cx="260" cy="18" r="3"/>
<circle cx="340" cy="30" r="2"/><circle cx="420" cy="22" r="3"/><circle cx="500" cy="38" r="2"/>
<circle cx="580" cy="16" r="3"/><circle cx="660" cy="28" r="2"/><circle cx="740" cy="20" r="3"/>
<circle cx="820" cy="34" r="2"/><circle cx="900" cy="18" r="3"/><circle cx="980" cy="30" r="2"/>
<circle cx="1060" cy="24" r="3"/><circle cx="1140" cy="36" r="2"/><circle cx="1220" cy="18" r="3"/>
<circle cx="1300" cy="28" r="2"/><circle cx="1380" cy="22" r="3"/>
</g>
<g fill="#235699">
<rect x="150" y="46" width="6" height="10" transform="rotate(15 153 51)"/>
<rect x="230" y="48" width="6" height="10" transform="rotate(-12 233 53)"/>
<rect x="310" y="45" width="6" height="10" transform="rotate(8 313 50)"/>
<rect x="390" y="47" width="6" height="10" transform="rotate(-10 393 52)"/>
<rect x="470" y="46" width="6" height="10" transform="rotate(12 473 51)"/>
<rect x="550" y="48" width="6" height="10" transform="rotate(-7 553 53)"/>
<rect x="630" y="46" width="6" height="10" transform="rotate(9 633 51)"/>
<rect x="710" y="48" width="6" height="10" transform="rotate(-11 713 53)"/>
<rect x="790" y="47" width="6" height="10" transform="rotate(6 793 52)"/>
<rect x="870" y="45" width="6" height="10" transform="rotate(-9 873 50)"/>
<rect x="950" y="48" width="6" height="10" transform="rotate(13 953 53)"/>
<rect x="1030" y="46" width="6" height="10" transform="rotate(-8 1033 51)"/>
<rect x="1110" y="47" width="6" height="10" transform="rotate(10 1113 52)"/>
<rect x="1190" y="45" width="6" height="10" transform="rotate(-6 1193 50)"/>
<rect x="1270" y="48" width="6" height="10" transform="rotate(7 1273 53)"/>
</g>
</svg>
