<svg xmlns="http://www.w3.org/2000/svg" width="1440" height="80" preserveAspectRatio="none"><path fill="#EDF5FF" d="M0 0h1440v80H0z"/><path fill="#DEE7FF" d="M0 0h1440v40c-240 30-540 10-720 20S300 50 0 40Z"/><g fill="#ffbd1f"><circle cx="120" cy="20" r="3"/><circle cx="180" cy="35" r="2"/><circle cx="260" cy="18" r="3"/><circle cx="340" cy="30" r="2"/><circle cx="420" cy="22" r="3"/><circle cx="500" cy="38" r="2"/><circle cx="580" cy="16" r="3"/><circle cx="660" cy="28" r="2"/><circle cx="740" cy="20" r="3"/><circle cx="820" cy="34" r="2"/><circle cx="900" cy="18" r="3"/><circle cx="980" cy="30" r="2"/><circle cx="1060" cy="24" r="3"/><circle cx="1140" cy="36" r="2"/><circle cx="1220" cy="18" r="3"/><circle cx="1300" cy="28" r="2"/><circle cx="1380" cy="22" r="3"/></g><path fill="#235699" d="m151.396 45.394 5.796 1.553-2.588 9.66-5.796-1.554zm77.63 3.339 5.869-1.247 2.079 9.781-5.869 1.247zm81.699-4.102 5.942.835-1.392 9.903-5.942-.835zm78.452 2.966 5.91-1.042 1.736 9.848-5.91 1.042zm81.928-2.111 5.869 1.247-2.08 9.781-5.868-1.247zm78.308 2.917 5.955-.731 1.219 9.925-5.955.731zm81.407-2.811 5.925.939-1.564 9.877-5.926-.939zm78.281 3.072 5.89-1.145 1.908 9.817-5.89 1.145zm81.439-1.95 5.966.627-1.045 9.945-5.967-.627zm78.715-1.184 5.926-.938 1.564 9.877-5.926.939zm81.947 1.923 5.846 1.35-2.25 9.744-5.846-1.35zm78.131-.987 5.942-.835 1.392 9.903-5.942.835zm81.581.089 5.909 1.042-1.737 9.848-5.909-1.042zm78.58-1.214 5.967-.627 1.045 9.945-5.967.627zm81.138 2.331 5.955.73-1.219 9.926-5.955-.73z"/></svg>