<svg xmlns="http://www.w3.org/2000/svg" width="36" height="36" fill="none"><g fill="#fff" clip-path="url(#a)"><path d="m18.771 1.963 13.156 7.893a.75.75 0 0 1 0 1.287L18 19.5 4.073 11.144a.75.75 0 0 1 0-1.288l13.154-7.893a1.5 1.5 0 0 1 1.546 0z"/><path d="m30.125 15.75 1.802 1.081a.75.75 0 0 1 0 1.288L18 26.475 4.073 18.119a.75.75 0 0 1 0-1.288l1.803-1.081L18 23.025zm0 7.05 1.802 1.081a.75.75 0 0 1 0 1.288l-13.154 7.893a1.5 1.5 0 0 1-1.546 0L4.073 25.169a.75.75 0 0 1 0-1.288L5.876 22.8 18 30.075z" opacity=".5"/></g><defs><clipPath id="a"><path fill="#fff" d="M0 0h36v36H0z"/></clipPath></defs></svg>