<svg xmlns="http://www.w3.org/2000/svg" width="36" height="36" fill="none"><g fill="#fff" clip-path="url(#a)"><path d="M18 3c8.285 0 15 6.716 15 15 0 8.285-6.715 15-15 15S3 26.285 3 18 9.716 3 18 3m0 3C11.373 6 6 11.373 6 18s5.373 12 12 12 12-5.373 12-12S24.627 6 18 6m6.363 3.515 2.122 2.12-5.585 5.59q.1.371.1.775a3 3 0 1 1-6 0 3 3 0 0 1 3.776-2.9l5.589-5.585z"/><path d="M18 7.5c1.527 0 2.977.325 4.287.912l-2.344 2.343a7.5 7.5 0 0 0-7.246 12.549l-2.122 2.121-.234-.242A10.47 10.47 0 0 1 7.5 18c0-5.799 4.701-10.5 10.5-10.5m9.588 6.214c.585 1.309.912 2.76.912 4.286 0 2.9-1.176 5.525-3.075 7.425l-2.121-2.121A7.5 7.5 0 0 0 25.5 18c0-.672-.088-1.323-.255-1.942z" opacity=".5"/></g><defs><clipPath id="a"><path fill="#fff" d="M0 0h36v36H0z"/></clipPath></defs></svg>