<svg xmlns="http://www.w3.org/2000/svg" width="22" height="22" fill="none"><g clip-path="url(#a)"><path fill="#757693" d="M11 16.5a5.5 5.5 0 1 1 0-11 5.5 5.5 0 0 1 0 11m0-1.834a3.667 3.667 0 1 0 0-7.333 3.667 3.667 0 0 0 0 7.333M10.083.916h1.834v2.75h-1.834zm0 17.417h1.834v2.75h-1.834zM3.223 4.518l1.295-1.296 1.945 1.944-1.297 1.296L3.222 4.52m12.315 12.316 1.296-1.297 1.944 1.945-1.296 1.296zM17.482 3.22l1.296 1.297-1.944 1.944-1.296-1.296zM5.166 15.537l1.297 1.297-1.945 1.944-1.296-1.296zm15.917-5.454v1.833h-2.75v-1.833zm-17.416 0v1.833H.917v-1.833z"/></g><defs><clipPath id="a"><path fill="#fff" d="M0 0h22v22H0z"/></clipPath></defs></svg>