<svg xmlns="http://www.w3.org/2000/svg" width="588" height="527" fill="none"><rect width="588" height="500" x="588" y="500" fill="url(#a)" rx="8" transform="rotate(180 588 500)"/><path fill="#181C31" d="M103.331 68.325h340.443a5 5 0 0 1 5 5V93.5H98.331V73.325a5 5 0 0 1 5-5"/><g filter="url(#b)"><path fill="#292E45" d="M98 92.952h350v322.22a4.68 4.68 0 0 1-1.463 3.38 5.1 5.1 0 0 1-3.53 1.4H102.993a5.1 5.1 0 0 1-3.53-1.4 4.68 4.68 0 0 1-1.463-3.38z"/></g><path fill="#77F28A" d="M137.15 83.723c1.359 0 2.46-1.13 2.46-2.522 0-1.393-1.101-2.522-2.46-2.522s-2.46 1.129-2.46 2.522 1.101 2.522 2.46 2.522"/><path fill="#EF5C00" d="M119.17 83.723c1.359 0 2.46-1.13 2.46-2.522 0-1.393-1.101-2.522-2.46-2.522s-2.46 1.129-2.46 2.522 1.101 2.522 2.46 2.522"/><path fill="#FFDB26" d="M127.977 83.723c1.358 0 2.46-1.13 2.46-2.522 0-1.393-1.102-2.522-2.46-2.522-1.359 0-2.46 1.129-2.46 2.522s1.101 2.522 2.46 2.522"/><g clip-path="url(#c)"><path fill="#2F80ED" d="M133.168 168.42a3.876 3.876 0 1 0 0-7.752 3.876 3.876 0 0 0 0 7.752"/><path fill="#fff" d="M148.224 163.135h-.784v5.177h-.064l-3.597-5.177h-.771v6.577h.797v-5.164h.064l3.584 5.164h.771zm3.559 6.68c1.002 0 1.734-.501 1.966-1.246l-.732-.206c-.193.514-.64.771-1.234.771-.889 0-1.503-.575-1.538-1.632h3.581v-.321c0-1.837-1.092-2.466-2.12-2.466-1.336 0-2.222 1.053-2.222 2.569s.873 2.531 2.299 2.531m-1.538-2.968c.051-.767.594-1.452 1.461-1.452.822 0 1.349.617 1.349 1.452zm5.851 2.865h.746l1.079-3.79h.077l1.079 3.79h.745l1.503-4.933h-.797l-1.066 3.764h-.051l-1.041-3.764h-.809l-1.053 3.777h-.052l-1.066-3.777h-.797zm9.147-6.577h-.835l2.415 6.577h.822l2.416-6.577h-.835l-1.953 5.536h-.077zm5.739 6.577h.758v-4.933h-.758zm.386-5.755a.53.53 0 0 0 .539-.514.53.53 0 0 0-.539-.514.53.53 0 0 0-.54.514.53.53 0 0 0 .54.514m5.255 1.927c-.238-.7-.771-1.169-1.747-1.169-1.041 0-1.812.591-1.812 1.426 0 .68.405 1.136 1.311 1.348l.822.193c.498.116.732.353.732.694 0 .424-.45.771-1.156.771-.62 0-1.009-.267-1.144-.797l-.719.18c.177.838.867 1.285 1.876 1.285 1.146 0 1.927-.627 1.927-1.478 0-.687-.431-1.121-1.311-1.336l-.732-.18c-.584-.144-.848-.34-.848-.719 0-.424.45-.732 1.054-.732.661 0 .934.366 1.066.706zm1.231 3.828h.758v-4.933h-.758zm.385-5.755c.295 0 .54-.232.54-.514s-.245-.514-.54-.514-.54.231-.54.514c0 .282.245.514.54.514m3.906.822h-1.053v-1.182h-.758v1.182h-.745v.642h.745v3.083c0 .861.693 1.272 1.336 1.272.282 0 .462-.051.565-.09l-.154-.681c-.064.013-.167.039-.334.039-.334 0-.655-.103-.655-.745v-2.878h1.053zm3.091 5.036c1.336 0 2.236-1.015 2.236-2.544 0-1.542-.9-2.556-2.236-2.556s-2.235 1.014-2.235 2.556c0 1.529.899 2.544 2.235 2.544m0-.681c-1.015 0-1.477-.874-1.477-1.863s.462-1.876 1.477-1.876 1.478.887 1.478 1.876-.463 1.863-1.478 1.863m3.393.578h.758v-3.122c0-.668.526-1.156 1.246-1.156.202 0 .411.039.462.051v-.77a7 7 0 0 0-.398-.013c-.591 0-1.105.334-1.285.822h-.051v-.745h-.732z"/><path fill="#219653" d="M196.464 168.556h.719v-1.76h1.761v-.72h-1.761v-1.76h-.719v1.76h-1.76v.72h1.76zm3.713 1.156h4.149v-.707h-3.057v-.051l1.477-1.58c1.131-1.211 1.465-1.776 1.465-2.505 0-1.015-.823-1.824-1.978-1.824-1.154 0-2.03.783-2.03 1.939h.758c0-.748.485-1.246 1.246-1.246.712 0 1.259.437 1.259 1.131 0 .607-.357 1.056-1.118 1.888l-2.171 2.377zm7.531.09c1.253 0 2.171-.925 2.171-2.184 0-1.275-.886-2.21-2.094-2.21-.443 0-.874.158-1.143.373h-.039l.232-1.94h2.749v-.706h-3.417l-.399 3.237.746.09c.272-.196.738-.337 1.143-.334.838.006 1.452.642 1.452 1.503 0 .844-.592 1.464-1.401 1.464-.674 0-1.211-.433-1.272-1.027h-.771c.049 1.002.912 1.734 2.043 1.734m3.765-.039a.58.58 0 0 0 .578-.578.58.58 0 0 0-.578-.578.58.58 0 0 0-.578.578c0 .318.26.578.578.578m3.848.039c1.253 0 2.171-.925 2.171-2.184 0-1.275-.886-2.21-2.093-2.21-.444 0-.874.158-1.144.373h-.039l.232-1.94h2.749v-.706h-3.417l-.399 3.237.746.09c.272-.196.738-.337 1.143-.334.838.006 1.452.642 1.452 1.503 0 .844-.592 1.464-1.401 1.464-.674 0-1.211-.433-1.271-1.027h-.772c.049 1.002.913 1.734 2.043 1.734m5.503 0c1.252 0 2.171-.925 2.171-2.184 0-1.275-.886-2.21-2.094-2.21-.444 0-.874.158-1.144.373h-.038l.231-1.94h2.749v-.706h-3.417l-.398 3.237.745.09c.273-.196.739-.337 1.143-.334.838.006 1.452.642 1.452 1.503 0 .844-.591 1.464-1.4 1.464-.675 0-1.211-.433-1.272-1.027h-.771c.048 1.002.912 1.734 2.043 1.734m6.799-1.323c0 .719.45 1.323 1.285 1.323.822 0 1.272-.604 1.272-1.323v-.347c0-.72-.437-1.323-1.272-1.323-.822 0-1.285.603-1.285 1.323zm-3.275-3.764c0 .719.449 1.323 1.284 1.323.822 0 1.272-.604 1.272-1.323v-.347c0-.72-.437-1.323-1.272-1.323-.822 0-1.284.603-1.284 1.323zm.244 4.997h.732l4.522-6.577h-.732zm3.686-1.58c0-.398.181-.771.63-.771.463 0 .617.373.617.771v.347c0 .398-.167.771-.617.771-.462 0-.63-.373-.63-.771zm-3.275-3.764c0-.398.18-.771.629-.771.462 0 .617.373.617.771v.347c0 .398-.167.771-.617.771-.462 0-.629-.373-.629-.771zm14.107-2.571-1.155-.985a.79.79 0 0 0-.945 0l-1.154.985c-.145.144-.171.354-.04.485.132.131.354.171.486.039l.84-.695v7.086c0 .21.144.354.354.354s.354-.144.354-.354v-7.047l.84.696c.039.039.145.065.21.065.105 0 .21-.039.276-.144.104-.131.104-.341-.066-.485"/><path fill="#EB5757" d="M264.305 168.42a3.876 3.876 0 1 0 0-7.752 3.876 3.876 0 0 0 0 7.752"/><path fill="#fff" d="M278.462 163.135v4.29c0 .964-.662 1.657-1.761 1.657s-1.759-.693-1.759-1.657v-4.29h-.797v4.354c0 1.349 1.009 2.339 2.556 2.339 1.549 0 2.557-.99 2.557-2.339v-4.354zm3.042 3.609c0-.86.533-1.349 1.259-1.349.703 0 1.13.46 1.13 1.234v3.083h.758v-3.135c0-1.259-.671-1.862-1.67-1.862-.745 0-1.207.334-1.438.835h-.065v-.771h-.732v4.933h.758zm4.532 2.968h.759v-4.933h-.759zm.386-5.755a.53.53 0 0 0 .539-.514.53.53 0 0 0-.539-.514.53.53 0 0 0-.54.514.53.53 0 0 0 .54.514m5.884 7.605v-6.783h-.732v.783h-.09c-.167-.256-.463-.847-1.426-.847-1.246 0-2.107.989-2.107 2.543 0 1.567.861 2.557 2.094 2.557.951 0 1.272-.591 1.439-.861h.064v2.608zm-.745-4.317c0 1.118-.501 1.889-1.413 1.889-.95 0-1.439-.835-1.439-1.889 0-1.04.476-1.85 1.439-1.85.925 0 1.413.746 1.413 1.85m5.241.45c0 .925-.706 1.349-1.271 1.349-.63 0-1.08-.463-1.08-1.182v-3.083h-.757v3.134c0 1.259.668 1.863 1.593 1.863.745 0 1.233-.398 1.464-.899h.051v.835h.759v-4.933h-.759zm4.215 2.12c1.002 0 1.734-.501 1.966-1.246l-.733-.206c-.193.514-.639.771-1.233.771-.89 0-1.503-.575-1.538-1.632h3.58v-.321c0-1.837-1.091-2.466-2.119-2.466-1.336 0-2.222 1.053-2.222 2.569s.873 2.531 2.299 2.531m-1.538-2.968c.051-.767.594-1.452 1.461-1.452.822 0 1.349.617 1.349 1.452zm7.65-3.712h-.835l2.415 6.577h.822l2.415-6.577h-.835l-1.953 5.536h-.077zm5.739 6.577h.758v-4.933h-.758zm.385-5.755c.295 0 .54-.232.54-.514s-.245-.514-.54-.514a.53.53 0 0 0-.539.514.53.53 0 0 0 .539.514m5.255 1.927c-.237-.7-.77-1.169-1.747-1.169-1.041 0-1.811.591-1.811 1.426 0 .68.405 1.136 1.31 1.348l.822.193c.498.116.733.353.733.694 0 .424-.45.771-1.157.771-.619 0-1.008-.267-1.143-.797l-.719.18c.176.838.867 1.285 1.875 1.285 1.147 0 1.927-.627 1.927-1.478 0-.687-.43-1.121-1.31-1.336l-.732-.18c-.585-.144-.848-.34-.848-.719 0-.424.45-.732 1.053-.732.661 0 .935.366 1.067.706zm1.231 3.828h.758v-4.933h-.758zm.386-5.755a.53.53 0 0 0 .539-.514.53.53 0 0 0-.539-.514.53.53 0 0 0-.54.514.53.53 0 0 0 .54.514m3.905.822h-1.053v-1.182h-.758v1.182h-.745v.642h.745v3.083c0 .861.694 1.272 1.337 1.272.282 0 .462-.051.565-.09l-.155-.681c-.064.013-.167.039-.334.039-.334 0-.655-.103-.655-.745v-2.878h1.053zm3.092 5.036c1.336 0 2.235-1.015 2.235-2.544 0-1.542-.899-2.556-2.235-2.556s-2.236 1.014-2.236 2.556c0 1.529.9 2.544 2.236 2.544m0-.681c-1.015 0-1.477-.874-1.477-1.863s.462-1.876 1.477-1.876 1.478.887 1.478 1.876-.463 1.863-1.478 1.863m3.392.578h.758v-3.122c0-.668.526-1.156 1.246-1.156.202 0 .411.039.463.051v-.77a7 7 0 0 0-.398-.013c-.591 0-1.106.334-1.285.822h-.052v-.745h-.732z"/><path fill="#219653" d="M338.35 168.556h.719v-1.76h1.76v-.72h-1.76v-1.76h-.719v1.76h-1.76v.72h1.76zm3.867-.193h3.096v1.349h.758v-1.349h.899v-.706h-.899v-4.522h-.963l-2.891 4.573zm3.096-.706h-2.235v-.052l2.184-3.456h.051zm4.916 2.145c1.253 0 2.172-.925 2.172-2.184 0-1.275-.887-2.21-2.094-2.21-.444 0-.874.158-1.143.373h-.039l.231-1.94h2.749v-.706h-3.417l-.399 3.237.746.09c.273-.196.738-.337 1.143-.334.838.006 1.452.642 1.452 1.503 0 .844-.591 1.464-1.401 1.464-.674 0-1.21-.433-1.272-1.027h-.77c.048 1.002.912 1.734 2.042 1.734m3.765-.039a.58.58 0 0 0 .578-.578.58.58 0 0 0-.578-.578.58.58 0 0 0-.578.578c0 .318.26.578.578.578m3.848.039c1.253 0 2.172-.925 2.172-2.184 0-1.275-.887-2.21-2.094-2.21-.443 0-.874.158-1.143.373h-.039l.231-1.94h2.749v-.706h-3.417l-.398 3.237.745.09c.273-.196.738-.337 1.143-.334.838.006 1.452.642 1.452 1.503 0 .844-.591 1.464-1.401 1.464-.674 0-1.21-.433-1.271-1.027h-.771c.048 1.002.912 1.734 2.042 1.734m5.503 0c1.253 0 2.171-.925 2.171-2.184 0-1.275-.886-2.21-2.094-2.21-.443 0-.873.158-1.143.373h-.039l.232-1.94h2.748v-.706h-3.416l-.399 3.237.745.09c.273-.196.739-.337 1.143-.334.839.006 1.453.642 1.453 1.503 0 .844-.592 1.464-1.401 1.464-.674 0-1.211-.433-1.272-1.027h-.771c.049 1.002.913 1.734 2.043 1.734m6.8-1.323c0 .719.449 1.323 1.285 1.323.821 0 1.271-.604 1.271-1.323v-.347c0-.72-.437-1.323-1.271-1.323-.823 0-1.285.603-1.285 1.323zm-3.276-3.764c0 .719.45 1.323 1.285 1.323.822 0 1.271-.604 1.271-1.323v-.347c0-.72-.437-1.323-1.271-1.323-.823 0-1.285.603-1.285 1.323zm.244 4.997h.732l4.522-6.577h-.732zm3.687-1.58c0-.398.18-.771.63-.771.462 0 .616.373.616.771v.347c0 .398-.167.771-.616.771-.463 0-.63-.373-.63-.771zm-3.276-3.764c0-.398.18-.771.63-.771.462 0 .616.373.616.771v.347c0 .398-.167.771-.616.771-.463 0-.63-.373-.63-.771zm13.705-2.571-1.155-.985a.79.79 0 0 0-.945 0l-1.154.985c-.144.144-.171.354-.039.485.131.131.354.171.485.039l.84-.695v7.086c0 .21.144.354.354.354s.354-.144.354-.354v-7.047l.84.696c.039.039.144.065.21.065.105 0 .21-.039.276-.144.105-.131.105-.341-.066-.485"/><path fill="#fff" d="M130.736 362.954q-.565 0-1.018-.225a1.9 1.9 0 0 1-.726-.616 1.7 1.7 0 0 1-.298-.893h.77q.045.446.405.739.363.288.867.288.405 0 .72-.189.318-.19.497-.52.183-.334.183-.755 0-.43-.189-.767a1.4 1.4 0 0 0-.514-.537 1.46 1.46 0 0 0-.748-.199 2 2 0 0 0-.62.093 1.8 1.8 0 0 0-.524.241l-.745-.089.399-3.238h3.417v.707h-2.749l-.232 1.94h.039q.203-.161.507-.267a1.9 1.9 0 0 1 .636-.106q.604 0 1.076.289.475.285.745.784.273.496.273 1.137 0 .629-.282 1.124a2.1 2.1 0 0 1-.771.777q-.491.282-1.118.282m5.592 0q-1.088 0-1.689-.883-.597-.882-.597-2.495 0-1.6.604-2.489.603-.89 1.682-.89 1.08 0 1.683.89.604.89.604 2.489 0 1.613-.6 2.495-.598.883-1.687.883m0-.707q.72 0 1.118-.693.398-.694.398-1.978 0-1.281-.401-1.982-.401-.703-1.115-.703-.712 0-1.114.703-.401.7-.401 1.982 0 1.284.398 1.978.401.693 1.117.693m-5.335-46.658v6.578h-.796v-5.743h-.039l-1.606 1.066v-.808l1.645-1.093zm4.037 6.668q-1.089 0-1.689-.884-.597-.882-.598-2.495 0-1.6.604-2.489.605-.89 1.683-.89t1.683.89q.603.89.604 2.489 0 1.613-.601 2.495-.597.884-1.686.884m0-.707q.72 0 1.118-.693.398-.694.398-1.979 0-1.281-.401-1.981-.402-.704-1.115-.704t-1.114.704q-.402.7-.402 1.981 0 1.285.398 1.979.402.693 1.118.693m5.653.707q-1.089 0-1.69-.884-.597-.882-.597-2.495 0-1.6.604-2.489.603-.89 1.683-.89 1.079 0 1.682.89.604.89.604 2.489 0 1.613-.6 2.495-.599.884-1.686.884m0-.707q.719 0 1.117-.693.399-.694.398-1.979 0-1.281-.401-1.981-.402-.704-1.114-.704-.714 0-1.115.704-.402.7-.401 1.981 0 1.285.398 1.979.401.693 1.118.693m-9.69-46.658v6.577h-.796v-5.742h-.039l-1.606 1.066v-.809l1.645-1.092zm3.947 6.667q-.565 0-1.018-.225a1.9 1.9 0 0 1-.726-.616 1.7 1.7 0 0 1-.298-.893h.77q.045.445.405.738.363.29.867.289.405 0 .72-.189.317-.19.497-.52.183-.334.183-.755 0-.43-.189-.768a1.4 1.4 0 0 0-.514-.536 1.46 1.46 0 0 0-.748-.199 2 2 0 0 0-.62.093 1.7 1.7 0 0 0-.524.241l-.745-.09.399-3.237h3.417v.706h-2.749l-.232 1.94h.039q.202-.16.507-.267.306-.105.636-.106.604 0 1.076.29.475.285.745.783.273.498.273 1.137 0 .63-.282 1.124a2.1 2.1 0 0 1-.771.778q-.492.282-1.118.282m5.592 0q-1.088 0-1.689-.883-.597-.883-.597-2.496 0-1.6.604-2.489.603-.89 1.682-.889 1.08 0 1.683.889.604.89.604 2.489 0 1.613-.6 2.496-.598.882-1.687.883m0-.707q.72 0 1.118-.693.398-.694.398-1.979 0-1.281-.401-1.981-.401-.703-1.115-.703-.712 0-1.114.703-.401.7-.401 1.981 0 1.285.398 1.979.401.693 1.117.693m-11.851-40.081v-.578l2.171-2.376q.382-.418.629-.726.248-.312.366-.584.123-.277.122-.579 0-.52-.362-.825-.36-.305-.896-.305-.573 0-.909.344-.338.34-.338.902h-.758q0-.578.267-1.015a1.86 1.86 0 0 1 .726-.681 2.2 2.2 0 0 1 1.037-.244q.579 0 1.025.244t.7.659q.254.414.254.921 0 .363-.132.71a3.2 3.2 0 0 1-.45.768q-.318.42-.883 1.028l-1.477 1.58v.051h3.057v.706zm7.621.09q-1.089 0-1.689-.883-.598-.882-.598-2.495 0-1.6.604-2.489.605-.89 1.683-.89t1.683.89q.603.89.604 2.489 0 1.613-.601 2.495-.597.883-1.686.883m0-.707q.72 0 1.118-.693t.398-1.978q0-1.281-.402-1.982-.401-.703-1.114-.703t-1.114.703q-.402.7-.402 1.982 0 1.284.398 1.978.402.693 1.118.693m5.652.707q-1.088 0-1.689-.883-.597-.882-.597-2.495 0-1.6.604-2.489.603-.89 1.682-.89 1.08 0 1.683.89.604.89.604 2.489 0 1.613-.6 2.495-.598.883-1.687.883m0-.707q.72 0 1.118-.693t.398-1.978q0-1.281-.401-1.982-.401-.703-1.115-.703-.712 0-1.114.703-.401.7-.401 1.982 0 1.284.398 1.978.401.693 1.117.693m-13.273-40.257v-.578l2.171-2.376q.382-.418.629-.727.248-.31.366-.584.123-.276.122-.578 0-.52-.362-.825-.36-.306-.896-.306-.573 0-.909.344-.338.34-.338.903h-.758q0-.579.267-1.015a1.86 1.86 0 0 1 .726-.681 2.2 2.2 0 0 1 1.037-.244 2.1 2.1 0 0 1 1.025.244q.446.244.7.658t.254.922q0 .363-.132.71a3.1 3.1 0 0 1-.45.767q-.318.421-.883 1.028l-1.477 1.58v.052h3.057v.706zm7.531.09q-.565 0-1.018-.225a1.9 1.9 0 0 1-.726-.617 1.7 1.7 0 0 1-.299-.892h.771q.045.446.405.739.363.288.867.288.405 0 .719-.189.318-.19.498-.521.183-.334.183-.754 0-.43-.189-.767a1.4 1.4 0 0 0-.514-.537 1.45 1.45 0 0 0-.748-.199 2 2 0 0 0-.62.093 1.7 1.7 0 0 0-.524.241l-.745-.09.398-3.237h3.418v.706h-2.75l-.231 1.94h.039q.203-.16.507-.266a1.9 1.9 0 0 1 .636-.106q.604 0 1.076.289.475.285.745.783.273.498.273 1.137 0 .63-.282 1.124a2.07 2.07 0 0 1-.771.777q-.491.283-1.118.283m5.592 0q-1.089 0-1.689-.883-.597-.884-.597-2.495 0-1.6.603-2.49.605-.89 1.683-.889 1.08 0 1.683.889.604.89.604 2.49 0 1.611-.601 2.495-.597.883-1.686.883m0-.707q.72 0 1.118-.693.398-.694.398-1.978 0-1.282-.401-1.982-.401-.704-1.115-.704-.713 0-1.114.704-.402.7-.402 1.982 0 1.284.399 1.978.401.693 1.117.693"/><path fill="#2F80ED" d="M164.176 214.286a2.584 2.584 0 0 0-5.168 0v132.429a2.584 2.584 0 0 0 5.168 0z"/><path fill="#EB5757" d="M171.928 295.035a2.584 2.584 0 0 0-5.168 0v51.68a2.584 2.584 0 0 0 5.168 0z"/><path fill="#fff" d="m162.077 370.828.628-.491 2.894 3.706q.583.746.496 1.463-.088.712-.764 1.24a2.2 2.2 0 0 1-.877.437 1.6 1.6 0 0 1-.869-.038 1.55 1.55 0 0 1-.726-.538l.618-.482a.83.83 0 0 0 .653.341q.397.012.766-.277.408-.318.43-.743.023-.43-.354-.913zm7.069 2.97a2 2 0 0 1-.779.386 1.45 1.45 0 0 1-.797-.035 1.45 1.45 0 0 1-.683-.509q-.262-.335-.292-.644a1.2 1.2 0 0 1 .095-.605q.127-.29.347-.556.221-.27.464-.517.319-.323.521-.518.204-.199.259-.336.058-.14-.054-.284l-.016-.02q-.293-.375-.66-.422-.365-.05-.777.273-.428.335-.524.711a1.4 1.4 0 0 0-.03.667l-.725.241a1.73 1.73 0 0 1-.026-.868q.099-.4.339-.714.242-.318.534-.547.188-.147.466-.291.28-.15.614-.19.337-.043.704.114t.73.62l2 2.561-.597.467-.411-.526-.03.023q.037.174.009.429-.03.256-.186.54a1.8 1.8 0 0 1-.495.55m-.328-.607q.354-.278.488-.606a1.2 1.2 0 0 0-.146-1.21l-.427-.547q-.003.076-.102.214-.099.134-.244.293-.145.153-.286.297l-.227.226a3 3 0 0 0-.358.439.95.95 0 0 0-.168.452q-.018.227.16.455.243.311.598.291.355-.025.712-.304m1.899-4.533 1.827 2.339-.597.467-3.037-3.888.577-.451.474.608.051-.04a1.4 1.4 0 0 1 .043-.8q.137-.399.576-.744.59-.46 1.235-.381.647.077 1.228.821l1.93 2.47-.597.467-1.898-2.43q-.358-.457-.796-.528-.44-.071-.854.252-.428.334-.494.834-.066.495.332 1.004"/><path fill="#2F80ED" d="M235.288 236.895a2.584 2.584 0 0 0-5.168 0V344.13a2.583 2.583 0 1 0 5.168 0z"/><path fill="#EB5757" d="M243.04 316.999a2.584 2.584 0 0 0-5.168 0v27.132a2.584 2.584 0 0 0 5.168 0z"/><path fill="#fff" d="m229.3 371.707.749-.585 5.123 2.926.06-.048-1.6-5.678.75-.585 4.049 5.182-.587.459-3.077-3.937-.05.039 1.457 5.203-.567.443-4.697-2.672-.05.039 3.077 3.938-.588.459zm11.524-.51a2 2 0 0 1-.779.384 1.46 1.46 0 0 1-.798-.033 1.47 1.47 0 0 1-.682-.509q-.262-.335-.292-.645-.032-.312.094-.604.127-.29.348-.557.22-.27.464-.517.318-.322.521-.517.203-.2.259-.336.057-.14-.055-.284l-.016-.02q-.293-.375-.659-.423-.364-.048-.778.274-.426.334-.524.711a1.4 1.4 0 0 0-.029.667l-.725.24a1.73 1.73 0 0 1-.026-.868 1.9 1.9 0 0 1 .339-.713q.24-.318.534-.548.187-.146.466-.29.28-.15.613-.19.338-.043.705.113.368.158.729.621l2.001 2.561-.597.466-.411-.526-.031.024a1.3 1.3 0 0 1 .009.429q-.029.255-.185.54t-.495.55m-.329-.608q.356-.277.489-.606a1.19 1.19 0 0 0-.146-1.21l-.428-.546q-.002.075-.101.214a4 4 0 0 1-.244.292 17 17 0 0 1-.513.523 3 3 0 0 0-.358.439.96.96 0 0 0-.168.453q-.02.226.159.454.243.311.599.291.355-.025.711-.304m3.13-1.727-3.038-3.887.577-.451.459.587.04-.031a1.2 1.2 0 0 1 .019-.769q.138-.397.488-.67l.166-.126a2 2 0 0 1 .156-.109l.474.607q-.036.017-.157.086a2 2 0 0 0-.239.158q-.426.333-.502.808a1.08 1.08 0 0 0 .232.871l1.921 2.459z"/><path fill="#2F80ED" d="M305.618 200.074a2.584 2.584 0 0 0-5.168 0v143.411a2.584 2.584 0 0 0 5.168 0z"/><path fill="#EB5757" d="M313.37 268.549a2.584 2.584 0 0 0-5.168 0v74.936a2.584 2.584 0 0 0 5.168 0z"/><path fill="#fff" d="m298.904 371.769.75-.585 5.123 2.925.06-.047-1.6-5.678.749-.586 4.05 5.183-.587.459-3.077-3.938-.05.039 1.456 5.204-.567.443-4.696-2.672-.05.039 3.076 3.938-.587.459zm11.524-.511a2 2 0 0 1-.779.386q-.411.093-.797-.034a1.46 1.46 0 0 1-.683-.51q-.26-.334-.292-.644-.031-.313.095-.604.127-.291.348-.557a7 7 0 0 1 .464-.517q.318-.322.521-.518.203-.198.258-.336.058-.14-.054-.283l-.016-.021q-.292-.374-.66-.422-.364-.05-.777.274-.428.333-.524.711a1.4 1.4 0 0 0-.029.667l-.725.24a1.7 1.7 0 0 1-.027-.868q.1-.4.339-.714.241-.318.535-.547.187-.147.465-.291a1.8 1.8 0 0 1 .614-.19 1.34 1.34 0 0 1 .705.114q.368.158.729.621l2.001 2.561-.598.466-.41-.526-.031.024q.038.173.009.429-.029.255-.185.54t-.496.549m-.328-.607q.355-.278.489-.606.136-.33.089-.648a1.2 1.2 0 0 0-.235-.562l-.428-.547q-.002.076-.102.215a4 4 0 0 1-.244.292q-.145.154-.285.297-.142.138-.228.226a3 3 0 0 0-.358.439.95.95 0 0 0-.167.453q-.02.226.159.454.243.311.598.291.355-.025.712-.304m4.514-.461a1.7 1.7 0 0 1-.491.269l-.26-.645q.262-.114.417-.26a.6.6 0 0 0 .179-.381q.028-.234-.093-.615l-.126-.391-4.491-2.785.648-.505 3.493 2.259.041-.032-1.348-3.936.648-.506 1.83 5.743q.364 1.15-.447 1.785"/><path fill="#2F80ED" d="M199.005 226.559a2.584 2.584 0 0 0-5.168 0v118.218a2.584 2.584 0 0 0 5.168 0z"/><path fill="#EB5757" d="M206.757 265.319a2.584 2.584 0 0 0-5.168 0v79.458a2.584 2.584 0 0 0 5.168 0z"/><path fill="#fff" d="m197.725 376.233-4.049-5.183 3.108-2.428.435.557-2.481 1.938 1.369 1.751 2.247-1.756.435.557-2.247 1.756 1.811 2.318zm5.51-4.174q-.562.439-1.163.509a2.1 2.1 0 0 1-1.171-.21q-.57-.281-1.036-.877-.467-.597-.605-1.223a2.2 2.2 0 0 1 .055-1.192q.193-.567.719-.978a2.4 2.4 0 0 1 .679-.368q.375-.13.796-.091.42.034.854.294.435.26.86.803l.198.253-2.822 2.205q.506.606 1.097.68.594.07 1.12-.341a1.5 1.5 0 0 0 .486-.624q.134-.35.011-.743l.704-.289q.207.547.009 1.138-.199.591-.791 1.054m-3.039-1.391 2.214-1.73q-.386-.494-.927-.592-.543-.102-1.03.278a1.37 1.37 0 0 0-.532 1.353q.06.375.275.691m5.575-.72-4.049-5.184.596-.466 1.495 1.913.051-.039a7 7 0 0 1-.02-.401 1.4 1.4 0 0 1 .118-.548q.124-.3.504-.598a1.96 1.96 0 0 1 1.057-.43q.566-.048 1.128.239.563.286 1.041.899.483.618.626 1.234.142.615-.036 1.154a1.93 1.93 0 0 1-.666.915q-.375.293-.697.345a1.4 1.4 0 0 1-.57-.015 5 5 0 0 1-.397-.122l-.071.055.467.598zm-.932-2.403q.516.66 1.127.852.61.188 1.15-.234.375-.292.471-.686a1.53 1.53 0 0 0-.04-.832 2.7 2.7 0 0 0-.46-.856 2.6 2.6 0 0 0-.704-.64 1.46 1.46 0 0 0-.787-.229q-.402.001-.782.298-.546.427-.516 1.05.031.624.541 1.277"/><path fill="#2F80ED" d="M269.497 284.053a2.584 2.584 0 0 0-5.168 0v62.662a2.584 2.584 0 0 0 5.168 0z"/><path fill="#EB5757" d="M277.249 258.859a2.584 2.584 0 0 0-5.168 0v87.856a2.584 2.584 0 0 0 5.168 0z"/><path fill="#fff" d="m269.798 377.3-.658.514-2.146-6.67.647-.506 5.953 3.696-.658.514-1.669-1.06-2.095 1.636zm-.863-2.586 1.7-1.329-2.657-1.69-.04.032zm6.524.51-4.176-5.345.577-.451.482.618.071-.056a7 7 0 0 1-.019-.4 1.35 1.35 0 0 1 .118-.548q.123-.301.503-.597.491-.384 1.057-.431.567-.048 1.129.239t1.041.899q.482.617.626 1.234a2.1 2.1 0 0 1-.037 1.154q-.18.535-.666.916-.375.293-.697.344a1.4 1.4 0 0 1-.569-.015 5 5 0 0 1-.398-.122l-.05.039 1.605 2.056zm-2.07-3.86q.517.66 1.126.853.611.186 1.15-.235.375-.293.471-.685a1.54 1.54 0 0 0-.04-.834 2.7 2.7 0 0 0-.46-.854 2.6 2.6 0 0 0-.704-.64 1.44 1.44 0 0 0-.786-.23q-.404.001-.782.297-.548.427-.516 1.051.03.624.541 1.277m5.274-.99-3.037-3.888.577-.45.458.587.041-.032a1.2 1.2 0 0 1 .019-.768q.138-.398.488-.671a6 6 0 0 1 .321-.235l.475.608q-.037.015-.157.086-.121.065-.239.158-.426.332-.502.807-.076.477.231.871l1.922 2.46z"/><path fill="#2F80ED" d="M340.198 222.683a2.584 2.584 0 0 0-5.168 0v124.032a2.584 2.584 0 0 0 5.168 0z"/><path fill="#EB5757" d="M347.95 306.017a2.584 2.584 0 0 0-5.168 0v40.698a2.584 2.584 0 0 0 5.168 0z"/><path fill="#fff" d="m338.037 370.877.628-.491 2.894 3.706q.584.746.496 1.463-.087.712-.764 1.24a2.2 2.2 0 0 1-.877.437 1.6 1.6 0 0 1-.869-.038 1.55 1.55 0 0 1-.726-.538l.618-.482a.83.83 0 0 0 .653.341q.397.012.767-.276.407-.319.43-.744.022-.43-.355-.913zm7.063.27-1.796-2.298.597-.467 3.037 3.887-.597.467-.514-.658-.041.032q.096.402-.031.836-.13.43-.569.774-.546.428-1.184.342t-1.218-.829l-1.93-2.47.598-.467 1.897 2.43q.333.424.769.492.438.065.81-.225a1.3 1.3 0 0 0 .363-.468q.145-.296.117-.654-.024-.36-.308-.724m1.702-2.537 1.827 2.338-.597.467-3.037-3.888.577-.45.475.607.05-.039a1.4 1.4 0 0 1 .044-.801q.135-.4.576-.743.589-.462 1.235-.382.645.078 1.228.821l1.93 2.47-.598.467-1.898-2.43q-.358-.457-.796-.528-.438-.07-.854.252a1.24 1.24 0 0 0-.494.834q-.065.496.332 1.005"/><path fill="#2F80ED" d="M373.736 222.683a2.584 2.584 0 0 0-5.168 0v124.032a2.584 2.584 0 0 0 5.168 0z"/><path fill="#EB5757" d="M381.488 306.017a2.584 2.584 0 0 0-5.168 0v40.698a2.584 2.584 0 0 0 5.168 0z"/><path fill="#fff" d="m371.574 370.877.628-.491 2.895 3.706q.584.746.495 1.463-.087.712-.763 1.24a2.24 2.24 0 0 1-.878.437 1.57 1.57 0 0 1-.868-.038 1.55 1.55 0 0 1-.726-.538l.617-.482q.257.329.654.341t.766-.276q.408-.319.43-.744.022-.43-.354-.913zm7.062.27-1.795-2.298.598-.467 3.036 3.887-.596.467-.515-.658-.04.032q.094.402-.032.836-.128.43-.568.774-.547.428-1.185.342-.636-.085-1.218-.829l-1.93-2.47.597-.467 1.899 2.43q.332.424.767.492.44.065.811-.225.222-.174.364-.468.144-.296.117-.654-.024-.36-.31-.724m1.704-2.537 1.827 2.338-.597.467-3.038-3.888.577-.45.475.607.05-.039a1.4 1.4 0 0 1 .044-.801q.136-.4.577-.743.589-.462 1.233-.382.647.078 1.229.821l1.93 2.47-.597.467-1.898-2.43q-.358-.457-.796-.528-.44-.07-.855.252a1.24 1.24 0 0 0-.493.834q-.066.496.332 1.005"/><path fill="#2F80ED" d="M407.273 222.683a2.584 2.584 0 0 0-5.168 0v124.032a2.584 2.584 0 0 0 5.168 0z"/><path fill="#EB5757" d="M415.025 306.017a2.584 2.584 0 0 0-5.168 0v40.698a2.584 2.584 0 0 0 5.168 0z"/><path fill="#fff" d="m405.112 370.877.628-.491 2.894 3.706q.584.746.496 1.463-.088.712-.764 1.24a2.2 2.2 0 0 1-.877.437 1.6 1.6 0 0 1-.869-.038 1.55 1.55 0 0 1-.726-.538l.618-.482a.83.83 0 0 0 .653.341q.398.012.767-.276.407-.319.429-.744.024-.43-.354-.913zm7.062.27-1.795-2.298.597-.467 3.037 3.887-.597.467-.514-.658-.041.032q.096.402-.031.836-.13.43-.569.774-.547.428-1.184.342t-1.218-.829l-1.93-2.47.597-.467 1.899 2.43q.332.424.767.492.439.065.81-.225.223-.174.364-.468.144-.296.117-.654-.024-.36-.309-.724m1.703-2.537 1.827 2.338-.597.467-3.037-3.888.577-.45.475.607.05-.039a1.4 1.4 0 0 1 .043-.801q.136-.4.577-.743.59-.462 1.234-.382.647.078 1.229.821l1.929 2.47-.597.467-1.898-2.43q-.358-.457-.795-.528-.441-.07-.855.252a1.24 1.24 0 0 0-.494.834q-.065.496.332 1.005"/><path fill="#262D3F" d="m130.753 140.642.69-1.989h2.936l.686 1.989h1.204l-2.705-7.517h-1.31l-2.705 7.517zm1.02-2.943 1.109-3.208h.058l1.109 3.208zm9.065.605c.004.958-.708 1.413-1.325 1.413-.679 0-1.149-.492-1.149-1.259v-3.454h-1.097v3.586c0 1.399.767 2.126 1.85 2.126.848 0 1.424-.448 1.684-1.05h.059v.976h1.079v-5.638h-1.101zm4.686 2.448c1.028 0 1.432-.627 1.63-.987h.092v.877h1.072v-7.517h-1.098v2.793h-.066c-.198-.348-.573-.987-1.622-.987-1.362 0-2.364 1.075-2.364 2.903 0 1.825.987 2.918 2.356 2.918m.243-.936c-.98 0-1.491-.862-1.491-1.993 0-1.119.5-1.96 1.491-1.96.958 0 1.471.782 1.471 1.96 0 1.186-.524 1.993-1.471 1.993m4.117.826h1.097v-5.638h-1.097zm.554-6.507c.378 0 .694-.294.694-.654 0-.359-.316-.657-.694-.657-.382 0-.694.298-.694.657s.312.654.694.654m4.45 6.621c1.229 0 2.099-.606 2.349-1.523l-1.039-.187c-.198.532-.675.803-1.299.803-.94 0-1.571-.609-1.601-1.695h4.008v-.389c0-2.037-1.218-2.834-2.495-2.834-1.571 0-2.606 1.197-2.606 2.929 0 1.751 1.02 2.896 2.683 2.896m-1.586-3.425c.044-.8.624-1.493 1.516-1.493.851 0 1.409.631 1.413 1.493zm6.32-.036c0-.899.55-1.413 1.314-1.413.745 0 1.196.488 1.196 1.306v3.454h1.098v-3.586c0-1.395-.768-2.125-1.92-2.125-.848 0-1.402.393-1.663.991h-.069v-.918h-1.054v5.638h1.098zm7.454 3.461c1.333 0 2.195-.8 2.316-1.898h-1.068c-.139.61-.613.969-1.24.969-.929 0-1.527-.774-1.527-2.004 0-1.207.609-1.967 1.527-1.967.697 0 1.123.44 1.24.969h1.068c-.117-1.138-1.046-1.894-2.327-1.894-1.589 0-2.617 1.197-2.617 2.918 0 1.699.991 2.907 2.628 2.907m5.92 0c1.229 0 2.099-.606 2.349-1.523l-1.039-.187c-.198.532-.675.803-1.299.803-.94 0-1.571-.609-1.601-1.695h4.008v-.389c0-2.037-1.218-2.834-2.495-2.834-1.571 0-2.606 1.197-2.606 2.929 0 1.751 1.02 2.896 2.683 2.896m-1.586-3.425c.044-.8.624-1.493 1.516-1.493.851 0 1.409.631 1.413 1.493zm14.575-.447c0-2.404-1.438-3.862-3.384-3.862-1.952 0-3.388 1.458-3.388 3.862 0 2.4 1.436 3.861 3.388 3.861 1.946 0 3.384-1.457 3.384-3.861m-1.123 0c0 1.831-.969 2.826-2.261 2.826-1.296 0-2.261-.995-2.261-2.826 0-1.832.965-2.827 2.261-2.827 1.292 0 2.261.995 2.261 2.827m7.272-1.88h-1.178l-1.424 4.339h-.059l-1.428-4.339h-1.178l2.048 5.638h1.175zm3.259 5.752c1.23 0 2.1-.606 2.35-1.523l-1.039-.187c-.198.532-.676.803-1.3.803-.939 0-1.57-.609-1.6-1.695h4.009v-.389c0-2.037-1.219-2.834-2.497-2.834-1.571 0-2.605 1.197-2.605 2.929 0 1.751 1.02 2.896 2.682 2.896m-1.585-3.425c.044-.8.624-1.493 1.516-1.493.852 0 1.409.631 1.413 1.493zm5.222 3.311h1.097v-3.443c0-.737.569-1.27 1.348-1.27.227 0 .484.041.572.066v-1.049a4 4 0 0 0-.466-.026c-.66 0-1.226.374-1.431.98h-.059v-.896h-1.061zm8.962-5.638h-1.179l-1.424 4.339h-.059l-1.428-4.339h-1.178l2.049 5.638h1.174zm1.031 5.638h1.097v-5.638h-1.097zm.554-6.507c.378 0 .694-.294.694-.654 0-.359-.316-.657-.694-.657-.382 0-.694.298-.694.657s.312.654.694.654m4.449 6.621c1.23 0 2.1-.606 2.349-1.523l-1.038-.187c-.198.532-.676.803-1.3.803-.939 0-1.571-.609-1.6-1.695h4.008v-.389c0-2.037-1.218-2.834-2.495-2.834-1.571 0-2.606 1.197-2.606 2.929 0 1.751 1.02 2.896 2.682 2.896m-1.585-3.425c.044-.8.624-1.493 1.516-1.493.851 0 1.409.631 1.413 1.493zm6.434 3.311h1.116l1.145-4.07h.084l1.146 4.07h1.119l1.656-5.638h-1.135l-1.097 4.122h-.055l-1.101-4.122h-1.134l-1.109 4.141h-.055l-1.105-4.141h-1.134z"/></g><g filter="url(#d)"><rect width="169.378" height="103" x="346" y="228.952" fill="#292E45" rx="3"/><rect width="168.878" height="102.5" x="346.25" y="229.202" stroke="#fff" stroke-opacity=".05" stroke-width=".5" rx="2.75"/><g clip-path="url(#e)"><path fill="#fff" fill-opacity=".1" d="M361.048 240.396h-.277v70.132h.277z"/><path fill="#5D657B" d="M358.867 316.576v2.018c0 .351-.169.54-.463.54-.269 0-.463-.157-.463-.397h-.337c0 .434.337.7.8.7.49 0 .804-.302.804-.843v-2.018zm1.605 2.872c.369 0 .562-.198.629-.336h.016v.287h.325v-1.395c0-.672-.512-.75-.782-.75-.32 0-.684.111-.849.496l.308.111c.072-.155.242-.32.552-.32.299 0 .446.158.446.43v.011c0 .157-.16.143-.546.193-.392.051-.821.138-.821.623 0 .413.32.65.722.65m.05-.292c-.259 0-.447-.116-.447-.342 0-.248.226-.325.48-.358.138-.016.507-.055.562-.121v.298c0 .264-.209.523-.595.523m1.839-1.031c0-.369.229-.579.54-.579.302 0 .486.198.486.53v1.323h.325v-1.345c0-.541-.288-.8-.717-.8-.32 0-.518.144-.617.359h-.028v-.331h-.314v2.117h.325z"/><path fill="#fff" fill-opacity=".1" d="M375.462 240.396h-.277v70.132h.277z"/><path fill="#5D657B" d="M371.923 319.399h.342v-1.263h1.224v-.303h-1.224v-.954h1.351v-.303h-1.693zm2.966.044c.43 0 .744-.215.843-.535l-.314-.088c-.082.22-.274.331-.529.331-.382 0-.645-.247-.66-.7h1.537v-.138c0-.789-.469-1.059-.91-1.059-.573 0-.954.452-.954 1.103 0 .65.375 1.086.987 1.086m-.66-1.273c.022-.33.255-.624.627-.624.353 0 .579.265.579.624zm2.075 1.229h.315v-.326h.038c.072.116.21.37.618.37.529 0 .898-.425.898-1.097 0-.667-.369-1.092-.904-1.092-.413 0-.54.254-.612.364h-.027v-1.042h-.326zm.32-1.059c0-.474.21-.794.607-.794.413 0 .617.348.617.794 0 .452-.21.811-.617.811-.392 0-.607-.331-.607-.811"/><path fill="#fff" fill-opacity=".1" d="M389.877 240.396h-.277v70.132h.277z"/><path fill="#5D657B" d="M386.338 316.576v2.823h.32v-2.145h.027l.882 2.145h.309l.882-2.145h.027v2.145h.32v-2.823h-.408l-.959 2.343h-.033l-.959-2.343zm4.031 2.872c.369 0 .563-.198.629-.336h.016v.287h.325v-1.395c0-.672-.512-.75-.782-.75-.32 0-.684.111-.849.496l.308.111c.072-.155.241-.32.552-.32.299 0 .446.158.446.43v.011c0 .157-.16.143-.546.193-.392.051-.821.138-.821.623 0 .413.32.65.722.65m.05-.292c-.259 0-.447-.115-.447-.342 0-.248.226-.325.48-.358.138-.016.507-.055.562-.121v.298c0 .264-.209.523-.595.523m1.514.243h.325v-1.34c0-.286.226-.496.535-.496.087 0 .176.017.199.022v-.331l-.172-.005c-.253 0-.474.143-.551.353h-.022v-.32h-.314z"/><path fill="#fff" fill-opacity=".1" d="M404.291 240.396h-.277v70.132h.277z"/><path fill="#5D657B" d="m401.145 319.399.284-.8h1.141l.284.8h.359l-1.037-2.823h-.353l-1.036 2.823zm.392-1.103.452-1.273h.022l.452 1.273zm2.071 1.897h.325v-1.12h.028c.071.116.209.37.617.37.529 0 .899-.425.899-1.097 0-.667-.37-1.092-.904-1.092-.414 0-.541.254-.612.364h-.039v-.336h-.314zm.32-1.853c0-.474.209-.794.606-.794.414 0 .618.348.618.794 0 .452-.21.811-.618.811-.391 0-.606-.331-.606-.811m2.045 1.059h.325v-1.34c0-.286.226-.496.535-.496.087 0 .176.017.198.022v-.331l-.171-.005c-.253 0-.474.143-.551.353h-.022v-.32h-.314z"/><path fill="#fff" fill-opacity=".1" d="M418.706 240.396h-.277v70.132h.277z"/><path fill="#5D657B" d="M415.167 316.576v2.823h.319v-2.145h.028l.882 2.145h.309l.882-2.145h.027v2.145h.32v-2.823h-.408l-.959 2.343h-.033l-.959-2.343zm4.031 2.872c.369 0 .563-.198.628-.336h.017v.287h.325v-1.395c0-.672-.512-.75-.783-.75-.319 0-.683.111-.848.496l.308.111c.072-.155.241-.32.552-.32.299 0 .446.158.446.43v.011c0 .157-.16.143-.546.193-.392.051-.821.138-.821.623 0 .413.32.65.722.65m.05-.292c-.259 0-.447-.116-.447-.342 0-.248.226-.325.48-.358.138-.016.507-.055.562-.121v.297c0 .265-.209.524-.595.524m1.648 1.037c.293 0 .5-.156.623-.486l.901-2.42-.356-.005-.584 1.687h-.022l-.585-1.687h-.352l.782 2.128-.06.165c-.119.323-.265.353-.502.292l-.082.287a.7.7 0 0 0 .237.039"/><path fill="#fff" fill-opacity=".1" d="M433.12 240.396h-.277v70.132h.277z"/><path fill="#5D657B" d="M431.493 316.576v2.018c0 .351-.168.54-.463.54-.268 0-.463-.157-.463-.397h-.336c0 .434.336.7.799.7.491 0 .805-.301.805-.843v-2.018zm2.317 1.957a.55.55 0 0 1-.546.579c-.27 0-.463-.198-.463-.507v-1.323h-.325v1.345c0 .54.287.799.683.799a.66.66 0 0 0 .629-.386h.022v.359h.325v-2.117h-.325zm1.246-.408c0-.369.229-.579.54-.579.302 0 .485.197.485.53v1.323h.326v-1.345c0-.541-.288-.8-.717-.8-.32 0-.518.144-.617.359h-.028v-.331h-.314v2.117h.325z"/><path fill="url(#f)" d="M452.802 240.396h-1.941a6.653 6.653 0 0 0-6.653 6.653v56.826a6.653 6.653 0 0 0 6.653 6.653h1.941a6.65 6.65 0 0 0 6.652-6.653v-56.826a6.653 6.653 0 0 0-6.652-6.653" opacity=".05"/><path fill="#8F92A1" d="M451.97 240.396h-.277v70.132h.277z" opacity=".1"/><path fill="#5D657B" d="M450.111 316.576v2.018c0 .351-.168.54-.463.54-.269 0-.463-.157-.463-.397h-.336c0 .434.336.7.799.7.49 0 .805-.302.805-.843v-2.018zm2.317 1.957a.55.55 0 0 1-.546.579c-.27 0-.463-.198-.463-.507v-1.323h-.325v1.345c0 .54.286.799.683.799.32 0 .529-.171.629-.386h.022v.359h.325v-2.117h-.325zm1.246-1.957h-.326v2.823h.326z"/><path fill="#fff" fill-opacity=".1" d="M471.651 240.396h-.277v70.132h.277z"/><path fill="#5D657B" d="m467.397 319.399.283-.8h1.141l.284.8h.359l-1.037-2.823h-.352l-1.037 2.823zm.391-1.103.452-1.273h.022l.452 1.273zm3.405.237a.55.55 0 0 1-.545.579c-.271 0-.464-.198-.464-.507v-1.323h-.325v1.345c0 .54.287.799.684.799a.66.66 0 0 0 .628-.386h.022v.359h.325v-2.117h-.325zm1.776 1.704c.507 0 .915-.232.915-.778v-2.177h-.315v.336h-.033c-.071-.11-.204-.364-.617-.364-.535 0-.904.425-.904 1.075 0 .662.386 1.037.898 1.037.414 0 .546-.243.618-.359h.027v.43c0 .353-.248.513-.589.513-.385 0-.52-.203-.607-.32l-.259.182c.132.222.393.425.866.425m-.012-1.164c-.407 0-.617-.308-.617-.749 0-.43.204-.778.617-.778.397 0 .607.32.607.778 0 .468-.215.749-.607.749"/><path fill="#fff" fill-opacity=".1" d="M486.066 240.396h-.278v70.132h.278z"/><path fill="#5D657B" d="M483.793 317.282h.331c-.015-.426-.408-.744-.954-.744-.54 0-.965.314-.965.788 0 .38.276.606.717.733l.347.099c.298.083.562.188.562.469 0 .309-.297.513-.688.513-.337 0-.634-.149-.662-.469h-.353c.033.463.408.777 1.015.777.65 0 1.019-.358 1.019-.816 0-.529-.501-.7-.793-.777l-.287-.077c-.21-.055-.546-.165-.546-.469 0-.27.248-.468.623-.468.342 0 .601.163.634.441m1.775 2.161c.43 0 .744-.215.843-.535l-.314-.088c-.083.22-.274.331-.529.331-.382 0-.645-.247-.66-.7h1.536v-.138c0-.789-.468-1.059-.909-1.059-.574 0-.954.452-.954 1.103 0 .65.375 1.086.987 1.086m-.66-1.274c.021-.329.255-.623.627-.623.352 0 .578.265.578.623zm2.031 2.024h.325v-1.12h.028c.071.116.209.37.617.37.529 0 .899-.425.899-1.097 0-.667-.37-1.092-.904-1.092-.414 0-.541.254-.612.364h-.039v-.336h-.314zm.319-1.853c0-.474.21-.794.607-.794.413 0 .617.348.617.794 0 .452-.209.811-.617.811-.391 0-.607-.331-.607-.811"/><path fill="#fff" fill-opacity=".1" d="M500.48 240.396h-.277v70.132h.277z"/><path fill="#5D657B" d="M499.323 317.987c0-.893-.524-1.449-1.246-1.449-.723 0-1.246.556-1.246 1.449 0 .894.523 1.45 1.246 1.45.722 0 1.246-.556 1.246-1.45m-.331 0c0 .734-.403 1.131-.915 1.131-.513 0-.916-.397-.916-1.131 0-.733.403-1.13.916-1.13.512 0 .915.397.915 1.13m1.721 1.456c.469 0 .777-.287.832-.662h-.325c-.06.232-.253.37-.507.37-.386 0-.634-.32-.634-.811 0-.479.254-.794.634-.794.287 0 .458.177.507.37h.325c-.055-.397-.391-.662-.838-.662-.573 0-.953.452-.953 1.097 0 .634.364 1.092.959 1.092m2.228-2.161h-.451v-.507h-.326v.507h-.319v.275h.319v1.324c0 .369.298.545.573.545a.7.7 0 0 0 .243-.038l-.066-.293c-.028.006-.072.017-.143.017-.144 0-.281-.044-.281-.32v-1.235h.451z"/><g filter="url(#g)"><path fill="#2F80ED" fill-rule="evenodd" d="M500.429 257.234a.415.415 0 0 1 .123.575c-1.703 2.634-3.103 5.812-4.481 8.939l-.042.096c-1.383 3.139-2.75 6.23-4.372 8.567-1.622 2.338-3.56 4.009-6.113 4.157-2.532.147-5.526-1.216-9.243-4.568-3.668-3.186-6.46-5.083-9.527-5.274-3.061-.191-6.514 1.314-11.505 5.288-6.82 5.431-16.216 3.475-21.149-.927l.277-.311-.277.311c-.776-.693-1.449-1.528-2.095-2.328a53 53 0 0 0-.609-.748c-.855-1.023-1.721-1.911-2.84-2.426-.911-.419-1.708-.498-2.43-.358-.728.141-1.413.513-2.083 1.05-1.022.818-1.942 1.959-2.89 3.134-.318.393-.639.791-.967 1.182-1.268 1.506-2.673 2.928-4.413 3.219-1.788.299-3.747-.612-6.072-3.279-2.57-2.948-5.011-5.414-7.35-7.097-2.341-1.686-4.531-2.554-6.611-2.391-2.067.162-4.123 1.351-6.185 3.998-2.066 2.653-4.107 6.734-6.134 12.595-1.667 4.819-3.667 7.209-5.911 7.909-2.248.701-4.545-.353-6.637-1.899-1.723-1.274-3.395-2.949-4.892-4.447q-.495-.498-.964-.961c-.871-.858-1.66-1.597-2.354-2.111-.717-.529-1.242-.748-1.603-.72a.416.416 0 1 1-.064-.829c.691-.053 1.435.344 2.161.881.747.552 1.573 1.328 2.444 2.187q.483.478.986.983c1.496 1.497 3.113 3.116 4.781 4.348 2.053 1.517 4.053 2.349 5.894 1.774 1.845-.575 3.726-2.623 5.373-7.387 2.04-5.897 4.117-10.077 6.264-12.834 2.151-2.761 4.4-4.13 6.776-4.316 2.361-.185 4.748.806 7.162 2.545 2.417 1.74 4.908 4.263 7.491 7.225 2.262 2.595 3.954 3.232 5.308 3.006 1.403-.235 2.631-1.41 3.914-2.935.299-.356.601-.731.908-1.111.962-1.193 1.966-2.438 3.065-3.318.735-.59 1.542-1.042 2.445-1.218.909-.176 1.883-.064 2.935.42 1.297.597 2.262 1.608 3.131 2.648q.334.402.652.799c.635.787 1.248 1.546 1.968 2.189 4.704 4.199 13.645 6.019 20.077.898 5.022-3.999 8.687-5.679 12.074-5.468 3.379.21 6.364 2.299 10.025 5.479l.002.003.003.002c3.668 3.309 6.448 4.485 8.641 4.358 2.173-.126 3.911-1.543 5.478-3.801s2.902-5.268 4.294-8.428l.057-.129c1.366-3.103 2.789-6.333 4.529-9.023a.415.415 0 0 1 .575-.123" clip-rule="evenodd"/></g><g filter="url(#h)"><path fill="#F2994A" fill-rule="evenodd" d="M440.964 267.264c-1.997.47-4.334 2.417-7.037 6.815-1.021 1.661-1.949 3.188-2.8 4.588-1.982 3.263-3.542 5.83-4.863 7.761-.946 1.381-1.784 2.459-2.583 3.244-.8.787-1.581 1.3-2.418 1.521-1.684.443-3.398-.35-5.609-1.872-1.175-.808-2.545-1.863-4.176-3.12-1.447-1.114-3.099-2.387-5.001-3.785-4.456-3.274-7.757-5.233-10.372-6.162-2.595-.922-4.482-.819-6.153-.003-1.705.832-3.236 2.429-5.061 4.631-.518.625-1.059 1.297-1.632 2.01-1.428 1.774-3.055 3.798-5.032 5.96-2.617 2.861-4.85 3.889-6.819 3.479-1.938-.404-3.414-2.169-4.624-4.34-1.175-2.109-2.164-4.726-3.094-7.188l-.109-.288c-.972-2.571-1.878-4.922-2.879-6.423a.417.417 0 0 1 .692-.461c1.065 1.597 2.005 4.051 2.965 6.59l.099.262c.938 2.484 1.908 5.049 3.052 7.104 1.197 2.147 2.516 3.606 4.068 3.93 1.52.317 3.471-.423 6.035-3.227l.307.281-.307-.281c1.958-2.14 3.558-4.13 4.981-5.898.577-.718 1.125-1.4 1.656-2.041 1.822-2.197 3.453-3.927 5.337-4.847 1.917-.937 4.043-1.012 6.796-.034 2.734.972 6.116 2.991 10.586 6.276 1.947 1.431 3.604 2.708 5.045 3.818 1.605 1.238 2.942 2.268 4.111 3.072 2.223 1.529 3.644 2.09 4.926 1.753.647-.171 1.307-.582 2.047-1.31.742-.729 1.544-1.755 2.479-3.121 1.309-1.912 2.85-4.448 4.824-7.698.853-1.403 1.787-2.94 2.817-4.617l.354.218-.354-.218c2.728-4.438 5.219-6.638 7.556-7.189 2.38-.56 4.443.618 6.213 2.494s3.329 4.531 4.729 7.14c.414.771.813 1.536 1.2 2.278.937 1.794 1.802 3.452 2.63 4.725 2.325 3.576 4.959 5.436 7.862 5.752 2.917.318 6.219-.909 9.904-3.767 1.901-1.475 3.683-2.281 5.363-2.536 1.685-.257 3.239.046 4.67.741 2.839 1.378 5.199 4.302 7.243 7.473 1.027 1.593 1.985 3.266 2.89 4.863l.271.479c.807 1.425 1.57 2.774 2.309 3.948.824 1.31 1.6 2.374 2.349 3.075.753.705 1.405.976 2.003.874a.415.415 0 1 1 .14.82c-.979.167-1.886-.314-2.711-1.087-.83-.777-1.653-1.916-2.485-3.239-.75-1.192-1.523-2.558-2.327-3.979l-.273-.481c-.905-1.598-1.852-3.252-2.865-4.823-2.035-3.156-4.291-5.905-6.907-7.175-1.297-.63-2.681-.896-4.182-.667-1.506.229-3.158.959-4.978 2.371-3.765 2.92-7.282 4.288-10.504 3.937-3.237-.352-6.063-2.425-8.469-6.125-.851-1.309-1.746-3.024-2.692-4.836-.383-.733-.774-1.483-1.173-2.227-1.401-2.609-2.915-5.176-4.602-6.964s-3.465-2.714-5.418-2.254" clip-rule="evenodd"/></g><g filter="url(#i)"><path fill="#2F80ED" d="M451.55 279.826a4.33 4.33 0 1 0-.001-8.661 4.33 4.33 0 0 0 .001 8.661"/><path fill="#fff" fill-rule="evenodd" d="M451.55 273.383a2.113 2.113 0 1 0 0 4.226 2.113 2.113 0 0 0 0-4.226m-4.33 2.113a4.33 4.33 0 1 1 8.66 0 4.33 4.33 0 0 1-8.66 0" clip-rule="evenodd"/></g><path fill="#3C4158" d="M470.265 245.663h-37.422a2.22 2.22 0 0 0-2.218 2.218v15.523c0 1.225.993 2.218 2.218 2.218h37.422a2.22 2.22 0 0 0 2.218-2.218v-15.523a2.22 2.22 0 0 0-2.218-2.218"/><path fill="#3C4158" d="M451.764 268.152a.278.278 0 0 1-.419 0l-3.355-3.873a.278.278 0 0 1 .21-.459h6.709c.237 0 .364.279.209.459z"/><path fill="#fff" d="M437.804 251.585h.331c-.015-.426-.408-.744-.953-.744-.541 0-.965.314-.965.788 0 .381.275.607.716.733l.348.1c.297.082.562.187.562.468 0 .309-.298.513-.689.513-.336 0-.634-.149-.662-.469h-.352c.033.463.408.778 1.014.778.65 0 1.02-.359 1.02-.816 0-.529-.502-.7-.794-.778l-.287-.077c-.209-.055-.545-.165-.545-.468 0-.27.248-.469.622-.469.342 0 .601.163.634.441m1.808 0h-.452v-.507h-.325v.507h-.32v.276h.32v1.323c0 .369.297.546.573.546a.7.7 0 0 0 .243-.039l-.066-.292c-.028.005-.072.016-.144.016-.143 0-.281-.044-.281-.319v-1.235h.452zm1.326 2.161c.574 0 .96-.435.96-1.091 0-.662-.386-1.097-.96-1.097-.573 0-.959.435-.959 1.097 0 .656.386 1.091.959 1.091m0-.292c-.435 0-.633-.375-.633-.799s.198-.805.633-.805c.436 0 .634.38.634.805 0 .424-.198.799-.634.799m1.456.248h.325v-1.34c0-.286.226-.496.535-.496.087 0 .176.017.199.022v-.33a3 3 0 0 0-.171-.006c-.254 0-.474.143-.551.353h-.023v-.32h-.314zm2.267.044c.43 0 .745-.215.844-.535l-.315-.088c-.082.221-.274.331-.529.331-.381 0-.645-.247-.66-.7h1.537v-.138c0-.788-.469-1.058-.91-1.058-.573 0-.954.452-.954 1.102s.375 1.086.987 1.086m-.66-1.273c.022-.33.255-.623.627-.623.353 0 .579.264.579.623zm3.283-1.593h-.359l1.037 2.822h.353l1.036-2.822h-.358l-.838 2.375h-.033zm2.463 2.822h.325v-2.117h-.325zm.165-2.47a.226.226 0 0 0 .231-.22.227.227 0 0 0-.231-.221c-.127 0-.231.1-.231.221s.104.22.231.22m2.255.827c-.102-.3-.331-.501-.75-.501-.446 0-.777.253-.777.612 0 .292.173.487.562.578l.353.083c.214.05.314.152.314.298 0 .182-.193.33-.496.33-.266 0-.433-.114-.491-.341l-.308.077c.076.36.372.551.805.551.492 0 .827-.269.827-.634 0-.295-.185-.481-.563-.573l-.314-.077c-.251-.062-.364-.146-.364-.309 0-.182.193-.314.452-.314.284 0 .401.157.458.303zm.528 1.643h.325v-2.117h-.325zm.165-2.47a.227.227 0 0 0 .232-.22.23.23 0 0 0-.232-.221c-.126 0-.231.1-.231.221s.105.22.231.22m1.677.353h-.453v-.507h-.325v.507h-.319v.276h.319v1.323c0 .369.298.546.574.546a.7.7 0 0 0 .242-.039l-.066-.292c-.028.005-.072.016-.143.016-.144 0-.282-.044-.282-.319v-1.235h.453zm1.95.474c-.102-.3-.33-.501-.749-.501-.447 0-.778.253-.778.612 0 .292.174.487.563.578l.352.083c.214.05.315.152.315.298 0 .182-.193.33-.496.33q-.402 0-.491-.341l-.309.077c.076.36.372.551.805.551.492 0 .827-.269.827-.634 0-.295-.185-.481-.562-.573l-.314-.077c-.251-.062-.364-.146-.364-.309 0-.182.192-.314.452-.314.284 0 .401.157.457.303z"/><path fill="#2F80ED" d="M459.152 250.88h-.415l-.704.46v.408l.675-.441h.016v2.395h.428zm.704 2.271h1.338v.551h.406v-.551h.374v-.361h-.374v-1.91h-.525l-1.219 1.926zm1.341-.361h-.895v-.022l.873-1.381h.022zm1.198.361h1.338v.551h.407v-.551h.373v-.361h-.373v-1.91h-.525l-1.22 1.926zm1.341-.361h-.895v-.022l.873-1.381h.022zm2.243.951c.59.005.981-.419.98-.961.001-.54-.392-.927-.881-.927a.8.8 0 0 0-.7.381h-.021c.002-.64.244-1.021.658-1.021.271 0 .442.166.5.4h.42c-.064-.447-.416-.772-.92-.772-.656 0-1.066.564-1.066 1.545-.001 1.039.528 1.351 1.03 1.355m-.002-.359c-.327 0-.567-.275-.567-.592a.587.587 0 0 1 .577-.591c.323 0 .56.26.558.587.002.333-.245.596-.568.596"/><path fill="#fff" d="M439.687 258.918h-.358l1.036 2.823h.353l1.036-2.823h-.358l-.838 2.376h-.033zm2.463 2.823h.325v-2.117h-.325zm.165-2.47a.227.227 0 0 0 .232-.22.227.227 0 0 0-.232-.221.227.227 0 0 0-.231.221c0 .121.104.22.231.22m2.255.827c-.102-.3-.331-.502-.749-.502-.447 0-.778.254-.778.612 0 .293.174.488.562.579l.353.083c.214.049.314.151.314.298 0 .181-.193.33-.496.33-.266 0-.432-.114-.49-.342l-.309.078c.076.359.372.551.805.551.492 0 .827-.269.827-.634 0-.295-.185-.481-.563-.573l-.314-.077c-.251-.063-.364-.147-.364-.309 0-.182.193-.314.453-.314.283 0 .4.157.457.303zm.528 1.643h.326v-2.117h-.326zm.166-2.47a.226.226 0 0 0 .231-.22.227.227 0 0 0-.231-.221.227.227 0 0 0-.232.221c0 .121.105.22.232.22m1.676.353h-.452v-.507h-.325v.507h-.32v.276h.32v1.323c0 .369.297.545.573.545a.7.7 0 0 0 .242-.038l-.066-.292c-.027.005-.071.016-.143.016-.144 0-.281-.044-.281-.32V259.9h.452zm1.326 2.161c.573 0 .959-.436.959-1.092 0-.661-.386-1.097-.959-1.097s-.959.436-.959 1.097c0 .656.386 1.092.959 1.092m0-.292c-.435 0-.634-.375-.634-.8 0-.424.199-.804.634-.804.436 0 .634.38.634.804s-.198.8-.634.8m1.456.248h.325v-1.34c0-.286.226-.496.535-.496.087 0 .176.017.198.022v-.331l-.171-.005c-.253 0-.474.143-.551.353h-.022v-.32h-.314zm2.943-1.643c-.102-.3-.331-.502-.749-.502-.447 0-.778.254-.778.612 0 .293.174.488.562.579l.353.083c.214.049.314.151.314.298 0 .181-.193.33-.495.33q-.402 0-.491-.342l-.309.078c.076.359.372.551.805.551.492 0 .827-.269.827-.634 0-.295-.185-.481-.562-.573l-.315-.077c-.25-.063-.364-.147-.364-.309 0-.182.193-.314.453-.314.283 0 .401.157.457.303z"/><path fill="#F2994A" d="M454.199 261.19h1.339v.551h.406v-.551h.374v-.361h-.374v-1.911h-.525l-1.22 1.927zm1.341-.361h-.894v-.022l.872-1.381h.022zm2.19.95c.567 0 .973-.401.971-.95.002-.546-.379-.943-.893-.943a.76.76 0 0 0-.514.187h-.016l.089-.789h1.198v-.366h-1.552l-.158 1.423.39.058a.75.75 0 0 1 .467-.16c.334.002.577.253.577.598 0 .339-.236.584-.559.584-.273 0-.49-.173-.512-.416h-.413c.016.449.406.774.925.774m2.406 0c.568 0 .973-.401.972-.95.001-.546-.379-.943-.893-.943-.21 0-.404.08-.514.187h-.017l.09-.789h1.197v-.366h-1.552l-.158 1.423.39.058a.75.75 0 0 1 .467-.16c.335.002.578.253.578.598 0 .339-.236.584-.56.584-.273 0-.489-.173-.511-.416h-.414c.017.449.407.774.925.774m1.416-.589h1.338v.551h.406v-.551h.374v-.361h-.374v-1.911h-.525l-1.219 1.927zm1.341-.361h-.895v-.022l.873-1.381h.022z"/></g></g><defs><filter id="b" width="452" height="429" x="47" y="55.952" color-interpolation-filters="sRGB" filterUnits="userSpaceOnUse"><feFlood flood-opacity="0" result="BackgroundImageFix"/><feColorMatrix in="SourceAlpha" result="hardAlpha" values="0 0 0 0 0 0 0 0 0 0 0 0 0 0 0 0 0 0 127 0"/><feOffset dy="14"/><feGaussianBlur stdDeviation="25.5"/><feColorMatrix values="0 0 0 0 0 0 0 0 0 0 0 0 0 0 0 0 0 0 0.031 0"/><feBlend in2="BackgroundImageFix" result="effect1_dropShadow_512_10681"/><feBlend in="SourceGraphic" in2="effect1_dropShadow_512_10681" result="shape"/></filter><filter id="d" width="217.378" height="151" x="322" y="216.952" color-interpolation-filters="sRGB" filterUnits="userSpaceOnUse"><feFlood flood-opacity="0" result="BackgroundImageFix"/><feColorMatrix in="SourceAlpha" result="hardAlpha" values="0 0 0 0 0 0 0 0 0 0 0 0 0 0 0 0 0 0 127 0"/><feOffset dy="12"/><feGaussianBlur stdDeviation="12"/><feColorMatrix values="0 0 0 0 0.176471 0 0 0 0 0.290196 0 0 0 0 0.666667 0 0 0 0.114 0"/><feBlend in2="BackgroundImageFix" result="effect1_dropShadow_512_10681"/><feBlend in="SourceGraphic" in2="effect1_dropShadow_512_10681" result="shape"/></filter><filter id="g" width="147.987" height="45.601" x="356.632" y="257.167" color-interpolation-filters="sRGB" filterUnits="userSpaceOnUse"><feFlood flood-opacity="0" result="BackgroundImageFix"/><feColorMatrix in="SourceAlpha" result="hardAlpha" values="0 0 0 0 0 0 0 0 0 0 0 0 0 0 0 0 0 0 127 0"/><feOffset dy="10"/><feGaussianBlur stdDeviation="2"/><feColorMatrix values="0 0 0 0 0.384314 0 0 0 0 0.235294 0 0 0 0 0.917647 0 0 0 0.08 0"/><feBlend in2="BackgroundImageFix" result="effect1_dropShadow_512_10681"/><feBlend in="SourceGraphic" in2="effect1_dropShadow_512_10681" result="shape"/></filter><filter id="h" width="148.264" height="52.532" x="356.632" y="266.314" color-interpolation-filters="sRGB" filterUnits="userSpaceOnUse"><feFlood flood-opacity="0" result="BackgroundImageFix"/><feColorMatrix in="SourceAlpha" result="hardAlpha" values="0 0 0 0 0 0 0 0 0 0 0 0 0 0 0 0 0 0 127 0"/><feOffset dy="10"/><feGaussianBlur stdDeviation="2"/><feColorMatrix values="0 0 0 0 0.94902 0 0 0 0 0.6 0 0 0 0 0.290196 0 0 0 0.08 0"/><feBlend in2="BackgroundImageFix" result="effect1_dropShadow_512_10681"/><feBlend in="SourceGraphic" in2="effect1_dropShadow_512_10681" result="shape"/></filter><filter id="i" width="40.66" height="40.66" x="431.22" y="263.166" color-interpolation-filters="sRGB" filterUnits="userSpaceOnUse"><feFlood flood-opacity="0" result="BackgroundImageFix"/><feColorMatrix in="SourceAlpha" result="hardAlpha" values="0 0 0 0 0 0 0 0 0 0 0 0 0 0 0 0 0 0 127 0"/><feOffset dy="8"/><feGaussianBlur stdDeviation="8"/><feColorMatrix values="0 0 0 0 0.321569 0 0 0 0 0.262745 0 0 0 0 0.666667 0 0 0 0.32 0"/><feBlend in2="BackgroundImageFix" result="effect1_dropShadow_512_10681"/><feBlend in="SourceGraphic" in2="effect1_dropShadow_512_10681" result="shape"/></filter><linearGradient id="a" x1="882" x2="882" y1="500" y2="1000" gradientUnits="userSpaceOnUse"><stop stop-color="#252A42" stop-opacity="0"/><stop offset="1" stop-color="#24283E"/></linearGradient><linearGradient id="f" x1="444.208" x2="444.208" y1="240.396" y2="310.528" gradientUnits="userSpaceOnUse"><stop stop-color="#fff" stop-opacity=".71"/><stop offset="1" stop-color="#0052CC"/></linearGradient><clipPath id="c"><path fill="#fff" d="M128 130.952h290.698v250H128z"/></clipPath><clipPath id="e"><path fill="#fff" d="M357.444 240.396h145.808v80.111H357.444z"/></clipPath></defs></svg>