<svg xmlns="http://www.w3.org/2000/svg" width="396" height="156" fill="none"><path fill="#4E6BFF" d="M0 121.875V97.656L60.724 1.99h20.881v33.52H69.247L30.966 96.094v1.136h86.293v24.645zm69.815 25.568v-32.954l.569-10.725V1.989h28.835v145.454zm124.465 3.196q-18.324-.07-31.534-9.02-13.14-8.949-20.242-25.923-7.03-16.974-6.96-40.838 0-23.793 7.031-40.554 7.102-16.761 20.242-25.497Q176.027 0 194.28 0q18.252 0 31.392 8.807 13.21 8.807 20.312 25.568 7.102 16.69 7.032 40.483 0 23.935-7.103 40.909-7.031 16.974-20.17 25.923t-31.463 8.949m0-25.497q12.5 0 19.957-12.571t7.387-37.713q0-16.548-3.41-27.557-3.337-11.008-9.517-16.548-6.107-5.54-14.417-5.54-12.429 0-19.887 12.43-7.457 12.427-7.528 37.215 0 16.761 3.338 27.983 3.41 11.151 9.588 16.761 6.18 5.54 14.489 5.54m77.962-3.267V97.656L332.967 1.99h20.88v33.52h-12.358l-38.281 60.583v1.136h86.293v24.645zm69.816 25.568v-32.954l.568-10.725V1.989h28.835v145.454z"/><path stroke="#757693" d="M250.963 119.959c4.766-11.392 7.14-25.097 7.141-41.1.047-15.909-2.303-29.474-7.072-40.68-4.767-11.25-11.595-19.855-20.494-25.788-8.854-5.934-19.419-8.891-31.67-8.891s-22.84 2.957-31.74 8.89c-8.853 5.886-15.658 14.469-20.425 25.719l-.001.002c-4.72 11.25-7.07 24.838-7.07 40.746-.048 15.956 2.279 29.638 6.998 41.03l.001.002c4.766 11.391 11.57 20.115 20.421 26.144h.001c8.901 6.03 19.513 9.059 31.813 9.106h.002c12.3 0 22.89-3.005 31.744-9.035 8.852-6.029 15.632-14.753 20.351-26.145Zm0 0v-.001l-.462-.191zM4.088 125.875v.5h69.815v25.568h30.404v-25.568h18.039V100.73h-18.039V5.489h-39.27l-.147.232-60.724 95.667-.078.123zM74.47 40.011v60.719H36.054v-.492L74.11 40.011zm151.24 38.847v.001c.048 16.729-2.413 29.191-7.316 37.457-4.9 8.259-11.403 12.326-19.527 12.326-5.417 0-10.127-1.801-14.154-5.411-4.03-3.66-7.188-9.156-9.444-16.534-2.207-7.419-3.317-16.694-3.317-27.838.047-16.49 2.554-28.788 7.457-36.96 4.899-8.165 11.379-12.186 19.458-12.186 5.416 0 10.102 1.801 14.081 5.41l.003.002c4.029 3.613 7.163 9.037 9.372 16.321l.001.003c2.253 7.275 3.386 16.407 3.386 27.409Zm50.619 47.017v.5h69.815v25.568h30.404v-25.568h18.04V100.73h-18.04V5.489H337.28l-.148.232-60.724 95.667-.078.123zm70.023-85.864h.361v60.719h-38.418v-.491z"/><mask id="a" width="390" height="152" x="0" y="0" maskUnits="userSpaceOnUse" style="mask-type:alpha"><path fill="#4E6BFF" d="M0 122.318V98.1L60.724 2.432h20.881v33.523H69.247L30.966 96.537v1.136h86.293v24.645zm69.815 25.569v-32.955l.569-10.724V2.432h28.835v145.455zm124.465 3.196q-18.324-.071-31.534-9.02-13.14-8.949-20.242-25.924-7.03-16.974-6.96-40.838 0-23.792 7.031-40.554 7.102-16.761 20.242-25.497Q176.027.443 194.28.443q18.252 0 31.392 8.807 13.21 8.807 20.312 25.568 7.102 16.691 7.032 40.483 0 23.935-7.103 40.909-7.031 16.975-20.17 25.924t-31.463 8.949m0-25.498q12.5 0 19.957-12.571t7.387-37.713q0-16.548-3.41-27.556-3.337-11.01-9.517-16.549-6.107-5.54-14.417-5.54-12.429 0-19.887 12.43-7.457 12.428-7.528 37.215 0 16.762 3.338 27.983 3.41 11.15 9.588 16.762 6.18 5.54 14.489 5.539m77.962-3.267V98.1l60.725-95.668h20.88v33.523h-12.358l-38.281 60.582v1.136h86.293v24.645zm69.816 25.569v-32.955l.568-10.724V2.432h28.835v145.455z"/></mask><g fill="#181C31" mask="url(#a)"><path d="M-104.898-10.007a.55.55 0 1 1-1.101-.002.55.55 0 0 1 1.101.002m7.346 0a.55.55 0 1 1-1.101-.002.55.55 0 0 1 1.1.002m7.346 0a.55.55 0 1 1-1.1-.002.55.55 0 0 1 1.1.002m7.346 0a.55.55 0 1 1-1.101-.002.55.55 0 0 1 1.1.002m7.346 0a.55.55 0 1 1-1.1-.002.55.55 0 0 1 1.1.002m7.346 0a.55.55 0 1 1-1.1-.002.55.55 0 0 1 1.1.002m7.346 0a.55.55 0 1 1-1.101-.002.55.55 0 0 1 1.1.002m7.346 0a.55.55 0 1 1-1.1-.002.55.55 0 0 1 1.1.002m7.346 0a.55.55 0 1 1-1.101-.002.55.55 0 0 1 1.1.002m7.346 0a.55.55 0 1 1-1.1-.002.55.55 0 0 1 1.1.002m-66.11 7.325a.55.55 0 1 1-1.101-.002.55.55 0 0 1 1.101.002m7.346 0a.55.55 0 1 1-1.101-.002.55.55 0 0 1 1.1.002m7.346 0a.55.55 0 1 1-1.1-.002.55.55 0 0 1 1.1.002m7.346 0a.55.55 0 1 1-1.101-.002.55.55 0 0 1 1.1.002m7.346 0a.55.55 0 1 1-1.1-.002.55.55 0 0 1 1.1.002m7.346 0a.55.55 0 1 1-1.1-.002.55.55 0 0 1 1.1.002m7.346 0a.55.55 0 1 1-1.101-.002.55.55 0 0 1 1.1.002m7.346 0a.55.55 0 1 1-1.1-.002.55.55 0 0 1 1.1.002m7.346 0a.55.55 0 1 1-1.101-.002.55.55 0 0 1 1.1.002m7.346 0a.55.55 0 1 1-1.1-.002.55.55 0 0 1 1.1.002m-66.11 7.325a.55.55 0 1 1-1.101-.002.55.55 0 0 1 1.101.002m7.346 0a.55.55 0 1 1-1.101-.002.55.55 0 0 1 1.1.002m7.346 0a.55.55 0 1 1-1.1-.002.55.55 0 0 1 1.1.002m7.346 0a.55.55 0 1 1-1.101-.002.55.55 0 0 1 1.1.002m7.346 0a.55.55 0 1 1-1.1-.002.55.55 0 0 1 1.1.002m7.346 0a.55.55 0 1 1-1.1-.002.55.55 0 0 1 1.1.002m7.346 0a.55.55 0 1 1-1.101-.002.55.55 0 0 1 1.1.002m7.346 0a.55.55 0 1 1-1.1-.002.55.55 0 0 1 1.1.002m7.346 0a.55.55 0 1 1-1.101-.002.55.55 0 0 1 1.1.002m7.346 0a.55.55 0 1 1-1.1-.002.55.55 0 0 1 1.1.002m-66.11 7.325a.55.55 0 1 1-1.1-.002.55.55 0 0 1 1.1.002m7.346 0a.55.55 0 1 1-1.101-.002.55.55 0 0 1 1.1.002m7.346 0a.55.55 0 1 1-1.1-.002.55.55 0 0 1 1.1.002m7.346 0a.55.55 0 1 1-1.1-.002.55.55 0 0 1 1.1.002m7.345 0a.55.55 0 1 1-1.1-.002.55.55 0 0 1 1.1.002m7.346 0a.55.55 0 1 1-1.1-.002.55.55 0 0 1 1.1.002m7.346 0a.55.55 0 1 1-1.101-.002.55.55 0 0 1 1.1.002m7.346 0a.55.55 0 1 1-1.1-.002.55.55 0 0 1 1.1.002m7.346 0a.55.55 0 1 1-1.1-.002.55.55 0 0 1 1.1.002m7.345 0a.55.55 0 1 1-1.1-.002.55.55 0 0 1 1.1.002m-66.11 7.325a.55.55 0 1 1-1.1-.002.55.55 0 0 1 1.1.002m7.346 0a.55.55 0 1 1-1.101-.002.55.55 0 0 1 1.1.002m7.346 0a.55.55 0 1 1-1.1-.002.55.55 0 0 1 1.1.002m7.346 0a.55.55 0 1 1-1.1-.002.55.55 0 0 1 1.1.002m7.345 0a.55.55 0 1 1-1.1-.002.55.55 0 0 1 1.1.002m7.346 0a.55.55 0 1 1-1.1-.002.55.55 0 0 1 1.1.002m7.346 0a.55.55 0 1 1-1.101-.002.55.55 0 0 1 1.1.002m7.346 0a.55.55 0 1 1-1.1-.002.55.55 0 0 1 1.1.002m7.346 0a.55.55 0 1 1-1.1-.002.55.55 0 0 1 1.1.002m7.345 0a.55.55 0 1 1-1.1-.002.55.55 0 0 1 1.1.002m-66.11 7.325a.55.55 0 1 1-1.1-.002.55.55 0 0 1 1.1.002m7.346 0a.55.55 0 1 1-1.101-.002.55.55 0 0 1 1.1.002m7.346 0a.55.55 0 1 1-1.1-.002.55.55 0 0 1 1.1.002m7.346 0a.55.55 0 1 1-1.1-.002.55.55 0 0 1 1.1.002m7.345 0a.55.55 0 1 1-1.1-.002.55.55 0 0 1 1.1.002m7.346 0a.55.55 0 1 1-1.1-.002.55.55 0 0 1 1.1.002m7.346 0a.55.55 0 1 1-1.101-.002.55.55 0 0 1 1.1.002m7.346 0a.55.55 0 1 1-1.1-.002.55.55 0 0 1 1.1.002m7.346 0a.55.55 0 1 1-1.1-.002.55.55 0 0 1 1.1.002m7.345 0a.55.55 0 1 1-1.1-.002.55.55 0 0 1 1.1.002m-66.11 7.325a.55.55 0 1 1-1.1-.002.55.55 0 0 1 1.1.002m7.346 0a.55.55 0 1 1-1.101-.002.55.55 0 0 1 1.1.002m7.346 0a.55.55 0 1 1-1.1-.002.55.55 0 0 1 1.1.002m7.346 0a.55.55 0 1 1-1.1-.002.55.55 0 0 1 1.1.002m7.345 0a.55.55 0 1 1-1.1-.002.55.55 0 0 1 1.1.002m7.346 0a.55.55 0 1 1-1.1-.002.55.55 0 0 1 1.1.002m7.346 0a.55.55 0 1 1-1.101-.002.55.55 0 0 1 1.1.002m7.346 0a.55.55 0 1 1-1.1-.002.55.55 0 0 1 1.1.002m7.346 0a.55.55 0 1 1-1.1-.002.55.55 0 0 1 1.1.002m7.345 0a.55.55 0 1 1-1.1-.002.55.55 0 0 1 1.1.002m-66.11 7.326a.55.55 0 1 1-1.1-.003.55.55 0 0 1 1.1.003m7.346 0a.55.55 0 1 1-1.101-.003.55.55 0 0 1 1.1.003m7.346 0a.55.55 0 1 1-1.1-.003.55.55 0 0 1 1.1.003m7.346 0a.55.55 0 1 1-1.1-.003.55.55 0 0 1 1.1.003m7.345 0a.55.55 0 1 1-1.1-.003.55.55 0 0 1 1.1.003m7.346 0a.55.55 0 1 1-1.1-.003.55.55 0 0 1 1.1.003m7.346 0a.55.55 0 1 1-1.101-.003.55.55 0 0 1 1.1.003m7.346 0a.55.55 0 1 1-1.1-.003.55.55 0 0 1 1.1.003m7.346 0a.55.55 0 1 1-1.1-.003.55.55 0 0 1 1.1.003m7.345 0a.55.55 0 1 1-1.1-.003.55.55 0 0 1 1.1.003m-66.11 7.325a.55.55 0 1 1-1.1-.003.55.55 0 0 1 1.1.003m7.346 0a.55.55 0 1 1-1.101-.003.55.55 0 0 1 1.1.003m7.346 0a.55.55 0 1 1-1.1-.002.55.55 0 0 1 1.1.002m7.346 0a.55.55 0 1 1-1.1-.002.55.55 0 0 1 1.1.002m7.345 0a.55.55 0 1 1-1.1-.002.55.55 0 0 1 1.1.002m7.346 0a.55.55 0 1 1-1.1-.002.55.55 0 0 1 1.1.002m7.346 0a.55.55 0 1 1-1.101-.002.55.55 0 0 1 1.1.002m7.346 0a.55.55 0 1 1-1.1-.002.55.55 0 0 1 1.1.002m7.346 0a.55.55 0 1 1-1.1-.002.55.55 0 0 1 1.1.002m7.345 0a.55.55 0 1 1-1.1-.002.55.55 0 0 1 1.1.002m-66.11 7.325a.55.55 0 1 1-1.1-.003.55.55 0 0 1 1.1.003m7.346 0a.55.55 0 1 1-1.101-.002.55.55 0 0 1 1.1.002m7.346 0a.55.55 0 1 1-1.1-.002.55.55 0 0 1 1.1.002m7.346 0a.55.55 0 1 1-1.1-.002.55.55 0 0 1 1.1.002m7.345 0a.55.55 0 1 1-1.1-.002.55.55 0 0 1 1.1.002m7.346 0a.55.55 0 1 1-1.1-.002.55.55 0 0 1 1.1.002m7.346 0a.55.55 0 1 1-1.101-.002.55.55 0 0 1 1.1.002m7.346 0a.55.55 0 1 1-1.1-.002.55.55 0 0 1 1.1.002m7.346 0a.55.55 0 1 1-1.1-.002.55.55 0 0 1 1.1.002m7.345 0a.55.55 0 1 1-1.1-.002.55.55 0 0 1 1.1.002m-66.11 7.325a.55.55 0 1 1-1.101-.002.55.55 0 0 1 1.101.002m7.346 0a.55.55 0 1 1-1.101-.002.55.55 0 0 1 1.1.002m7.346 0a.55.55 0 1 1-1.1-.002.55.55 0 0 1 1.1.002m7.346 0a.55.55 0 1 1-1.101-.002.55.55 0 0 1 1.1.002m7.346 0a.55.55 0 1 1-1.1-.002.55.55 0 0 1 1.1.002m7.346 0a.55.55 0 1 1-1.1-.002.55.55 0 0 1 1.1.002m7.346 0a.55.55 0 1 1-1.101-.002.55.55 0 0 1 1.1.002m7.346 0a.55.55 0 1 1-1.1-.002.55.55 0 0 1 1.1.002m7.346 0a.55.55 0 1 1-1.101-.002.55.55 0 0 1 1.1.002m7.346 0a.55.55 0 1 1-1.1-.002.55.55 0 0 1 1.1.002m-66.11 7.325a.55.55 0 1 1-1.101-.002.55.55 0 0 1 1.101.002m7.346 0a.55.55 0 1 1-1.101-.002.55.55 0 0 1 1.1.002m7.346 0a.55.55 0 1 1-1.1-.002.55.55 0 0 1 1.1.002m7.346 0a.55.55 0 1 1-1.101-.002.55.55 0 0 1 1.1.002m7.346 0a.55.55 0 1 1-1.1-.002.55.55 0 0 1 1.1.002m7.346 0a.55.55 0 1 1-1.1-.002.55.55 0 0 1 1.1.002m7.346 0a.55.55 0 1 1-1.101-.002.55.55 0 0 1 1.1.002m7.346 0a.55.55 0 1 1-1.1-.002.55.55 0 0 1 1.1.002m7.346 0a.55.55 0 1 1-1.101-.002.55.55 0 0 1 1.1.002m7.346 0a.55.55 0 1 1-1.1-.002.55.55 0 0 1 1.1.002m7.346-80.576a.55.55 0 1 1-1.1-.002.55.55 0 0 1 1.1.002m7.346 0a.55.55 0 1 1-1.101-.002.55.55 0 0 1 1.1.002m7.347 0a.55.55 0 1 1-1.101-.002.55.55 0 0 1 1.1.002m7.346 0a.55.55 0 1 1-1.1-.002.55.55 0 0 1 1.1.002m7.345 0a.55.55 0 1 1-1.1-.002.55.55 0 0 1 1.1.002m-29.382 7.325a.55.55 0 1 1-1.1-.002.55.55 0 0 1 1.1.002m7.346 0a.55.55 0 1 1-1.101-.002.55.55 0 0 1 1.1.002m7.347 0a.55.55 0 1 1-1.101-.002.55.55 0 0 1 1.1.002m7.346 0a.55.55 0 1 1-1.1-.002.55.55 0 0 1 1.1.002m7.345 0a.55.55 0 1 1-1.1-.002.55.55 0 0 1 1.1.002m-29.382 7.325a.55.55 0 1 1-1.1-.002.55.55 0 0 1 1.1.002m7.346 0a.55.55 0 1 1-1.101-.002.55.55 0 0 1 1.1.002m7.347 0a.55.55 0 1 1-1.101-.002.55.55 0 0 1 1.1.002m7.346 0a.55.55 0 1 1-1.1-.002.55.55 0 0 1 1.1.002m7.345 0a.55.55 0 1 1-1.1-.002.55.55 0 0 1 1.1.002m-29.382 7.325a.55.55 0 1 1-1.1-.002.55.55 0 0 1 1.1.002m7.346 0a.55.55 0 1 1-1.101-.002.55.55 0 0 1 1.1.002m7.347 0a.55.55 0 1 1-1.101-.002.55.55 0 0 1 1.1.002m7.346 0a.55.55 0 1 1-1.1-.002.55.55 0 0 1 1.1.002m7.345 0a.55.55 0 1 1-1.1-.002.55.55 0 0 1 1.1.002m-29.382 7.325a.55.55 0 1 1-1.1-.002.55.55 0 0 1 1.1.002m7.346 0a.55.55 0 1 1-1.101-.002.55.55 0 0 1 1.1.002m7.347 0a.55.55 0 1 1-1.101-.002.55.55 0 0 1 1.1.002m7.346 0a.55.55 0 1 1-1.1-.002.55.55 0 0 1 1.1.002m7.345 0a.55.55 0 1 1-1.1-.002.55.55 0 0 1 1.1.002m-29.382 7.325a.55.55 0 1 1-1.1-.002.55.55 0 0 1 1.1.002m7.346 0a.55.55 0 1 1-1.101-.002.55.55 0 0 1 1.1.002m7.347 0a.55.55 0 1 1-1.101-.002.55.55 0 0 1 1.1.002m7.346 0a.55.55 0 1 1-1.1-.002.55.55 0 0 1 1.1.002m7.345 0a.55.55 0 1 1-1.1-.002.55.55 0 0 1 1.1.002m-29.382 7.325a.55.55 0 1 1-1.1-.002.55.55 0 0 1 1.1.002m7.346 0a.55.55 0 1 1-1.101-.002.55.55 0 0 1 1.1.002m7.347 0a.55.55 0 1 1-1.101-.002.55.55 0 0 1 1.1.002m7.346 0a.55.55 0 1 1-1.1-.002.55.55 0 0 1 1.1.002m7.345 0a.55.55 0 1 1-1.1-.002.55.55 0 0 1 1.1.002m-29.382 7.326a.55.55 0 1 1-1.1-.003.55.55 0 0 1 1.1.003m7.346 0a.55.55 0 1 1-1.101-.003.55.55 0 0 1 1.1.003m7.347 0a.55.55 0 1 1-1.101-.003.55.55 0 0 1 1.1.003m7.346 0a.55.55 0 1 1-1.1-.003.55.55 0 0 1 1.1.003m7.345 0a.55.55 0 1 1-1.1-.003.55.55 0 0 1 1.1.003m-29.382 7.325a.55.55 0 1 1-1.1-.003.55.55 0 0 1 1.1.003m7.346 0a.55.55 0 1 1-1.101-.002.55.55 0 0 1 1.1.002m7.347 0a.55.55 0 1 1-1.101-.002.55.55 0 0 1 1.1.002m7.346 0a.55.55 0 1 1-1.1-.002.55.55 0 0 1 1.1.002m7.345 0a.55.55 0 1 1-1.1-.002.55.55 0 0 1 1.1.002m-29.382 7.325a.55.55 0 1 1-1.1-.002.55.55 0 0 1 1.1.002m7.346 0a.55.55 0 1 1-1.101-.002.55.55 0 0 1 1.1.002m7.347 0a.55.55 0 1 1-1.101-.002.55.55 0 0 1 1.1.002m7.346 0a.55.55 0 1 1-1.1-.002.55.55 0 0 1 1.1.002m7.345 0a.55.55 0 1 1-1.1-.002.55.55 0 0 1 1.1.002m-29.382 7.325a.55.55 0 1 1-1.101-.002.55.55 0 0 1 1.101.002m7.346 0a.55.55 0 1 1-1.101-.002.55.55 0 0 1 1.1.002m7.347 0a.55.55 0 1 1-1.102-.002.55.55 0 0 1 1.101.002m7.346 0a.55.55 0 1 1-1.101-.002.55.55 0 0 1 1.1.002m7.346 0a.55.55 0 1 1-1.1-.002.55.55 0 0 1 1.1.002m-29.382 7.325a.55.55 0 1 1-1.101-.002.55.55 0 0 1 1.101.002m7.346 0a.55.55 0 1 1-1.101-.002.55.55 0 0 1 1.1.002m7.347 0a.55.55 0 1 1-1.102-.002.55.55 0 0 1 1.101.002m7.346 0a.55.55 0 1 1-1.101-.002.55.55 0 0 1 1.1.002m7.346 0a.55.55 0 1 1-1.1-.002.55.55 0 0 1 1.1.002m-102.838 7.325a.55.55 0 1 1-1.101-.002.55.55 0 0 1 1.101.002m7.346 0a.55.55 0 1 1-1.101-.002.55.55 0 0 1 1.1.002m7.346 0a.55.55 0 1 1-1.1-.002.55.55 0 0 1 1.1.002m7.346 0a.55.55 0 1 1-1.101-.002.55.55 0 0 1 1.1.002m7.346 0a.55.55 0 1 1-1.1-.002.55.55 0 0 1 1.1.002m7.346 0a.55.55 0 1 1-1.1-.002.55.55 0 0 1 1.1.002m7.346 0a.55.55 0 1 1-1.101-.002.55.55 0 0 1 1.1.002m7.346 0a.55.55 0 1 1-1.1-.002.55.55 0 0 1 1.1.002m7.346 0a.55.55 0 1 1-1.101-.002.55.55 0 0 1 1.1.002m7.346 0a.55.55 0 1 1-1.1-.002.55.55 0 0 1 1.1.002m7.346 0a.55.55 0 1 1-1.101-.002.55.55 0 0 1 1.101.002m7.346 0a.55.55 0 1 1-1.101-.002.55.55 0 0 1 1.1.002m7.347 0a.55.55 0 1 1-1.102-.002.55.55 0 0 1 1.101.002m7.346 0a.55.55 0 1 1-1.101-.002.55.55 0 0 1 1.1.002m7.346 0a.55.55 0 1 1-1.1-.002.55.55 0 0 1 1.1.002m7.346-87.901a.55.55 0 1 1-1.1-.002.55.55 0 0 1 1.1.002m7.346 0a.55.55 0 1 1-1.101-.002.55.55 0 0 1 1.1.002m7.346 0a.55.55 0 1 1-1.1-.002.55.55 0 0 1 1.1.002m7.346 0a.55.55 0 1 1-1.101-.002.55.55 0 0 1 1.1.002m7.347 0a.55.55 0 1 1-1.101-.002.55.55 0 0 1 1.1.002m7.346 0a.55.55 0 1 1-1.1-.002.55.55 0 0 1 1.1.002m7.346 0a.55.55 0 1 1-1.101-.002.55.55 0 0 1 1.1.002m7.346 0a.55.55 0 1 1-1.1-.002.55.55 0 0 1 1.1.002m7.345 0a.55.55 0 1 1-1.1-.002.55.55 0 0 1 1.1.002m7.347 0a.55.55 0 1 1-1.101-.002.55.55 0 0 1 1.1.002m7.346 0a.55.55 0 1 1-1.1-.002.55.55 0 0 1 1.1.002m7.346 0a.55.55 0 1 1-1.101-.002.55.55 0 0 1 1.1.002m7.346 0a.55.55 0 1 1-1.1-.002.55.55 0 0 1 1.1.002m7.346 0a.55.55 0 1 1-1.101-.002.55.55 0 0 1 1.101.002m7.346 0a.55.55 0 1 1-1.101-.002.55.55 0 0 1 1.101.002M5.286-2.682a.55.55 0 1 1-1.1-.002.55.55 0 0 1 1.1.002m7.346 0a.55.55 0 1 1-1.101-.002.55.55 0 0 1 1.1.002m7.346 0a.55.55 0 1 1-1.1-.002.55.55 0 0 1 1.1.002m7.346 0a.55.55 0 1 1-1.101-.002.55.55 0 0 1 1.1.002m7.347 0a.55.55 0 1 1-1.101-.002.55.55 0 0 1 1.1.002m7.346 0a.55.55 0 1 1-1.1-.002.55.55 0 0 1 1.1.002m7.346 0a.55.55 0 1 1-1.101-.002.55.55 0 0 1 1.1.002m7.346 0a.55.55 0 1 1-1.1-.002.55.55 0 0 1 1.1.002m7.345 0a.55.55 0 1 1-1.1-.002.55.55 0 0 1 1.1.002m7.347 0a.55.55 0 1 1-1.101-.002.55.55 0 0 1 1.1.002m7.346 0a.55.55 0 1 1-1.1-.002.55.55 0 0 1 1.1.002m7.346 0a.55.55 0 1 1-1.101-.002.55.55 0 0 1 1.1.002m7.346 0a.55.55 0 1 1-1.1-.002.55.55 0 0 1 1.1.002m7.346 0a.55.55 0 1 1-1.101-.002.55.55 0 0 1 1.101.002m7.346 0a.55.55 0 1 1-1.101-.002.55.55 0 0 1 1.101.002M5.286 4.643a.55.55 0 1 1-1.1-.002.55.55 0 0 1 1.1.002m7.346 0a.55.55 0 1 1-1.101-.002.55.55 0 0 1 1.1.002m7.346 0a.55.55 0 1 1-1.1-.002.55.55 0 0 1 1.1.002m7.346 0a.55.55 0 1 1-1.1-.002.55.55 0 0 1 1.1.002m7.346 0a.55.55 0 1 1-1.101-.002.55.55 0 0 1 1.1.002m7.346 0a.55.55 0 1 1-1.1-.002.55.55 0 0 1 1.1.002m7.346 0a.55.55 0 1 1-1.101-.002.55.55 0 0 1 1.1.002m7.346 0a.55.55 0 1 1-1.1-.002.55.55 0 0 1 1.1.002m7.345 0a.55.55 0 1 1-1.1-.002.55.55 0 0 1 1.1.002m7.347 0a.55.55 0 1 1-1.101-.002.55.55 0 0 1 1.1.002m7.346 0a.55.55 0 1 1-1.1-.002.55.55 0 0 1 1.1.002m7.346 0a.55.55 0 1 1-1.101-.002.55.55 0 0 1 1.1.002m7.346 0a.55.55 0 1 1-1.1-.002.55.55 0 0 1 1.1.002m7.346 0a.55.55 0 1 1-1.101-.002.55.55 0 0 1 1.101.002m7.346 0a.55.55 0 1 1-1.101-.002.55.55 0 0 1 1.101.002M5.286 11.968a.55.55 0 1 1-1.1-.002.55.55 0 0 1 1.1.002m7.346 0a.55.55 0 1 1-1.101-.002.55.55 0 0 1 1.1.002m7.346 0a.55.55 0 1 1-1.1-.002.55.55 0 0 1 1.1.002m7.346 0a.55.55 0 1 1-1.1-.002.55.55 0 0 1 1.1.002m7.346 0a.55.55 0 1 1-1.101-.002.55.55 0 0 1 1.1.002m7.346 0a.55.55 0 1 1-1.1-.002.55.55 0 0 1 1.1.002m7.346 0a.55.55 0 1 1-1.1-.002.55.55 0 0 1 1.1.002m7.345 0a.55.55 0 1 1-1.1-.002.55.55 0 0 1 1.1.002m7.345 0a.55.55 0 1 1-1.1-.002.55.55 0 0 1 1.1.002m7.347 0a.55.55 0 1 1-1.101-.002.55.55 0 0 1 1.1.002m7.346 0a.55.55 0 1 1-1.1-.002.55.55 0 0 1 1.1.002m7.346 0a.55.55 0 1 1-1.101-.002.55.55 0 0 1 1.1.002m7.346 0a.55.55 0 1 1-1.1-.002.55.55 0 0 1 1.1.002m7.346 0a.55.55 0 1 1-1.1-.002.55.55 0 0 1 1.1.002m7.346 0a.55.55 0 1 1-1.1-.002.55.55 0 0 1 1.1.002M5.286 19.293a.55.55 0 1 1-1.1-.002.55.55 0 0 1 1.1.002m7.346 0a.55.55 0 1 1-1.101-.002.55.55 0 0 1 1.1.002m7.346 0a.55.55 0 1 1-1.1-.002.55.55 0 0 1 1.1.002m7.346 0a.55.55 0 1 1-1.1-.002.55.55 0 0 1 1.1.002m7.346 0a.55.55 0 1 1-1.101-.002.55.55 0 0 1 1.1.002m7.346 0a.55.55 0 1 1-1.1-.002.55.55 0 0 1 1.1.002m7.346 0a.55.55 0 1 1-1.1-.002.55.55 0 0 1 1.1.002m7.345 0a.55.55 0 1 1-1.1-.002.55.55 0 0 1 1.1.002m7.345 0a.55.55 0 1 1-1.1-.002.55.55 0 0 1 1.1.002m7.347 0a.55.55 0 1 1-1.101-.002.55.55 0 0 1 1.1.002m7.346 0a.55.55 0 1 1-1.1-.002.55.55 0 0 1 1.1.002m7.346 0a.55.55 0 1 1-1.101-.002.55.55 0 0 1 1.1.002m7.346 0a.55.55 0 1 1-1.1-.002.55.55 0 0 1 1.1.002m7.346 0a.55.55 0 1 1-1.1-.002.55.55 0 0 1 1.1.002m7.346 0a.55.55 0 1 1-1.1-.002.55.55 0 0 1 1.1.002M5.286 26.618a.55.55 0 1 1-1.1-.002.55.55 0 0 1 1.1.002m7.346 0a.55.55 0 1 1-1.101-.002.55.55 0 0 1 1.1.002m7.346 0a.55.55 0 1 1-1.1-.002.55.55 0 0 1 1.1.002m7.346 0a.55.55 0 1 1-1.1-.002.55.55 0 0 1 1.1.002m7.346 0a.55.55 0 1 1-1.101-.002.55.55 0 0 1 1.1.002m7.346 0a.55.55 0 1 1-1.1-.002.55.55 0 0 1 1.1.002m7.346 0a.55.55 0 1 1-1.1-.002.55.55 0 0 1 1.1.002m7.345 0a.55.55 0 1 1-1.1-.002.55.55 0 0 1 1.1.002m7.345 0a.55.55 0 1 1-1.1-.002.55.55 0 0 1 1.1.002m7.347 0a.55.55 0 1 1-1.101-.002.55.55 0 0 1 1.1.002m7.346 0a.55.55 0 1 1-1.1-.002.55.55 0 0 1 1.1.002m7.346 0a.55.55 0 1 1-1.101-.002.55.55 0 0 1 1.1.002m7.346 0a.55.55 0 1 1-1.1-.002.55.55 0 0 1 1.1.002m7.346 0a.55.55 0 1 1-1.1-.002.55.55 0 0 1 1.1.002m7.346 0a.55.55 0 1 1-1.1-.002.55.55 0 0 1 1.1.002M5.286 33.943a.55.55 0 1 1-1.1-.002.55.55 0 0 1 1.1.002m7.346 0a.55.55 0 1 1-1.101-.002.55.55 0 0 1 1.1.002m7.346 0a.55.55 0 1 1-1.1-.002.55.55 0 0 1 1.1.002m7.346 0a.55.55 0 1 1-1.1-.002.55.55 0 0 1 1.1.002m7.346 0a.55.55 0 1 1-1.101-.002.55.55 0 0 1 1.1.002m7.346 0a.55.55 0 1 1-1.1-.002.55.55 0 0 1 1.1.002m7.346 0a.55.55 0 1 1-1.1-.002.55.55 0 0 1 1.1.002m7.345 0a.55.55 0 1 1-1.1-.002.55.55 0 0 1 1.1.002m7.345 0a.55.55 0 1 1-1.1-.002.55.55 0 0 1 1.1.002m7.347 0a.55.55 0 1 1-1.101-.002.55.55 0 0 1 1.1.002m7.346 0a.55.55 0 1 1-1.1-.002.55.55 0 0 1 1.1.002m7.346 0a.55.55 0 1 1-1.101-.002.55.55 0 0 1 1.1.002m7.346 0a.55.55 0 1 1-1.1-.002.55.55 0 0 1 1.1.002m7.346 0a.55.55 0 1 1-1.1-.002.55.55 0 0 1 1.1.002m7.346 0a.55.55 0 1 1-1.1-.002.55.55 0 0 1 1.1.002M5.286 41.269a.55.55 0 1 1-1.1-.003.55.55 0 0 1 1.1.003m7.346 0a.55.55 0 1 1-1.101-.003.55.55 0 0 1 1.1.003m7.346 0a.55.55 0 1 1-1.1-.003.55.55 0 0 1 1.1.003m7.346 0a.55.55 0 1 1-1.1-.003.55.55 0 0 1 1.1.003m7.346 0a.55.55 0 1 1-1.101-.003.55.55 0 0 1 1.1.003m7.346 0a.55.55 0 1 1-1.1-.003.55.55 0 0 1 1.1.003m7.346 0a.55.55 0 1 1-1.1-.003.55.55 0 0 1 1.1.003m7.345 0a.55.55 0 1 1-1.1-.003.55.55 0 0 1 1.1.003m7.345 0a.55.55 0 1 1-1.1-.003.55.55 0 0 1 1.1.003m7.347 0a.55.55 0 1 1-1.101-.003.55.55 0 0 1 1.1.003m7.346 0a.55.55 0 1 1-1.1-.003.55.55 0 0 1 1.1.003m7.346 0a.55.55 0 1 1-1.101-.003.55.55 0 0 1 1.1.003m7.346 0a.55.55 0 1 1-1.1-.003.55.55 0 0 1 1.1.003m7.346 0a.55.55 0 1 1-1.1-.003.55.55 0 0 1 1.1.003m7.346 0a.55.55 0 1 1-1.1-.003.55.55 0 0 1 1.1.003M5.286 48.594a.55.55 0 1 1-1.1-.002.55.55 0 0 1 1.1.002m7.346 0a.55.55 0 1 1-1.101-.002.55.55 0 0 1 1.1.002m7.346 0a.55.55 0 1 1-1.1-.002.55.55 0 0 1 1.1.002m7.346 0a.55.55 0 1 1-1.1-.003.55.55 0 0 1 1.1.003m7.346 0a.55.55 0 1 1-1.101-.002.55.55 0 0 1 1.1.002m7.346 0a.55.55 0 1 1-1.1-.002.55.55 0 0 1 1.1.002m7.346 0a.55.55 0 1 1-1.1-.002.55.55 0 0 1 1.1.002m7.345 0a.55.55 0 1 1-1.1-.002.55.55 0 0 1 1.1.002m7.345 0a.55.55 0 1 1-1.1-.002.55.55 0 0 1 1.1.002m7.347 0a.55.55 0 1 1-1.101-.002.55.55 0 0 1 1.1.002m7.346 0a.55.55 0 1 1-1.1-.002.55.55 0 0 1 1.1.002m7.346 0a.55.55 0 1 1-1.101-.003.55.55 0 0 1 1.1.003m7.346 0a.55.55 0 1 1-1.1-.002.55.55 0 0 1 1.1.002m7.346 0a.55.55 0 1 1-1.1-.003.55.55 0 0 1 1.1.003m7.346 0a.55.55 0 1 1-1.1-.003.55.55 0 0 1 1.1.003M5.286 55.919a.55.55 0 1 1-1.1-.002.55.55 0 0 1 1.1.002m7.346 0a.55.55 0 1 1-1.101-.002.55.55 0 0 1 1.1.002m7.346 0a.55.55 0 1 1-1.1-.002.55.55 0 0 1 1.1.002m7.346 0a.55.55 0 1 1-1.1-.002.55.55 0 0 1 1.1.002m7.346 0a.55.55 0 1 1-1.101-.002.55.55 0 0 1 1.1.002m7.346 0a.55.55 0 1 1-1.1-.002.55.55 0 0 1 1.1.002m7.346 0a.55.55 0 1 1-1.1-.002.55.55 0 0 1 1.1.002m7.345 0a.55.55 0 1 1-1.1-.002.55.55 0 0 1 1.1.002m7.345 0a.55.55 0 1 1-1.1-.002.55.55 0 0 1 1.1.002m7.347 0a.55.55 0 1 1-1.101-.002.55.55 0 0 1 1.1.002m7.346 0a.55.55 0 1 1-1.1-.002.55.55 0 0 1 1.1.002m7.346 0a.55.55 0 1 1-1.101-.002.55.55 0 0 1 1.1.002m7.346 0a.55.55 0 1 1-1.1-.002.55.55 0 0 1 1.1.002m7.346 0a.55.55 0 1 1-1.1-.003.55.55 0 0 1 1.1.003m7.346 0a.55.55 0 1 1-1.1-.003.55.55 0 0 1 1.1.003M5.286 63.244a.55.55 0 1 1-1.1-.002.55.55 0 0 1 1.1.002m7.346 0a.55.55 0 1 1-1.101-.002.55.55 0 0 1 1.1.002m7.346 0a.55.55 0 1 1-1.1-.002.55.55 0 0 1 1.1.002m7.346 0a.55.55 0 1 1-1.101-.002.55.55 0 0 1 1.1.002m7.347 0a.55.55 0 1 1-1.101-.002.55.55 0 0 1 1.1.002m7.346 0a.55.55 0 1 1-1.1-.002.55.55 0 0 1 1.1.002m7.346 0a.55.55 0 1 1-1.101-.002.55.55 0 0 1 1.1.002m7.346 0a.55.55 0 1 1-1.1-.002.55.55 0 0 1 1.1.002m7.345 0a.55.55 0 1 1-1.1-.002.55.55 0 0 1 1.1.002m7.347 0a.55.55 0 1 1-1.101-.002.55.55 0 0 1 1.1.002m7.346 0a.55.55 0 1 1-1.1-.002.55.55 0 0 1 1.1.002m7.346 0a.55.55 0 1 1-1.101-.002.55.55 0 0 1 1.1.002m7.346 0a.55.55 0 1 1-1.1-.002.55.55 0 0 1 1.1.002m7.346 0a.55.55 0 1 1-1.101-.002.55.55 0 0 1 1.101.002m7.346 0a.55.55 0 1 1-1.101-.002.55.55 0 0 1 1.101.002M5.286 70.569a.55.55 0 1 1-1.1-.002.55.55 0 0 1 1.1.002m7.346 0a.55.55 0 1 1-1.101-.002.55.55 0 0 1 1.1.002m7.346 0a.55.55 0 1 1-1.1-.002.55.55 0 0 1 1.1.002m7.346 0a.55.55 0 1 1-1.101-.002.55.55 0 0 1 1.1.002m7.347 0a.55.55 0 1 1-1.101-.002.55.55 0 0 1 1.1.002m7.346 0a.55.55 0 1 1-1.1-.002.55.55 0 0 1 1.1.002m7.346 0a.55.55 0 1 1-1.101-.002.55.55 0 0 1 1.1.002m7.346 0a.55.55 0 1 1-1.1-.002.55.55 0 0 1 1.1.002m7.345 0a.55.55 0 1 1-1.1-.002.55.55 0 0 1 1.1.002m7.347 0a.55.55 0 1 1-1.101-.002.55.55 0 0 1 1.1.002m7.346 0a.55.55 0 1 1-1.1-.002.55.55 0 0 1 1.1.002m7.346 0a.55.55 0 1 1-1.101-.002.55.55 0 0 1 1.1.002m7.346 0a.55.55 0 1 1-1.1-.002.55.55 0 0 1 1.1.002m7.346 0a.55.55 0 1 1-1.101-.002.55.55 0 0 1 1.101.002m7.346 0a.55.55 0 1 1-1.101-.002.55.55 0 0 1 1.101.002m7.345-80.576a.55.55 0 1 1-1.101-.002.55.55 0 0 1 1.101.002m7.346 0a.55.55 0 1 1-1.1-.001.55.55 0 0 1 1.1 0m7.345.001a.55.55 0 1 1-1.1 0 .55.55 0 0 1 1.1 0m7.346 0a.55.55 0 1 1-1.1-.001.55.55 0 0 1 1.1 0m7.346.001a.55.55 0 1 1-1.1-.001.55.55 0 0 1 1.1 0m7.345.001a.55.55 0 1 1-1.1-.001.55.55 0 0 1 1.1 0m7.346.001a.55.55 0 1 1-1.1-.001.55.55 0 0 1 1.1 0m7.345.001a.55.55 0 1 1-1.1 0 .55.55 0 0 1 1.1 0m7.346 0a.55.55 0 1 1-1.1-.001.55.55 0 0 1 1.1 0m7.346.001a.55.55 0 1 1-1.1-.001.55.55 0 0 1 1.1 0m7.345.001a.55.55 0 1 1-1.1-.001.55.55 0 0 1 1.1 0m7.346.001a.55.55 0 1 1-1.1-.001.55.55 0 0 1 1.1 0m7.346.001a.55.55 0 1 1-1.101-.002.55.55 0 0 1 1.101.002m7.345 0a.55.55 0 1 1-1.1-.001.55.55 0 0 1 1.1 0m7.346.001a.55.55 0 1 1-1.1-.001.55.55 0 0 1 1.1 0M115.47-2.682a.55.55 0 1 1-1.101-.002.55.55 0 0 1 1.101.002m7.346 0a.55.55 0 1 1-1.1-.001.55.55 0 0 1 1.1 0m7.345.001a.55.55 0 1 1-1.1 0 .55.55 0 0 1 1.1 0m7.346 0a.55.55 0 1 1-1.1-.001.55.55 0 0 1 1.1 0m7.346.001a.55.55 0 1 1-1.1-.001.55.55 0 0 1 1.1 0m7.345.001a.55.55 0 1 1-1.1-.001.55.55 0 0 1 1.1 0m7.346.001a.55.55 0 1 1-1.1-.001.55.55 0 0 1 1.1 0m7.345.001a.55.55 0 1 1-1.1 0 .55.55 0 0 1 1.1 0m7.346 0a.55.55 0 1 1-1.1-.001.55.55 0 0 1 1.1 0m7.346.001a.55.55 0 1 1-1.1-.001.55.55 0 0 1 1.1 0m7.345.001a.55.55 0 1 1-1.1-.001.55.55 0 0 1 1.1 0m7.346.001a.55.55 0 1 1-1.1-.001.55.55 0 0 1 1.1 0m7.346.001a.55.55 0 1 1-1.101-.002.55.55 0 0 1 1.101.002m7.345 0a.55.55 0 1 1-1.1-.001.55.55 0 0 1 1.1 0m7.346.001a.55.55 0 1 1-1.1-.001.55.55 0 0 1 1.1 0M115.47 4.643a.55.55 0 1 1-1.101-.002.55.55 0 0 1 1.101.002m7.346 0a.55.55 0 1 1-1.1-.001.55.55 0 0 1 1.1 0m7.345.001a.55.55 0 1 1-1.1 0 .55.55 0 0 1 1.1 0m7.346 0a.55.55 0 1 1-1.1-.001.55.55 0 0 1 1.1 0m7.346.001a.55.55 0 1 1-1.1-.001.55.55 0 0 1 1.1 0m7.345.001a.55.55 0 1 1-1.1-.001.55.55 0 0 1 1.1 0m7.346.001a.55.55 0 1 1-1.1-.001.55.55 0 0 1 1.1 0m7.345.001a.55.55 0 1 1-1.1 0 .55.55 0 0 1 1.1 0m7.346 0a.55.55 0 1 1-1.1-.001.55.55 0 0 1 1.1 0m7.346.001a.55.55 0 1 1-1.1-.001.55.55 0 0 1 1.1 0m7.345.001a.55.55 0 1 1-1.1-.001.55.55 0 0 1 1.1 0m7.346.001a.55.55 0 1 1-1.1-.001.55.55 0 0 1 1.1 0m7.346.001a.55.55 0 1 1-1.101-.002.55.55 0 0 1 1.101.002m7.345 0a.55.55 0 1 1-1.1-.001.55.55 0 0 1 1.1 0m7.346.001a.55.55 0 1 1-1.1-.001.55.55 0 0 1 1.1 0M115.47 11.968a.55.55 0 1 1-1.1-.002.55.55 0 0 1 1.1.002m7.346 0a.55.55 0 1 1-1.1 0 .55.55 0 0 1 1.1 0m7.345 0a.55.55 0 1 1-1.1 0 .55.55 0 0 1 1.1 0m7.346 0a.55.55 0 1 1-1.1 0 .55.55 0 0 1 1.1 0m7.346 0a.55.55 0 1 1-1.1 0 .55.55 0 0 1 1.1 0m7.345 0a.55.55 0 1 1-1.1 0 .55.55 0 0 1 1.1 0m7.346 0a.55.55 0 1 1-1.1 0 .55.55 0 0 1 1.1 0m7.345 0a.55.55 0 1 1-1.1 0 .55.55 0 0 1 1.1 0m7.346 0a.55.55 0 1 1-1.1 0 .55.55 0 0 1 1.1 0m7.346 0a.55.55 0 1 1-1.1 0 .55.55 0 0 1 1.1 0m7.345 0a.55.55 0 1 1-1.1 0 .55.55 0 0 1 1.1 0m7.346 0a.55.55 0 1 1-1.1 0 .55.55 0 0 1 1.1 0m7.346 0a.55.55 0 1 1-1.1-.002.55.55 0 0 1 1.1.002m7.345 0a.55.55 0 1 1-1.1 0 .55.55 0 0 1 1.1 0m7.346 0a.55.55 0 1 1-1.1 0 .55.55 0 0 1 1.1 0M115.47 19.293a.55.55 0 1 1-1.1-.002.55.55 0 0 1 1.1.002m7.346 0a.55.55 0 1 1-1.1 0 .55.55 0 0 1 1.1 0m7.345 0a.55.55 0 1 1-1.1 0 .55.55 0 0 1 1.1 0m7.346 0a.55.55 0 1 1-1.1 0 .55.55 0 0 1 1.1 0m7.346 0a.55.55 0 1 1-1.1 0 .55.55 0 0 1 1.1 0m7.345 0a.55.55 0 1 1-1.1 0 .55.55 0 0 1 1.1 0m7.346 0a.55.55 0 1 1-1.1 0 .55.55 0 0 1 1.1 0m7.345 0a.55.55 0 1 1-1.1 0 .55.55 0 0 1 1.1 0m7.346 0a.55.55 0 1 1-1.1 0 .55.55 0 0 1 1.1 0m7.346 0a.55.55 0 1 1-1.1 0 .55.55 0 0 1 1.1 0m7.345 0a.55.55 0 1 1-1.1 0 .55.55 0 0 1 1.1 0m7.346 0a.55.55 0 1 1-1.1 0 .55.55 0 0 1 1.1 0m7.346 0a.55.55 0 1 1-1.1-.002.55.55 0 0 1 1.1.002m7.345 0a.55.55 0 1 1-1.1 0 .55.55 0 0 1 1.1 0m7.346 0a.55.55 0 1 1-1.1 0 .55.55 0 0 1 1.1 0M115.47 26.618a.55.55 0 1 1-1.1-.002.55.55 0 0 1 1.1.002m7.346 0a.55.55 0 1 1-1.1 0 .55.55 0 0 1 1.1 0m7.345 0a.55.55 0 1 1-1.1 0 .55.55 0 0 1 1.1 0m7.346 0a.55.55 0 1 1-1.1 0 .55.55 0 0 1 1.1 0m7.346 0a.55.55 0 1 1-1.1 0 .55.55 0 0 1 1.1 0m7.345 0a.55.55 0 1 1-1.1 0 .55.55 0 0 1 1.1 0m7.346 0a.55.55 0 1 1-1.1 0 .55.55 0 0 1 1.1 0m7.345 0a.55.55 0 1 1-1.1 0 .55.55 0 0 1 1.1 0m7.346 0a.55.55 0 1 1-1.1 0 .55.55 0 0 1 1.1 0m7.346 0a.55.55 0 1 1-1.1 0 .55.55 0 0 1 1.1 0m7.345 0a.55.55 0 1 1-1.1 0 .55.55 0 0 1 1.1 0m7.346 0a.55.55 0 1 1-1.1 0 .55.55 0 0 1 1.1 0m7.346 0a.55.55 0 1 1-1.1-.002.55.55 0 0 1 1.1.002m7.345 0a.55.55 0 1 1-1.1 0 .55.55 0 0 1 1.1 0m7.346 0a.55.55 0 1 1-1.1 0 .55.55 0 0 1 1.1 0M115.47 33.943a.55.55 0 1 1-1.1-.002.55.55 0 0 1 1.1.002m7.346 0a.55.55 0 1 1-1.1 0 .55.55 0 0 1 1.1 0m7.345 0a.55.55 0 1 1-1.1 0 .55.55 0 0 1 1.1 0m7.346 0a.55.55 0 1 1-1.1 0 .55.55 0 0 1 1.1 0m7.346 0a.55.55 0 1 1-1.1 0 .55.55 0 0 1 1.1 0m7.345 0a.55.55 0 1 1-1.1 0 .55.55 0 0 1 1.1 0m7.346 0a.55.55 0 1 1-1.1 0 .55.55 0 0 1 1.1 0m7.345 0a.55.55 0 1 1-1.1 0 .55.55 0 0 1 1.1 0m7.346 0a.55.55 0 1 1-1.1 0 .55.55 0 0 1 1.1 0m7.346 0a.55.55 0 1 1-1.1 0 .55.55 0 0 1 1.1 0m7.345 0a.55.55 0 1 1-1.1 0 .55.55 0 0 1 1.1 0m7.346 0a.55.55 0 1 1-1.1 0 .55.55 0 0 1 1.1 0m7.346 0a.55.55 0 1 1-1.1-.002.55.55 0 0 1 1.1.002m7.345 0a.55.55 0 1 1-1.1 0 .55.55 0 0 1 1.1 0m7.346 0a.55.55 0 1 1-1.1 0 .55.55 0 0 1 1.1 0M115.47 41.269a.55.55 0 1 1-1.1-.003.55.55 0 0 1 1.1.003m7.346 0a.55.55 0 1 1-1.1-.002.55.55 0 0 1 1.1.002m7.345 0a.55.55 0 1 1-1.1-.001.55.55 0 0 1 1.1 0m7.346.001a.55.55 0 1 1-1.1-.002.55.55 0 0 1 1.1.002m7.346 0a.55.55 0 1 1-1.1-.002.55.55 0 0 1 1.1.002m7.345 0a.55.55 0 1 1-1.1-.002.55.55 0 0 1 1.1.002m7.346 0a.55.55 0 1 1-1.1-.002.55.55 0 0 1 1.1.002m7.345 0a.55.55 0 1 1-1.1-.001.55.55 0 0 1 1.1 0m7.346.001a.55.55 0 1 1-1.1-.002.55.55 0 0 1 1.1.002m7.346 0a.55.55 0 1 1-1.1-.002.55.55 0 0 1 1.1.002m7.345 0a.55.55 0 1 1-1.1-.002.55.55 0 0 1 1.1.002m7.346 0a.55.55 0 1 1-1.1-.002.55.55 0 0 1 1.1.002m7.346 0a.55.55 0 1 1-1.1-.003.55.55 0 0 1 1.1.003m7.345 0a.55.55 0 1 1-1.1-.002.55.55 0 0 1 1.1.002m7.346 0a.55.55 0 1 1-1.1-.002.55.55 0 0 1 1.1.002M115.47 48.594a.55.55 0 1 1-1.1-.003.55.55 0 0 1 1.1.003m7.346 0a.55.55 0 1 1-1.1-.001.55.55 0 0 1 1.1 0m7.345.001a.55.55 0 1 1-1.1-.001.55.55 0 0 1 1.1 0m7.346.001a.55.55 0 1 1-1.1-.001.55.55 0 0 1 1.1 0m7.346.001a.55.55 0 1 1-1.1-.001.55.55 0 0 1 1.1 0m7.345.001a.55.55 0 1 1-1.1-.001.55.55 0 0 1 1.1 0m7.346.001a.55.55 0 1 1-1.1-.001.55.55 0 0 1 1.1 0m7.345.001a.55.55 0 1 1-1.1-.001.55.55 0 0 1 1.1 0m7.346.001a.55.55 0 1 1-1.1-.001.55.55 0 0 1 1.1 0m7.346.001a.55.55 0 1 1-1.1-.001.55.55 0 0 1 1.1 0m7.345.001a.55.55 0 1 1-1.1-.001.55.55 0 0 1 1.1 0m7.346.001a.55.55 0 1 1-1.1-.001.55.55 0 0 1 1.1 0m7.346.001a.55.55 0 1 1-1.1-.003.55.55 0 0 1 1.1.003m7.345 0a.55.55 0 1 1-1.1-.001.55.55 0 0 1 1.1 0m7.346.001a.55.55 0 1 1-1.1-.001.55.55 0 0 1 1.1 0M115.47 55.919a.55.55 0 1 1-1.1-.003.55.55 0 0 1 1.1.003m7.346 0a.55.55 0 1 1-1.1-.001.55.55 0 0 1 1.1 0m7.345.001a.55.55 0 1 1-1.1 0 .55.55 0 0 1 1.1 0m7.346 0a.55.55 0 1 1-1.1-.001.55.55 0 0 1 1.1 0m7.346.001a.55.55 0 1 1-1.1-.001.55.55 0 0 1 1.1 0m7.345.001a.55.55 0 1 1-1.1-.001.55.55 0 0 1 1.1 0m7.346.001a.55.55 0 1 1-1.1-.001.55.55 0 0 1 1.1 0m7.345.001a.55.55 0 1 1-1.1 0 .55.55 0 0 1 1.1 0m7.346 0a.55.55 0 1 1-1.1-.001.55.55 0 0 1 1.1 0m7.346.001a.55.55 0 1 1-1.1-.001.55.55 0 0 1 1.1 0m7.345.001a.55.55 0 1 1-1.1-.001.55.55 0 0 1 1.1 0m7.346.001a.55.55 0 1 1-1.1-.001.55.55 0 0 1 1.1 0m7.346.001a.55.55 0 1 1-1.1-.003.55.55 0 0 1 1.1.003m7.345 0a.55.55 0 1 1-1.1-.001.55.55 0 0 1 1.1 0m7.346.001a.55.55 0 1 1-1.1-.001.55.55 0 0 1 1.1 0M115.47 63.244a.55.55 0 1 1-1.101-.002.55.55 0 0 1 1.101.002m7.346 0a.55.55 0 1 1-1.1-.001.55.55 0 0 1 1.1 0m7.345.001a.55.55 0 1 1-1.1 0 .55.55 0 0 1 1.1 0m7.346 0a.55.55 0 1 1-1.1-.001.55.55 0 0 1 1.1 0m7.346.001a.55.55 0 1 1-1.1-.001.55.55 0 0 1 1.1 0m7.345.001a.55.55 0 1 1-1.1-.001.55.55 0 0 1 1.1 0m7.346.001a.55.55 0 1 1-1.1-.001.55.55 0 0 1 1.1 0m7.345.001a.55.55 0 1 1-1.1 0 .55.55 0 0 1 1.1 0m7.346 0a.55.55 0 1 1-1.1-.001.55.55 0 0 1 1.1 0m7.346.001a.55.55 0 1 1-1.1-.001.55.55 0 0 1 1.1 0m7.345.001a.55.55 0 1 1-1.1-.001.55.55 0 0 1 1.1 0m7.346.001a.55.55 0 1 1-1.1-.001.55.55 0 0 1 1.1 0m7.346.001a.55.55 0 1 1-1.101-.002.55.55 0 0 1 1.101.002m7.345 0a.55.55 0 1 1-1.1-.001.55.55 0 0 1 1.1 0m7.346.001a.55.55 0 1 1-1.1-.001.55.55 0 0 1 1.1 0M115.47 70.569a.55.55 0 1 1-1.101-.002.55.55 0 0 1 1.101.002m7.346 0a.55.55 0 1 1-1.1-.001.55.55 0 0 1 1.1 0m7.345.001a.55.55 0 1 1-1.1 0 .55.55 0 0 1 1.1 0m7.346 0a.55.55 0 1 1-1.1-.001.55.55 0 0 1 1.1 0m7.346.001a.55.55 0 1 1-1.1-.001.55.55 0 0 1 1.1 0m7.345.001a.55.55 0 1 1-1.1-.001.55.55 0 0 1 1.1 0m7.346.001a.55.55 0 1 1-1.1-.001.55.55 0 0 1 1.1 0m7.345.001a.55.55 0 1 1-1.1 0 .55.55 0 0 1 1.1 0m7.346 0a.55.55 0 1 1-1.1-.001.55.55 0 0 1 1.1 0m7.346.001a.55.55 0 1 1-1.1-.001.55.55 0 0 1 1.1 0m7.345.001a.55.55 0 1 1-1.1-.001.55.55 0 0 1 1.1 0m7.346.001a.55.55 0 1 1-1.1-.001.55.55 0 0 1 1.1 0m7.346.001a.55.55 0 1 1-1.101-.002.55.55 0 0 1 1.101.002m7.345 0a.55.55 0 1 1-1.1-.001.55.55 0 0 1 1.1 0m7.346.001a.55.55 0 1 1-1.1-.001.55.55 0 0 1 1.1 0m7.345-80.575a.55.55 0 1 1-1.1-.001.55.55 0 0 1 1.1 0m7.346.001a.55.55 0 1 1-1.1-.001.55.55 0 0 1 1.1 0m-7.346 7.326a.55.55 0 1 1-1.1-.001.55.55 0 0 1 1.1 0m7.346.001a.55.55 0 1 1-1.1-.001.55.55 0 0 1 1.1 0m-7.346 7.326a.55.55 0 1 1-1.1-.001.55.55 0 0 1 1.1 0m7.346.001a.55.55 0 1 1-1.1-.001.55.55 0 0 1 1.1 0m-7.346 7.326a.55.55 0 1 1-1.1 0 .55.55 0 0 1 1.1 0m7.346 0a.55.55 0 1 1-1.1 0 .55.55 0 0 1 1.1 0m-7.346 7.325a.55.55 0 1 1-1.1 0 .55.55 0 0 1 1.1 0m7.346 0a.55.55 0 1 1-1.1 0 .55.55 0 0 1 1.1 0m-7.346 7.325a.55.55 0 1 1-1.1 0 .55.55 0 0 1 1.1 0m7.346 0a.55.55 0 1 1-1.1 0 .55.55 0 0 1 1.1 0m-7.346 7.325a.55.55 0 1 1-1.1 0 .55.55 0 0 1 1.1 0m7.346 0a.55.55 0 1 1-1.1 0 .55.55 0 0 1 1.1 0m-7.346 7.326a.55.55 0 1 1-1.1-.002.55.55 0 0 1 1.1.002m7.346 0a.55.55 0 1 1-1.1-.002.55.55 0 0 1 1.1.002m-7.346 7.325a.55.55 0 1 1-1.1-.001.55.55 0 0 1 1.1 0m7.346.001a.55.55 0 1 1-1.1-.001.55.55 0 0 1 1.1 0m-7.346 7.326a.55.55 0 1 1-1.1-.001.55.55 0 0 1 1.1 0m7.346.001a.55.55 0 1 1-1.1-.001.55.55 0 0 1 1.1 0m-7.346 7.326a.55.55 0 1 1-1.1-.001.55.55 0 0 1 1.1 0m7.346.001a.55.55 0 1 1-1.1-.001.55.55 0 0 1 1.1 0m-7.346 7.326a.55.55 0 1 1-1.1-.001.55.55 0 0 1 1.1 0m7.346.001a.55.55 0 1 1-1.1-.001.55.55 0 0 1 1.1 0M5.286 77.894a.55.55 0 1 1-1.1-.002.55.55 0 0 1 1.1.002m7.346 0a.55.55 0 1 1-1.101-.002.55.55 0 0 1 1.1.002m7.346 0a.55.55 0 1 1-1.1-.002.55.55 0 0 1 1.1.002m7.346 0a.55.55 0 1 1-1.101-.002.55.55 0 0 1 1.1.002m7.347 0a.55.55 0 1 1-1.101-.002.55.55 0 0 1 1.1.002m7.346 0a.55.55 0 1 1-1.1-.002.55.55 0 0 1 1.1.002m7.346 0a.55.55 0 1 1-1.101-.002.55.55 0 0 1 1.1.002m7.346 0a.55.55 0 1 1-1.1-.002.55.55 0 0 1 1.1.002m7.345 0a.55.55 0 1 1-1.1-.002.55.55 0 0 1 1.1.002m7.347 0a.55.55 0 1 1-1.101-.002.55.55 0 0 1 1.1.002m7.346 0a.55.55 0 1 1-1.1-.002.55.55 0 0 1 1.1.002m7.346 0a.55.55 0 1 1-1.101-.002.55.55 0 0 1 1.1.002m7.346 0a.55.55 0 1 1-1.1-.002.55.55 0 0 1 1.1.002m7.346 0a.55.55 0 1 1-1.101-.002.55.55 0 0 1 1.101.002m7.346 0a.55.55 0 1 1-1.101-.002.55.55 0 0 1 1.101.002m7.345 0a.55.55 0 1 1-1.101-.002.55.55 0 0 1 1.101.002m7.346 0a.55.55 0 1 1-1.1-.001.55.55 0 0 1 1.1.001m7.345 0a.55.55 0 1 1-1.1 0 .55.55 0 0 1 1.1 0m7.346 0a.55.55 0 1 1-1.1-.001.55.55 0 0 1 1.1.001m7.346 0a.55.55 0 1 1-1.1-.001.55.55 0 0 1 1.1.001m7.345 0a.55.55 0 1 1-1.1-.001.55.55 0 0 1 1.1.001m7.346 0a.55.55 0 1 1-1.1-.001.55.55 0 0 1 1.1.001m7.345 0a.55.55 0 1 1-1.1 0 .55.55 0 0 1 1.1 0m7.346 0a.55.55 0 1 1-1.1-.001.55.55 0 0 1 1.1.001m7.346 0a.55.55 0 1 1-1.1-.001.55.55 0 0 1 1.1.001m7.345 0a.55.55 0 1 1-1.1-.001.55.55 0 0 1 1.1.001m7.346 0a.55.55 0 1 1-1.1-.001.55.55 0 0 1 1.1.001m7.346 0a.55.55 0 1 1-1.101-.002.55.55 0 0 1 1.101.002m7.345 0a.55.55 0 1 1-1.1-.001.55.55 0 0 1 1.1.001m7.346 0a.55.55 0 1 1-1.1-.001.55.55 0 0 1 1.1.001m7.345 0a.55.55 0 1 1-1.1-.001.55.55 0 0 1 1.1.001m7.346 0a.55.55 0 1 1-1.1-.001.55.55 0 0 1 1.1.001m119.93 28.012a.464.464 0 0 1-.93 0 .464.464 0 0 1 .93 0m6.197 0a.464.464 0 0 1-.465.463.464.464 0 1 1 0-.926c.257 0 .465.208.465.463m6.197 0a.464.464 0 0 1-.93 0 .465.465 0 0 1 .93 0m6.197 0a.464.464 0 1 1-.927-.001.464.464 0 0 1 .927.001m6.197 0a.463.463 0 1 1-.927-.001.463.463 0 0 1 .927.001m6.197 0a.463.463 0 1 1-.927-.001.463.463 0 0 1 .927.001m6.198 0a.464.464 0 0 1-.93 0 .464.464 0 0 1 .93 0m6.197 0a.464.464 0 0 1-.93 0 .465.465 0 0 1 .93 0m6.197 0a.464.464 0 0 1-.93 0 .465.465 0 0 1 .93 0m6.197 0a.464.464 0 1 1-.927-.001.464.464 0 0 1 .927.001m-55.774 6.173a.464.464 0 0 1-.93 0 .464.464 0 0 1 .93 0m6.197 0a.464.464 0 0 1-.465.463.464.464 0 1 1 0-.926c.257 0 .465.208.465.463m6.197 0a.464.464 0 0 1-.93 0 .465.465 0 0 1 .93 0m6.197 0a.464.464 0 1 1-.927-.001.464.464 0 0 1 .927.001m6.197 0a.463.463 0 1 1-.927-.001.463.463 0 0 1 .927.001m6.197 0a.463.463 0 1 1-.927-.001.463.463 0 0 1 .927.001m6.198 0a.464.464 0 0 1-.93 0 .464.464 0 0 1 .93 0m6.197 0a.464.464 0 0 1-.93 0 .465.465 0 0 1 .93 0m6.197 0a.464.464 0 0 1-.93 0 .465.465 0 0 1 .93 0m6.197 0a.464.464 0 1 1-.927-.001.464.464 0 0 1 .927.001m-55.774 6.173a.464.464 0 0 1-.93 0 .464.464 0 0 1 .93 0m6.197 0a.464.464 0 0 1-.465.463.464.464 0 1 1 0-.926c.257 0 .465.207.465.463m6.197 0a.464.464 0 0 1-.93 0 .464.464 0 0 1 .93 0m6.197 0a.464.464 0 1 1-.927-.001.464.464 0 0 1 .927.001m6.197 0a.463.463 0 1 1-.927-.001.463.463 0 0 1 .927.001m6.197 0a.463.463 0 1 1-.927-.001.463.463 0 0 1 .927.001m6.198 0a.464.464 0 0 1-.93 0 .464.464 0 0 1 .93 0m6.197 0a.464.464 0 0 1-.93 0 .464.464 0 0 1 .93 0m6.197 0a.464.464 0 0 1-.93 0 .464.464 0 0 1 .93 0m6.197 0a.464.464 0 1 1-.927-.001.464.464 0 0 1 .927.001m-55.774 6.173a.465.465 0 0 1-.93 0 .464.464 0 0 1 .93 0m6.197 0a.464.464 0 0 1-.93 0c0-.256.208-.463.465-.463s.465.207.465.463m6.197 0a.464.464 0 0 1-.93 0 .464.464 0 0 1 .93 0m6.197 0a.464.464 0 0 1-.929 0 .463.463 0 0 1 .929 0m6.197 0a.464.464 0 1 1-.928-.002.464.464 0 0 1 .928.002m6.197 0a.464.464 0 1 1-.928-.002.464.464 0 0 1 .928.002m6.198 0a.465.465 0 0 1-.93 0 .464.464 0 0 1 .93 0m6.197 0a.464.464 0 0 1-.93 0 .464.464 0 0 1 .93 0m6.197 0a.464.464 0 0 1-.93 0 .464.464 0 0 1 .93 0m6.197 0a.464.464 0 0 1-.929 0 .463.463 0 0 1 .929 0m-55.774 6.173a.465.465 0 0 1-.93 0 .464.464 0 0 1 .93 0m6.197 0a.464.464 0 0 1-.93 0c0-.256.208-.463.465-.463s.465.207.465.463m6.197 0a.464.464 0 0 1-.93 0 .464.464 0 0 1 .93 0m6.197 0a.464.464 0 0 1-.929 0 .463.463 0 0 1 .929 0m6.197 0a.464.464 0 1 1-.928-.002.464.464 0 0 1 .928.002m6.197 0a.464.464 0 1 1-.928-.002.464.464 0 0 1 .928.002m6.198 0a.465.465 0 0 1-.93 0 .464.464 0 0 1 .93 0m6.197 0a.464.464 0 0 1-.93 0 .464.464 0 0 1 .93 0m6.197 0a.464.464 0 0 1-.93 0 .464.464 0 0 1 .93 0m6.197 0a.464.464 0 0 1-.929 0 .463.463 0 0 1 .929 0m-55.774 6.173a.464.464 0 0 1-.93 0 .464.464 0 0 1 .93 0m6.197 0a.463.463 0 0 1-.465.462.463.463 0 1 1 0-.925c.257 0 .465.207.465.463m6.197 0a.464.464 0 0 1-.93 0 .464.464 0 0 1 .93 0m6.197 0a.463.463 0 1 1-.927-.003.463.463 0 0 1 .927.003m6.197 0a.463.463 0 1 1-.931-.003.463.463 0 0 1 .931.003m6.197 0a.463.463 0 1 1-.931-.003.463.463 0 0 1 .931.003m6.198 0a.464.464 0 0 1-.93 0 .464.464 0 0 1 .93 0m6.197 0a.464.464 0 0 1-.93 0 .464.464 0 0 1 .93 0m6.197 0a.464.464 0 0 1-.93 0 .464.464 0 0 1 .93 0m6.197 0a.463.463 0 1 1-.927-.003.463.463 0 0 1 .927.003m-55.774 6.172a.464.464 0 0 1-.93 0 .464.464 0 0 1 .93 0m6.197 0a.464.464 0 0 1-.465.463.464.464 0 1 1 0-.926c.257 0 .465.208.465.463m6.197 0a.464.464 0 0 1-.93 0 .465.465 0 0 1 .93 0m6.197 0a.464.464 0 1 1-.927-.001.464.464 0 0 1 .927.001m6.197 0a.463.463 0 1 1-.927-.001.463.463 0 0 1 .927.001m6.197 0a.463.463 0 1 1-.927-.001.463.463 0 0 1 .927.001m6.198 0a.464.464 0 0 1-.93 0 .464.464 0 0 1 .93 0m6.197 0a.464.464 0 0 1-.93 0 .465.465 0 0 1 .93 0m6.197 0a.464.464 0 0 1-.93 0 .465.465 0 0 1 .93 0m6.197 0a.464.464 0 1 1-.927-.001.464.464 0 0 1 .927.001m-55.774 6.173a.464.464 0 0 1-.93 0 .464.464 0 0 1 .93 0m6.197 0a.464.464 0 0 1-.465.463.464.464 0 1 1 0-.926c.257 0 .465.208.465.463m6.197 0a.464.464 0 0 1-.93 0 .465.465 0 0 1 .93 0m6.197 0a.464.464 0 1 1-.927-.001.464.464 0 0 1 .927.001m6.197 0a.463.463 0 1 1-.927-.001.463.463 0 0 1 .927.001m6.197 0a.463.463 0 1 1-.927-.001.463.463 0 0 1 .927.001m6.198 0a.464.464 0 0 1-.93 0 .464.464 0 0 1 .93 0m6.197 0a.464.464 0 0 1-.93 0 .465.465 0 0 1 .93 0m6.197 0a.464.464 0 0 1-.93 0 .465.465 0 0 1 .93 0m6.197 0a.464.464 0 1 1-.927-.001.464.464 0 0 1 .927.001m-55.774 6.173a.464.464 0 0 1-.93 0 .464.464 0 0 1 .93 0m6.197 0a.464.464 0 0 1-.465.463.464.464 0 1 1 0-.926c.257 0 .465.207.465.463m6.197 0a.464.464 0 0 1-.93 0 .464.464 0 0 1 .93 0m6.197 0a.464.464 0 1 1-.927-.001.464.464 0 0 1 .927.001m6.197 0a.463.463 0 1 1-.927-.001.463.463 0 0 1 .927.001m6.197 0a.463.463 0 1 1-.927-.001.463.463 0 0 1 .927.001m6.198 0a.464.464 0 0 1-.93 0 .464.464 0 0 1 .93 0m6.197 0a.464.464 0 0 1-.93 0 .464.464 0 0 1 .93 0m6.197 0a.464.464 0 0 1-.93 0 .464.464 0 0 1 .93 0m6.197 0a.464.464 0 1 1-.927-.001.464.464 0 0 1 .927.001m-55.774 6.173a.465.465 0 0 1-.93 0 .464.464 0 0 1 .93 0m6.197 0a.464.464 0 0 1-.93 0c0-.256.208-.463.465-.463s.465.207.465.463m6.197 0a.464.464 0 0 1-.93 0 .464.464 0 0 1 .93 0m6.197 0a.464.464 0 0 1-.929 0 .463.463 0 0 1 .929 0m6.197 0a.464.464 0 1 1-.928-.002.464.464 0 0 1 .928.002m6.197 0a.464.464 0 1 1-.928-.002.464.464 0 0 1 .928.002m6.198 0a.465.465 0 0 1-.93 0 .464.464 0 0 1 .93 0m6.197 0a.464.464 0 0 1-.93 0 .464.464 0 0 1 .93 0m6.197 0a.464.464 0 0 1-.93 0 .464.464 0 0 1 .93 0m6.197 0a.464.464 0 0 1-.929 0 .463.463 0 0 1 .929 0m-55.774 6.173a.465.465 0 0 1-.93 0 .464.464 0 0 1 .93 0m6.197 0a.464.464 0 0 1-.93 0c0-.256.208-.463.465-.463s.465.207.465.463m6.197 0a.464.464 0 0 1-.93 0 .464.464 0 0 1 .93 0m6.197 0a.464.464 0 0 1-.929 0 .463.463 0 0 1 .929 0m6.197 0a.464.464 0 1 1-.928-.002.464.464 0 0 1 .928.002m6.197 0a.464.464 0 1 1-.928-.002.464.464 0 0 1 .928.002m6.198 0a.465.465 0 0 1-.93 0 .464.464 0 0 1 .93 0m6.197 0a.464.464 0 0 1-.93 0 .464.464 0 0 1 .93 0m6.197 0a.464.464 0 0 1-.93 0 .464.464 0 0 1 .93 0m6.197 0a.464.464 0 0 1-.929 0 .463.463 0 0 1 .929 0m-55.774 6.173a.465.465 0 0 1-.93 0 .464.464 0 0 1 .93 0m6.197 0a.464.464 0 0 1-.93 0c0-.256.208-.463.465-.463s.465.207.465.463m6.197 0a.464.464 0 0 1-.93 0 .464.464 0 0 1 .93 0m6.197 0a.464.464 0 0 1-.929 0 .463.463 0 0 1 .929 0m6.197 0a.464.464 0 1 1-.928-.002.464.464 0 0 1 .928.002m6.197 0a.464.464 0 1 1-.928-.002.464.464 0 0 1 .928.002m6.198 0a.465.465 0 0 1-.93 0 .464.464 0 0 1 .93 0m6.197 0a.464.464 0 0 1-.93 0 .464.464 0 0 1 .93 0m6.197 0a.464.464 0 0 1-.93 0 .464.464 0 0 1 .93 0m6.197 0a.464.464 0 0 1-.929 0 .463.463 0 0 1 .929 0m6.197-67.902a.463.463 0 1 1-.927-.001.463.463 0 0 1 .927.001m6.198 0a.464.464 0 0 1-.93 0 .464.464 0 0 1 .93 0m6.197 0a.464.464 0 0 1-.465.463.464.464 0 1 1 0-.926c.257 0 .465.208.465.463m6.197 0a.464.464 0 0 1-.93 0 .465.465 0 0 1 .93 0m6.197 0a.464.464 0 1 1-.927-.001.464.464 0 0 1 .927.001m-24.789 6.173a.463.463 0 1 1-.927-.001.463.463 0 0 1 .927.001m6.198 0a.464.464 0 0 1-.93 0 .464.464 0 0 1 .93 0m6.197 0a.464.464 0 0 1-.465.463.464.464 0 1 1 0-.926c.257 0 .465.208.465.463m6.197 0a.464.464 0 0 1-.93 0 .465.465 0 0 1 .93 0m6.197 0a.464.464 0 1 1-.927-.001.464.464 0 0 1 .927.001m-24.789 6.173a.463.463 0 1 1-.927-.001.463.463 0 0 1 .927.001m6.198 0a.464.464 0 0 1-.93 0 .464.464 0 0 1 .93 0m6.197 0a.464.464 0 0 1-.465.463.464.464 0 1 1 0-.926c.257 0 .465.207.465.463m6.197 0a.464.464 0 0 1-.93 0 .464.464 0 0 1 .93 0m6.197 0a.464.464 0 1 1-.927-.001.464.464 0 0 1 .927.001m-24.789 6.173a.464.464 0 1 1-.928-.002.464.464 0 0 1 .928.002m6.198 0a.465.465 0 0 1-.93 0 .464.464 0 0 1 .93 0m6.197 0a.464.464 0 0 1-.93 0c0-.256.208-.463.465-.463s.465.207.465.463m6.197 0a.464.464 0 0 1-.93 0 .464.464 0 0 1 .93 0m6.197 0a.464.464 0 0 1-.929 0 .463.463 0 0 1 .929 0m-24.789 6.173a.464.464 0 1 1-.928-.002.464.464 0 0 1 .928.002m6.198 0a.465.465 0 0 1-.93 0 .464.464 0 0 1 .93 0m6.197 0a.464.464 0 0 1-.93 0c0-.256.208-.463.465-.463s.465.207.465.463m6.197 0a.464.464 0 0 1-.93 0 .464.464 0 0 1 .93 0m6.197 0a.464.464 0 0 1-.929 0 .463.463 0 0 1 .929 0m-24.789 6.173a.463.463 0 1 1-.931-.003.463.463 0 0 1 .931.003m6.198 0a.464.464 0 0 1-.93 0 .464.464 0 0 1 .93 0m6.197 0a.463.463 0 0 1-.465.462.463.463 0 1 1 0-.925c.257 0 .465.207.465.463m6.197 0a.464.464 0 0 1-.93 0 .464.464 0 0 1 .93 0m6.197 0a.463.463 0 1 1-.927-.003.463.463 0 0 1 .927.003m-24.789 6.172a.463.463 0 1 1-.927-.001.463.463 0 0 1 .927.001m6.198 0a.464.464 0 0 1-.93 0 .464.464 0 0 1 .93 0m6.197 0a.464.464 0 0 1-.465.463.464.464 0 1 1 0-.926c.257 0 .465.208.465.463m6.197 0a.464.464 0 0 1-.93 0 .465.465 0 0 1 .93 0m6.197 0a.464.464 0 1 1-.927-.001.464.464 0 0 1 .927.001m-24.789 6.173a.463.463 0 1 1-.927-.001.463.463 0 0 1 .927.001m6.198 0a.464.464 0 0 1-.93 0 .464.464 0 0 1 .93 0m6.197 0a.464.464 0 0 1-.465.463.464.464 0 1 1 0-.926c.257 0 .465.208.465.463m6.197 0a.464.464 0 0 1-.93 0 .465.465 0 0 1 .93 0m6.197 0a.464.464 0 1 1-.927-.001.464.464 0 0 1 .927.001m-24.789 6.173a.463.463 0 1 1-.927-.001.463.463 0 0 1 .927.001m6.198 0a.464.464 0 0 1-.93 0 .464.464 0 0 1 .93 0m6.197 0a.464.464 0 0 1-.465.463.464.464 0 1 1 0-.926c.257 0 .465.207.465.463m6.197 0a.464.464 0 0 1-.93 0 .464.464 0 0 1 .93 0m6.197 0a.464.464 0 1 1-.927-.001.464.464 0 0 1 .927.001m-24.789 6.173a.464.464 0 1 1-.928-.002.464.464 0 0 1 .928.002m6.198 0a.465.465 0 0 1-.93 0 .464.464 0 0 1 .93 0m6.197 0a.464.464 0 0 1-.93 0c0-.256.208-.463.465-.463s.465.207.465.463m6.197 0a.464.464 0 0 1-.93 0 .464.464 0 0 1 .93 0m6.197 0a.464.464 0 0 1-.929 0 .463.463 0 0 1 .929 0m-24.789 6.173a.464.464 0 1 1-.928-.002.464.464 0 0 1 .928.002m6.198 0a.465.465 0 0 1-.93 0 .464.464 0 0 1 .93 0m6.197 0a.464.464 0 0 1-.93 0c0-.256.208-.463.465-.463s.465.207.465.463m6.197 0a.464.464 0 0 1-.93 0 .464.464 0 0 1 .93 0m6.197 0a.464.464 0 0 1-.929 0 .463.463 0 0 1 .929 0m-24.789 6.173a.464.464 0 1 1-.928-.002.464.464 0 0 1 .928.002m6.198 0a.465.465 0 0 1-.93 0 .464.464 0 0 1 .93 0m6.197 0a.464.464 0 0 1-.93 0c0-.256.208-.463.465-.463s.465.207.465.463m6.197 0a.464.464 0 0 1-.93 0 .464.464 0 0 1 .93 0m6.197 0a.464.464 0 0 1-.929 0 .463.463 0 0 1 .929 0m-86.76 6.172a.464.464 0 0 1-.93 0 .464.464 0 0 1 .93 0m6.197 0a.464.464 0 0 1-.465.463.464.464 0 1 1 0-.926c.257 0 .465.208.465.463m6.197 0a.464.464 0 0 1-.93 0 .465.465 0 0 1 .93 0m6.197 0a.464.464 0 1 1-.927-.001.464.464 0 0 1 .927.001m6.197 0a.463.463 0 1 1-.927-.001.463.463 0 0 1 .927.001m6.197 0a.463.463 0 1 1-.927-.001.463.463 0 0 1 .927.001m6.198 0a.464.464 0 0 1-.93 0 .464.464 0 0 1 .93 0m6.197 0a.464.464 0 0 1-.93 0 .465.465 0 0 1 .93 0m6.197 0a.464.464 0 0 1-.93 0 .465.465 0 0 1 .93 0m6.197 0a.464.464 0 1 1-.927-.001.464.464 0 0 1 .927.001m6.197 0a.463.463 0 1 1-.927-.001.463.463 0 0 1 .927.001m6.198 0a.464.464 0 0 1-.93 0 .464.464 0 0 1 .93 0m6.197 0a.464.464 0 0 1-.465.463.464.464 0 1 1 0-.926c.257 0 .465.208.465.463m6.197 0a.464.464 0 0 1-.93 0 .465.465 0 0 1 .93 0m6.197 0a.464.464 0 1 1-.927-.001.464.464 0 0 1 .927.001m6.197-74.074a.463.463 0 1 1-.927-.001.463.463 0 0 1 .927.001m6.198 0a.464.464 0 0 1-.93 0 .464.464 0 0 1 .93 0m6.197 0a.464.464 0 0 1-.93 0 .464.464 0 0 1 .93 0m6.197 0a.464.464 0 0 1-.93 0 .465.465 0 0 1 .93 0m6.197 0a.464.464 0 0 1-.93 0 .465.465 0 0 1 .93 0m6.197 0a.464.464 0 1 1-.927-.001.464.464 0 0 1 .927.001m6.197 0a.463.463 0 1 1-.927-.001.463.463 0 0 1 .927.001m6.198 0a.464.464 0 0 1-.93 0 .464.464 0 0 1 .93 0m6.197 0a.464.464 0 0 1-.465.463.464.464 0 1 1 0-.926c.257 0 .465.208.465.463m6.197 0a.464.464 0 0 1-.93 0 .465.465 0 0 1 .93 0m6.197 0a.464.464 0 1 1-.927-.001.464.464 0 0 1 .927.001m6.197 0a.463.463 0 1 1-.927-.001.463.463 0 0 1 .927.001m6.198 0a.464.464 0 0 1-.93 0 .464.464 0 0 1 .93 0m6.197 0a.464.464 0 0 1-.93 0 .464.464 0 0 1 .93 0m6.197 0a.464.464 0 0 1-.93 0 .465.465 0 0 1 .93 0m-86.761 6.173a.463.463 0 1 1-.927-.001.463.463 0 0 1 .927.001m6.198 0a.464.464 0 0 1-.93 0 .464.464 0 0 1 .93 0m6.197 0a.464.464 0 0 1-.93 0 .464.464 0 0 1 .93 0m6.197 0a.464.464 0 0 1-.93 0 .465.465 0 0 1 .93 0m6.197 0a.464.464 0 0 1-.93 0 .465.465 0 0 1 .93 0m6.197 0a.464.464 0 1 1-.927-.001.464.464 0 0 1 .927.001m6.197 0a.463.463 0 1 1-.927-.001.463.463 0 0 1 .927.001m6.198 0a.464.464 0 0 1-.93 0 .464.464 0 0 1 .93 0m6.197 0a.464.464 0 0 1-.465.463.464.464 0 1 1 0-.926c.257 0 .465.208.465.463m6.197 0a.464.464 0 0 1-.93 0 .465.465 0 0 1 .93 0m6.197 0a.464.464 0 1 1-.927-.001.464.464 0 0 1 .927.001m6.197 0a.463.463 0 1 1-.927-.001.463.463 0 0 1 .927.001m6.198 0a.464.464 0 0 1-.93 0 .464.464 0 0 1 .93 0m6.197 0a.464.464 0 0 1-.93 0 .464.464 0 0 1 .93 0m6.197 0a.464.464 0 0 1-.93 0 .465.465 0 0 1 .93 0m-86.761 6.173a.463.463 0 1 1-.927-.001.463.463 0 0 1 .927.001m6.198 0a.464.464 0 0 1-.93 0 .464.464 0 0 1 .93 0m6.197 0a.464.464 0 0 1-.93 0 .464.464 0 0 1 .93 0m6.197 0a.464.464 0 0 1-.93 0 .464.464 0 0 1 .93 0m6.197 0a.464.464 0 0 1-.93 0 .464.464 0 0 1 .93 0m6.197 0a.464.464 0 1 1-.927-.001.464.464 0 0 1 .927.001m6.197 0a.463.463 0 1 1-.927-.001.463.463 0 0 1 .927.001m6.198 0a.464.464 0 0 1-.93 0 .464.464 0 0 1 .93 0m6.197 0a.464.464 0 0 1-.465.463.464.464 0 1 1 0-.926c.257 0 .465.207.465.463m6.197 0a.464.464 0 0 1-.93 0 .464.464 0 0 1 .93 0m6.197 0a.464.464 0 1 1-.927-.001.464.464 0 0 1 .927.001m6.197 0a.463.463 0 1 1-.927-.001.463.463 0 0 1 .927.001m6.198 0a.464.464 0 0 1-.93 0 .464.464 0 0 1 .93 0m6.197 0a.464.464 0 0 1-.93 0 .464.464 0 0 1 .93 0m6.197 0a.464.464 0 0 1-.93 0 .464.464 0 0 1 .93 0m-86.761 6.173a.464.464 0 1 1-.928-.002.464.464 0 0 1 .928.002m6.198 0a.465.465 0 0 1-.93 0 .464.464 0 0 1 .93 0m6.197 0a.465.465 0 0 1-.93 0 .464.464 0 0 1 .93 0m6.197 0a.464.464 0 0 1-.93 0 .464.464 0 0 1 .93 0m6.197 0a.464.464 0 0 1-.93 0 .464.464 0 0 1 .93 0m6.197 0a.464.464 0 0 1-.929 0 .463.463 0 0 1 .929 0m6.197 0a.464.464 0 1 1-.928-.002.464.464 0 0 1 .928.002m6.198 0a.465.465 0 0 1-.93 0 .464.464 0 0 1 .93 0m6.197 0a.464.464 0 0 1-.93 0c0-.256.208-.463.465-.463s.465.207.465.463m6.197 0a.464.464 0 0 1-.93 0 .464.464 0 0 1 .93 0m6.197 0a.464.464 0 0 1-.929 0 .463.463 0 0 1 .929 0m6.197 0a.464.464 0 1 1-.928-.002.464.464 0 0 1 .928.002m6.198 0a.465.465 0 0 1-.93 0 .464.464 0 0 1 .93 0m6.197 0a.465.465 0 0 1-.93 0 .464.464 0 0 1 .93 0m6.197 0a.464.464 0 0 1-.93 0 .464.464 0 0 1 .93 0m-86.761 6.173a.464.464 0 1 1-.928-.002.464.464 0 0 1 .928.002m6.198 0a.465.465 0 0 1-.93 0 .464.464 0 0 1 .93 0m6.197 0a.465.465 0 0 1-.93 0 .464.464 0 0 1 .93 0m6.197 0a.464.464 0 0 1-.93 0 .464.464 0 0 1 .93 0m6.197 0a.464.464 0 0 1-.93 0 .464.464 0 0 1 .93 0m6.197 0a.464.464 0 0 1-.929 0 .463.463 0 0 1 .929 0m6.197 0a.464.464 0 1 1-.928-.002.464.464 0 0 1 .928.002m6.198 0a.465.465 0 0 1-.93 0 .464.464 0 0 1 .93 0m6.197 0a.464.464 0 0 1-.93 0c0-.256.208-.463.465-.463s.465.207.465.463m6.197 0a.464.464 0 0 1-.93 0 .464.464 0 0 1 .93 0m6.197 0a.464.464 0 0 1-.929 0 .463.463 0 0 1 .929 0m6.197 0a.464.464 0 1 1-.928-.002.464.464 0 0 1 .928.002m6.198 0a.465.465 0 0 1-.93 0 .464.464 0 0 1 .93 0m6.197 0a.465.465 0 0 1-.93 0 .464.464 0 0 1 .93 0m6.197 0a.464.464 0 0 1-.93 0 .464.464 0 0 1 .93 0m-86.761 6.173a.463.463 0 1 1-.931-.003.463.463 0 0 1 .931.003m6.198 0a.464.464 0 0 1-.93 0 .464.464 0 0 1 .93 0m6.197 0a.464.464 0 0 1-.93 0 .464.464 0 0 1 .93 0m6.197 0a.464.464 0 0 1-.93 0 .464.464 0 0 1 .93 0m6.197 0a.464.464 0 0 1-.93 0 .464.464 0 0 1 .93 0m6.197 0a.463.463 0 1 1-.927-.003.463.463 0 0 1 .927.003m6.197 0a.463.463 0 1 1-.931-.003.463.463 0 0 1 .931.003m6.198 0a.464.464 0 0 1-.93 0 .464.464 0 0 1 .93 0m6.197 0a.463.463 0 0 1-.465.462.463.463 0 1 1 0-.925c.257 0 .465.207.465.463m6.197 0a.464.464 0 0 1-.93 0 .464.464 0 0 1 .93 0m6.197 0a.463.463 0 1 1-.927-.003.463.463 0 0 1 .927.003m6.197 0a.463.463 0 1 1-.931-.003.463.463 0 0 1 .931.003m6.198 0a.464.464 0 0 1-.93 0 .464.464 0 0 1 .93 0m6.197 0a.464.464 0 0 1-.93 0 .464.464 0 0 1 .93 0m6.197 0a.464.464 0 0 1-.93 0 .464.464 0 0 1 .93 0m-86.761 6.172a.463.463 0 1 1-.927-.001.463.463 0 0 1 .927.001m6.198 0a.464.464 0 0 1-.93 0 .464.464 0 0 1 .93 0m6.197 0a.464.464 0 0 1-.93 0 .464.464 0 0 1 .93 0m6.197 0a.464.464 0 0 1-.93 0 .465.465 0 0 1 .93 0m6.197 0a.464.464 0 0 1-.93 0 .465.465 0 0 1 .93 0m6.197 0a.464.464 0 1 1-.927-.001.464.464 0 0 1 .927.001m6.197 0a.463.463 0 1 1-.927-.001.463.463 0 0 1 .927.001m6.198 0a.464.464 0 0 1-.93 0 .464.464 0 0 1 .93 0m6.197 0a.464.464 0 0 1-.465.463.464.464 0 1 1 0-.926c.257 0 .465.208.465.463m6.197 0a.464.464 0 0 1-.93 0 .465.465 0 0 1 .93 0m6.197 0a.464.464 0 1 1-.927-.001.464.464 0 0 1 .927.001m6.197 0a.463.463 0 1 1-.927-.001.463.463 0 0 1 .927.001m6.198 0a.464.464 0 0 1-.93 0 .464.464 0 0 1 .93 0m6.197 0a.464.464 0 0 1-.93 0 .464.464 0 0 1 .93 0m6.197 0a.464.464 0 0 1-.93 0 .465.465 0 0 1 .93 0m-86.761 6.173a.463.463 0 1 1-.927-.001.463.463 0 0 1 .927.001m6.198 0a.464.464 0 0 1-.93 0 .464.464 0 0 1 .93 0m6.197 0a.464.464 0 0 1-.93 0 .464.464 0 0 1 .93 0m6.197 0a.464.464 0 0 1-.93 0 .465.465 0 0 1 .93 0m6.197 0a.464.464 0 0 1-.93 0 .465.465 0 0 1 .93 0m6.197 0a.464.464 0 1 1-.927-.001.464.464 0 0 1 .927.001m6.197 0a.463.463 0 1 1-.927-.001.463.463 0 0 1 .927.001m6.198 0a.464.464 0 0 1-.93 0 .464.464 0 0 1 .93 0m6.197 0a.464.464 0 0 1-.465.463.464.464 0 1 1 0-.926c.257 0 .465.208.465.463m6.197 0a.464.464 0 0 1-.93 0 .465.465 0 0 1 .93 0m6.197 0a.464.464 0 1 1-.927-.001.464.464 0 0 1 .927.001m6.197 0a.463.463 0 1 1-.927-.001.463.463 0 0 1 .927.001m6.198 0a.464.464 0 0 1-.93 0 .464.464 0 0 1 .93 0m6.197 0a.464.464 0 0 1-.93 0 .464.464 0 0 1 .93 0m6.197 0a.464.464 0 0 1-.93 0 .465.465 0 0 1 .93 0m-86.761 6.173a.463.463 0 1 1-.927-.001.463.463 0 0 1 .927.001m6.198 0a.464.464 0 0 1-.93 0 .464.464 0 0 1 .93 0m6.197 0a.464.464 0 0 1-.93 0 .464.464 0 0 1 .93 0m6.197 0a.464.464 0 0 1-.93 0 .464.464 0 0 1 .93 0m6.197 0a.464.464 0 0 1-.93 0 .464.464 0 0 1 .93 0m6.197 0a.464.464 0 1 1-.927-.001.464.464 0 0 1 .927.001m6.197 0a.463.463 0 1 1-.927-.001.463.463 0 0 1 .927.001m6.198 0a.464.464 0 0 1-.93 0 .464.464 0 0 1 .93 0m6.197 0a.464.464 0 0 1-.465.463.464.464 0 1 1 0-.926c.257 0 .465.207.465.463m6.197 0a.464.464 0 0 1-.93 0 .464.464 0 0 1 .93 0m6.197 0a.464.464 0 1 1-.927-.001.464.464 0 0 1 .927.001m6.197 0a.463.463 0 1 1-.927-.001.463.463 0 0 1 .927.001m6.198 0a.464.464 0 0 1-.93 0 .464.464 0 0 1 .93 0m6.197 0a.464.464 0 0 1-.93 0 .464.464 0 0 1 .93 0m6.197 0a.464.464 0 0 1-.93 0 .464.464 0 0 1 .93 0m-86.761 6.173a.464.464 0 1 1-.928-.002.464.464 0 0 1 .928.002m6.198 0a.465.465 0 0 1-.93 0 .464.464 0 0 1 .93 0m6.197 0a.465.465 0 0 1-.93 0 .464.464 0 0 1 .93 0m6.197 0a.464.464 0 0 1-.93 0 .464.464 0 0 1 .93 0m6.197 0a.464.464 0 0 1-.93 0 .464.464 0 0 1 .93 0m6.197 0a.464.464 0 0 1-.929 0 .463.463 0 0 1 .929 0m6.197 0a.464.464 0 1 1-.928-.002.464.464 0 0 1 .928.002m6.198 0a.465.465 0 0 1-.93 0 .464.464 0 0 1 .93 0m6.197 0a.464.464 0 0 1-.93 0c0-.256.208-.463.465-.463s.465.207.465.463m6.197 0a.464.464 0 0 1-.93 0 .464.464 0 0 1 .93 0m6.197 0a.464.464 0 0 1-.929 0 .463.463 0 0 1 .929 0m6.197 0a.464.464 0 1 1-.928-.002.464.464 0 0 1 .928.002m6.198 0a.465.465 0 0 1-.93 0 .464.464 0 0 1 .93 0m6.197 0a.465.465 0 0 1-.93 0 .464.464 0 0 1 .93 0m6.197 0a.464.464 0 0 1-.93 0 .464.464 0 0 1 .93 0m-86.761 6.173a.464.464 0 1 1-.928-.002.464.464 0 0 1 .928.002m6.198 0a.465.465 0 0 1-.93 0 .464.464 0 0 1 .93 0m6.197 0a.465.465 0 0 1-.93 0 .464.464 0 0 1 .93 0m6.197 0a.464.464 0 0 1-.93 0 .464.464 0 0 1 .93 0m6.197 0a.464.464 0 0 1-.93 0 .464.464 0 0 1 .93 0m6.197 0a.464.464 0 0 1-.929 0 .463.463 0 0 1 .929 0m6.197 0a.464.464 0 1 1-.928-.002.464.464 0 0 1 .928.002m6.198 0a.465.465 0 0 1-.93 0 .464.464 0 0 1 .93 0m6.197 0a.464.464 0 0 1-.93 0c0-.256.208-.463.465-.463s.465.207.465.463m6.197 0a.464.464 0 0 1-.93 0 .464.464 0 0 1 .93 0m6.197 0a.464.464 0 0 1-.929 0 .463.463 0 0 1 .929 0m6.197 0a.464.464 0 1 1-.928-.002.464.464 0 0 1 .928.002m6.198 0a.465.465 0 0 1-.93 0 .464.464 0 0 1 .93 0m6.197 0a.465.465 0 0 1-.93 0 .464.464 0 0 1 .93 0m6.197 0a.464.464 0 0 1-.93 0 .464.464 0 0 1 .93 0m-86.761 6.173a.464.464 0 1 1-.928-.002.464.464 0 0 1 .928.002m6.198 0a.465.465 0 0 1-.93 0 .464.464 0 0 1 .93 0m6.197 0a.465.465 0 0 1-.93 0 .464.464 0 0 1 .93 0m6.197 0a.464.464 0 0 1-.93 0 .464.464 0 0 1 .93 0m6.197 0a.464.464 0 0 1-.93 0 .464.464 0 0 1 .93 0m6.197 0a.464.464 0 0 1-.929 0 .463.463 0 0 1 .929 0m6.197 0a.464.464 0 1 1-.928-.002.464.464 0 0 1 .928.002m6.198 0a.465.465 0 0 1-.93 0 .464.464 0 0 1 .93 0m6.197 0a.464.464 0 0 1-.93 0c0-.256.208-.463.465-.463s.465.207.465.463m6.197 0a.464.464 0 0 1-.93 0 .464.464 0 0 1 .93 0m6.197 0a.464.464 0 0 1-.929 0 .463.463 0 0 1 .929 0m6.197 0a.464.464 0 1 1-.928-.002.464.464 0 0 1 .928.002m6.198 0a.465.465 0 0 1-.93 0 .464.464 0 0 1 .93 0m6.197 0a.465.465 0 0 1-.93 0 .464.464 0 0 1 .93 0m6.197 0a.464.464 0 0 1-.93 0 .464.464 0 0 1 .93 0m6.197-67.902a.464.464 0 0 1-.93 0 .465.465 0 0 1 .93 0m6.197 0a.463.463 0 0 1-.465.463.463.463 0 1 1 0-.926c.258 0 .465.208.465.463m6.197 0a.463.463 0 0 1-.464.463.463.463 0 1 1 0-.926c.257 0 .464.208.464.463m6.198 0a.464.464 0 0 1-.465.463.464.464 0 1 1 0-.926c.257 0 .465.208.465.463m6.197 0a.464.464 0 0 1-.465.463.464.464 0 1 1 0-.926c.257 0 .465.208.465.463m6.197 0a.464.464 0 0 1-.465.463.464.464 0 1 1 0-.926c.257 0 .465.208.465.463m6.197 0a.463.463 0 0 1-.465.463.463.463 0 1 1 0-.926c.258 0 .465.208.465.463m6.197 0a.463.463 0 0 1-.464.463.463.463 0 1 1 0-.926c.257 0 .464.208.464.463m6.198 0a.464.464 0 0 1-.465.463.464.464 0 1 1 0-.926c.257 0 .465.208.465.463m6.197 0a.464.464 0 0 1-.465.463.464.464 0 1 1 0-.926c.257 0 .465.208.465.463m6.197 0a.464.464 0 0 1-.465.463.464.464 0 1 1 0-.926c.257 0 .465.208.465.463m6.197 0a.464.464 0 1 1-.927-.001.464.464 0 0 1 .927.001m6.197 0a.463.463 0 0 1-.465.463.463.463 0 1 1 0-.926c.258 0 .465.208.465.463m6.197 0a.463.463 0 0 1-.464.463.463.463 0 1 1 0-.926c.257 0 .464.208.464.463m6.198 0a.464.464 0 0 1-.465.463.464.464 0 1 1 0-.926c.257 0 .465.208.465.463m-86.761 6.173a.464.464 0 0 1-.93 0 .465.465 0 0 1 .93 0m6.197 0a.463.463 0 0 1-.465.463.463.463 0 1 1 0-.926c.258 0 .465.208.465.463m6.197 0a.463.463 0 0 1-.464.463.463.463 0 1 1 0-.926c.257 0 .464.208.464.463m6.198 0a.464.464 0 0 1-.465.463.464.464 0 1 1 0-.926c.257 0 .465.208.465.463m6.197 0a.464.464 0 0 1-.465.463.464.464 0 1 1 0-.926c.257 0 .465.208.465.463m6.197 0a.464.464 0 0 1-.465.463.464.464 0 1 1 0-.926c.257 0 .465.208.465.463m6.197 0a.463.463 0 0 1-.465.463.463.463 0 1 1 0-.926c.258 0 .465.208.465.463m6.197 0a.463.463 0 0 1-.464.463.463.463 0 1 1 0-.926c.257 0 .464.208.464.463m6.198 0a.464.464 0 0 1-.465.463.464.464 0 1 1 0-.926c.257 0 .465.208.465.463m6.197 0a.464.464 0 0 1-.465.463.464.464 0 1 1 0-.926c.257 0 .465.208.465.463m6.197 0a.464.464 0 0 1-.465.463.464.464 0 1 1 0-.926c.257 0 .465.208.465.463m6.197 0a.464.464 0 1 1-.927-.001.464.464 0 0 1 .927.001m6.197 0a.463.463 0 0 1-.465.463.463.463 0 1 1 0-.926c.258 0 .465.208.465.463m6.197 0a.463.463 0 0 1-.464.463.463.463 0 1 1 0-.926c.257 0 .464.208.464.463m6.198 0a.464.464 0 0 1-.465.463.464.464 0 1 1 0-.926c.257 0 .465.208.465.463m-86.761 6.173a.464.464 0 0 1-.93 0 .464.464 0 0 1 .93 0m6.197 0a.463.463 0 0 1-.465.463.463.463 0 1 1 0-.926c.258 0 .465.207.465.463m6.197 0a.463.463 0 0 1-.464.463.463.463 0 1 1 0-.926c.257 0 .464.207.464.463m6.198 0a.464.464 0 0 1-.465.463.464.464 0 1 1 0-.926c.257 0 .465.207.465.463m6.197 0a.464.464 0 0 1-.465.463.464.464 0 1 1 0-.926c.257 0 .465.207.465.463m6.197 0a.464.464 0 0 1-.465.463.464.464 0 1 1 0-.926c.257 0 .465.207.465.463m6.197 0a.463.463 0 0 1-.465.463.463.463 0 1 1 0-.926c.258 0 .465.207.465.463m6.197 0a.463.463 0 0 1-.464.463.463.463 0 1 1 0-.926c.257 0 .464.207.464.463m6.198 0a.464.464 0 0 1-.465.463.464.464 0 1 1 0-.926c.257 0 .465.207.465.463m6.197 0a.464.464 0 0 1-.465.463.464.464 0 1 1 0-.926c.257 0 .465.207.465.463m6.197 0a.464.464 0 0 1-.465.463.464.464 0 1 1 0-.926c.257 0 .465.207.465.463m6.197 0a.464.464 0 1 1-.927-.001.464.464 0 0 1 .927.001m6.197 0a.463.463 0 0 1-.465.463.463.463 0 1 1 0-.926c.258 0 .465.207.465.463m6.197 0a.463.463 0 0 1-.464.463.463.463 0 1 1 0-.926c.257 0 .464.207.464.463m6.198 0a.464.464 0 0 1-.465.463.464.464 0 1 1 0-.926c.257 0 .465.207.465.463m-86.761 6.173a.464.464 0 0 1-.93 0 .464.464 0 0 1 .93 0m6.197 0a.464.464 0 1 1-.927-.001.464.464 0 0 1 .927.001m6.197 0a.463.463 0 1 1-.927-.001.463.463 0 0 1 .927.001m6.198 0a.464.464 0 0 1-.93 0c0-.256.208-.463.465-.463s.465.207.465.463m6.197 0a.464.464 0 0 1-.93 0c0-.256.208-.463.465-.463s.465.207.465.463m6.197 0a.464.464 0 0 1-.93 0c0-.256.208-.463.465-.463s.465.207.465.463m6.197 0a.464.464 0 1 1-.927-.001.464.464 0 0 1 .927.001m6.197 0a.463.463 0 1 1-.927-.001.463.463 0 0 1 .927.001m6.198 0a.464.464 0 0 1-.93 0c0-.256.208-.463.465-.463s.465.207.465.463m6.197 0a.464.464 0 0 1-.93 0c0-.256.208-.463.465-.463s.465.207.465.463m6.197 0a.464.464 0 0 1-.93 0c0-.256.208-.463.465-.463s.465.207.465.463m6.197 0a.464.464 0 0 1-.929 0 .464.464 0 0 1 .929 0m6.197 0a.464.464 0 1 1-.927-.001.464.464 0 0 1 .927.001m6.197 0a.463.463 0 1 1-.927-.001.463.463 0 0 1 .927.001m6.198 0a.464.464 0 0 1-.93 0c0-.256.208-.463.465-.463s.465.207.465.463m-86.761 6.173a.464.464 0 0 1-.93 0 .464.464 0 0 1 .93 0m6.197 0a.464.464 0 1 1-.927-.001.464.464 0 0 1 .927.001m6.197 0a.463.463 0 1 1-.927-.001.463.463 0 0 1 .927.001m6.198 0a.464.464 0 0 1-.93 0c0-.256.208-.463.465-.463s.465.207.465.463m6.197 0a.464.464 0 0 1-.93 0c0-.256.208-.463.465-.463s.465.207.465.463m6.197 0a.464.464 0 0 1-.93 0c0-.256.208-.463.465-.463s.465.207.465.463m6.197 0a.464.464 0 1 1-.927-.001.464.464 0 0 1 .927.001m6.197 0a.463.463 0 1 1-.927-.001.463.463 0 0 1 .927.001m6.198 0a.464.464 0 0 1-.93 0c0-.256.208-.463.465-.463s.465.207.465.463m6.197 0a.464.464 0 0 1-.93 0c0-.256.208-.463.465-.463s.465.207.465.463m6.197 0a.464.464 0 0 1-.93 0c0-.256.208-.463.465-.463s.465.207.465.463m6.197 0a.464.464 0 0 1-.929 0 .464.464 0 0 1 .929 0m6.197 0a.464.464 0 1 1-.927-.001.464.464 0 0 1 .927.001m6.197 0a.463.463 0 1 1-.927-.001.463.463 0 0 1 .927.001m6.198 0a.464.464 0 0 1-.93 0c0-.256.208-.463.465-.463s.465.207.465.463m-86.761 6.173a.464.464 0 0 1-.93 0 .464.464 0 0 1 .93 0m6.197 0a.463.463 0 0 1-.465.462.463.463 0 1 1 0-.925c.258 0 .465.207.465.463m6.197 0a.463.463 0 0 1-.464.462.463.463 0 1 1 0-.925c.257 0 .464.207.464.463m6.198 0a.463.463 0 0 1-.465.462.463.463 0 1 1 0-.925c.257 0 .465.207.465.463m6.197 0a.463.463 0 0 1-.465.462.463.463 0 1 1 0-.925c.257 0 .465.207.465.463m6.197 0a.463.463 0 0 1-.465.462.463.463 0 1 1 0-.925c.257 0 .465.207.465.463m6.197 0a.463.463 0 0 1-.465.462.463.463 0 1 1 0-.925c.258 0 .465.207.465.463m6.197 0a.463.463 0 0 1-.464.462.463.463 0 1 1 0-.925c.257 0 .464.207.464.463m6.198 0a.463.463 0 0 1-.465.462.463.463 0 1 1 0-.925c.257 0 .465.207.465.463m6.197 0a.463.463 0 0 1-.465.462.463.463 0 1 1 0-.925c.257 0 .465.207.465.463m6.197 0a.463.463 0 0 1-.465.462.463.463 0 1 1 0-.925c.257 0 .465.207.465.463m6.197 0a.463.463 0 0 1-.465.462.463.463 0 1 1 0-.925c.257 0 .465.207.465.463m6.197 0a.463.463 0 0 1-.465.462.463.463 0 1 1 0-.925c.258 0 .465.207.465.463m6.197 0a.463.463 0 0 1-.464.462.463.463 0 1 1 0-.925c.257 0 .464.207.464.463m6.198 0a.463.463 0 0 1-.465.462.463.463 0 1 1 0-.925c.257 0 .465.207.465.463m-86.761 6.172a.464.464 0 0 1-.93 0 .465.465 0 0 1 .93 0m6.197 0a.463.463 0 0 1-.465.463.463.463 0 1 1 0-.926c.258 0 .465.208.465.463m6.197 0a.463.463 0 0 1-.464.463.463.463 0 1 1 0-.926c.257 0 .464.208.464.463m6.198 0a.464.464 0 0 1-.465.463.464.464 0 1 1 0-.926c.257 0 .465.208.465.463m6.197 0a.464.464 0 0 1-.465.463.464.464 0 1 1 0-.926c.257 0 .465.208.465.463m6.197 0a.464.464 0 0 1-.465.463.464.464 0 1 1 0-.926c.257 0 .465.208.465.463m6.197 0a.463.463 0 0 1-.465.463.463.463 0 1 1 0-.926c.258 0 .465.208.465.463m6.197 0a.463.463 0 0 1-.464.463.463.463 0 1 1 0-.926c.257 0 .464.208.464.463m6.198 0a.464.464 0 0 1-.465.463.464.464 0 1 1 0-.926c.257 0 .465.208.465.463m6.197 0a.464.464 0 0 1-.465.463.464.464 0 1 1 0-.926c.257 0 .465.208.465.463m6.197 0a.464.464 0 0 1-.465.463.464.464 0 1 1 0-.926c.257 0 .465.208.465.463m6.197 0a.464.464 0 1 1-.927-.001.464.464 0 0 1 .927.001m6.197 0a.463.463 0 0 1-.465.463.463.463 0 1 1 0-.926c.258 0 .465.208.465.463m6.197 0a.463.463 0 0 1-.464.463.463.463 0 1 1 0-.926c.257 0 .464.208.464.463m6.198 0a.464.464 0 0 1-.465.463.464.464 0 1 1 0-.926c.257 0 .465.208.465.463m-86.761 6.173a.464.464 0 0 1-.93 0 .465.465 0 0 1 .93 0m6.197 0a.463.463 0 0 1-.465.463.463.463 0 1 1 0-.926c.258 0 .465.208.465.463m6.197 0a.463.463 0 0 1-.464.463.463.463 0 1 1 0-.926c.257 0 .464.208.464.463m6.198 0a.464.464 0 0 1-.465.463.464.464 0 1 1 0-.926c.257 0 .465.208.465.463m6.197 0a.464.464 0 0 1-.465.463.464.464 0 1 1 0-.926c.257 0 .465.208.465.463m6.197 0a.464.464 0 0 1-.465.463.464.464 0 1 1 0-.926c.257 0 .465.208.465.463m6.197 0a.463.463 0 0 1-.465.463.463.463 0 1 1 0-.926c.258 0 .465.208.465.463m6.197 0a.463.463 0 0 1-.464.463.463.463 0 1 1 0-.926c.257 0 .464.208.464.463m6.198 0a.464.464 0 0 1-.465.463.464.464 0 1 1 0-.926c.257 0 .465.208.465.463m6.197 0a.464.464 0 0 1-.465.463.464.464 0 1 1 0-.926c.257 0 .465.208.465.463m6.197 0a.464.464 0 0 1-.465.463.464.464 0 1 1 0-.926c.257 0 .465.208.465.463m6.197 0a.464.464 0 1 1-.927-.001.464.464 0 0 1 .927.001m6.197 0a.463.463 0 0 1-.465.463.463.463 0 1 1 0-.926c.258 0 .465.208.465.463m6.197 0a.463.463 0 0 1-.464.463.463.463 0 1 1 0-.926c.257 0 .464.208.464.463m6.198 0a.464.464 0 0 1-.465.463.464.464 0 1 1 0-.926c.257 0 .465.208.465.463m-86.761 6.173a.464.464 0 0 1-.93 0 .464.464 0 0 1 .93 0m6.197 0a.463.463 0 0 1-.465.463.463.463 0 1 1 0-.926c.258 0 .465.207.465.463m6.197 0a.463.463 0 0 1-.464.463.463.463 0 1 1 0-.926c.257 0 .464.207.464.463m6.198 0a.464.464 0 0 1-.465.463.464.464 0 1 1 0-.926c.257 0 .465.207.465.463m6.197 0a.464.464 0 0 1-.465.463.464.464 0 1 1 0-.926c.257 0 .465.207.465.463m6.197 0a.464.464 0 0 1-.465.463.464.464 0 1 1 0-.926c.257 0 .465.207.465.463m6.197 0a.463.463 0 0 1-.465.463.463.463 0 1 1 0-.926c.258 0 .465.207.465.463m6.197 0a.463.463 0 0 1-.464.463.463.463 0 1 1 0-.926c.257 0 .464.207.464.463m6.198 0a.464.464 0 0 1-.465.463.464.464 0 1 1 0-.926c.257 0 .465.207.465.463m6.197 0a.464.464 0 0 1-.465.463.464.464 0 1 1 0-.926c.257 0 .465.207.465.463m6.197 0a.464.464 0 0 1-.465.463.464.464 0 1 1 0-.926c.257 0 .465.207.465.463m6.197 0a.464.464 0 1 1-.927-.001.464.464 0 0 1 .927.001m6.197 0a.463.463 0 0 1-.465.463.463.463 0 1 1 0-.926c.258 0 .465.207.465.463m6.197 0a.463.463 0 0 1-.464.463.463.463 0 1 1 0-.926c.257 0 .464.207.464.463m6.198 0a.464.464 0 0 1-.465.463.464.464 0 1 1 0-.926c.257 0 .465.207.465.463m-86.761 6.173a.464.464 0 0 1-.93 0 .464.464 0 0 1 .93 0m6.197 0a.464.464 0 1 1-.927-.001.464.464 0 0 1 .927.001m6.197 0a.463.463 0 1 1-.927-.001.463.463 0 0 1 .927.001m6.198 0a.464.464 0 0 1-.93 0c0-.256.208-.463.465-.463s.465.207.465.463m6.197 0a.464.464 0 0 1-.93 0c0-.256.208-.463.465-.463s.465.207.465.463m6.197 0a.464.464 0 0 1-.93 0c0-.256.208-.463.465-.463s.465.207.465.463m6.197 0a.464.464 0 1 1-.927-.001.464.464 0 0 1 .927.001m6.197 0a.463.463 0 1 1-.927-.001.463.463 0 0 1 .927.001m6.198 0a.464.464 0 0 1-.93 0c0-.256.208-.463.465-.463s.465.207.465.463m6.197 0a.464.464 0 0 1-.93 0c0-.256.208-.463.465-.463s.465.207.465.463m6.197 0a.464.464 0 0 1-.93 0c0-.256.208-.463.465-.463s.465.207.465.463m6.197 0a.464.464 0 0 1-.929 0 .464.464 0 0 1 .929 0m6.197 0a.464.464 0 1 1-.927-.001.464.464 0 0 1 .927.001m6.197 0a.463.463 0 1 1-.927-.001.463.463 0 0 1 .927.001m6.198 0a.464.464 0 0 1-.93 0c0-.256.208-.463.465-.463s.465.207.465.463m-86.761 6.173a.464.464 0 0 1-.93 0 .464.464 0 0 1 .93 0m6.197 0a.464.464 0 1 1-.927-.001.464.464 0 0 1 .927.001m6.197 0a.463.463 0 1 1-.927-.001.463.463 0 0 1 .927.001m6.198 0a.464.464 0 0 1-.93 0c0-.256.208-.463.465-.463s.465.207.465.463m6.197 0a.464.464 0 0 1-.93 0c0-.256.208-.463.465-.463s.465.207.465.463m6.197 0a.464.464 0 0 1-.93 0c0-.256.208-.463.465-.463s.465.207.465.463m6.197 0a.464.464 0 1 1-.927-.001.464.464 0 0 1 .927.001m6.197 0a.463.463 0 1 1-.927-.001.463.463 0 0 1 .927.001m6.198 0a.464.464 0 0 1-.93 0c0-.256.208-.463.465-.463s.465.207.465.463m6.197 0a.464.464 0 0 1-.93 0c0-.256.208-.463.465-.463s.465.207.465.463m6.197 0a.464.464 0 0 1-.93 0c0-.256.208-.463.465-.463s.465.207.465.463m6.197 0a.464.464 0 0 1-.929 0 .464.464 0 0 1 .929 0m6.197 0a.464.464 0 1 1-.927-.001.464.464 0 0 1 .927.001m6.197 0a.463.463 0 1 1-.927-.001.463.463 0 0 1 .927.001m6.198 0a.464.464 0 0 1-.93 0c0-.256.208-.463.465-.463s.465.207.465.463m-86.761 6.173a.464.464 0 0 1-.93 0 .464.464 0 0 1 .93 0m6.197 0a.464.464 0 1 1-.927-.001.464.464 0 0 1 .927.001m6.197 0a.463.463 0 1 1-.927-.001.463.463 0 0 1 .927.001m6.198 0a.464.464 0 0 1-.93 0c0-.256.208-.463.465-.463s.465.207.465.463m6.197 0a.464.464 0 0 1-.93 0c0-.256.208-.463.465-.463s.465.207.465.463m6.197 0a.464.464 0 0 1-.93 0c0-.256.208-.463.465-.463s.465.207.465.463m6.197 0a.464.464 0 1 1-.927-.001.464.464 0 0 1 .927.001m6.197 0a.463.463 0 1 1-.927-.001.463.463 0 0 1 .927.001m6.198 0a.464.464 0 0 1-.93 0c0-.256.208-.463.465-.463s.465.207.465.463m6.197 0a.464.464 0 0 1-.93 0c0-.256.208-.463.465-.463s.465.207.465.463m6.197 0a.464.464 0 0 1-.93 0c0-.256.208-.463.465-.463s.465.207.465.463m6.197 0a.464.464 0 0 1-.929 0 .464.464 0 0 1 .929 0m6.197 0a.464.464 0 1 1-.927-.001.464.464 0 0 1 .927.001m6.197 0a.463.463 0 1 1-.927-.001.463.463 0 0 1 .927.001m6.198 0a.464.464 0 0 1-.93 0c0-.256.208-.463.465-.463s.465.207.465.463m6.197-67.902a.464.464 0 0 1-.465.463.464.464 0 1 1 0-.926c.257 0 .465.208.465.463m6.197 0a.464.464 0 0 1-.465.463.464.464 0 1 1 0-.926c.257 0 .465.208.465.463m-6.197 6.173a.464.464 0 0 1-.465.463.464.464 0 1 1 0-.926c.257 0 .465.208.465.463m6.197 0a.464.464 0 0 1-.465.463.464.464 0 1 1 0-.926c.257 0 .465.208.465.463m-6.197 6.173a.464.464 0 0 1-.465.463.464.464 0 1 1 0-.926c.257 0 .465.207.465.463m6.197 0a.464.464 0 0 1-.465.463.464.464 0 1 1 0-.926c.257 0 .465.207.465.463m-6.197 6.173a.464.464 0 0 1-.93 0c0-.256.208-.463.465-.463s.465.207.465.463m6.197 0a.464.464 0 0 1-.93 0c0-.256.208-.463.465-.463s.465.207.465.463m-6.197 6.173a.464.464 0 0 1-.93 0c0-.256.208-.463.465-.463s.465.207.465.463m6.197 0a.464.464 0 0 1-.93 0c0-.256.208-.463.465-.463s.465.207.465.463m-6.197 6.173a.463.463 0 0 1-.465.462.463.463 0 1 1 0-.925c.257 0 .465.207.465.463m6.197 0a.463.463 0 0 1-.465.462.463.463 0 1 1 0-.925c.257 0 .465.207.465.463m-6.197 6.172a.464.464 0 0 1-.465.463.464.464 0 1 1 0-.926c.257 0 .465.208.465.463m6.197 0a.464.464 0 0 1-.465.463.464.464 0 1 1 0-.926c.257 0 .465.208.465.463m-6.197 6.173a.464.464 0 0 1-.465.463.464.464 0 1 1 0-.926c.257 0 .465.208.465.463m6.197 0a.464.464 0 0 1-.465.463.464.464 0 1 1 0-.926c.257 0 .465.208.465.463m-6.197 6.173a.464.464 0 0 1-.465.463.464.464 0 1 1 0-.926c.257 0 .465.207.465.463m6.197 0a.464.464 0 0 1-.465.463.464.464 0 1 1 0-.926c.257 0 .465.207.465.463m-6.197 6.173a.464.464 0 0 1-.93 0c0-.256.208-.463.465-.463s.465.207.465.463m6.197 0a.464.464 0 0 1-.93 0c0-.256.208-.463.465-.463s.465.207.465.463m-6.197 6.173a.464.464 0 0 1-.93 0c0-.256.208-.463.465-.463s.465.207.465.463m6.197 0a.464.464 0 0 1-.93 0c0-.256.208-.463.465-.463s.465.207.465.463m-6.197 6.173a.464.464 0 0 1-.93 0c0-.256.208-.463.465-.463s.465.207.465.463m6.197 0a.464.464 0 0 1-.93 0c0-.256.208-.463.465-.463s.465.207.465.463m-192.113 6.172a.463.463 0 1 1-.927-.001.463.463 0 0 1 .927.001m6.198 0a.464.464 0 0 1-.93 0 .464.464 0 0 1 .93 0m6.197 0a.464.464 0 0 1-.93 0 .464.464 0 0 1 .93 0m6.197 0a.464.464 0 0 1-.93 0 .465.465 0 0 1 .93 0m6.197 0a.464.464 0 0 1-.93 0 .465.465 0 0 1 .93 0m6.197 0a.464.464 0 1 1-.927-.001.464.464 0 0 1 .927.001m6.197 0a.463.463 0 1 1-.927-.001.463.463 0 0 1 .927.001m6.198 0a.464.464 0 0 1-.93 0 .464.464 0 0 1 .93 0m6.197 0a.464.464 0 0 1-.465.463.464.464 0 1 1 0-.926c.257 0 .465.208.465.463m6.197 0a.464.464 0 0 1-.93 0 .465.465 0 0 1 .93 0m6.197 0a.464.464 0 1 1-.927-.001.464.464 0 0 1 .927.001m6.197 0a.463.463 0 1 1-.927-.001.463.463 0 0 1 .927.001m6.198 0a.464.464 0 0 1-.93 0 .464.464 0 0 1 .93 0m6.197 0a.464.464 0 0 1-.93 0 .464.464 0 0 1 .93 0m6.197 0a.464.464 0 0 1-.93 0 .465.465 0 0 1 .93 0m6.197 0a.464.464 0 0 1-.93 0 .465.465 0 0 1 .93 0m6.197 0a.463.463 0 0 1-.465.463.463.463 0 1 1 0-.926c.258 0 .465.208.465.463m6.197 0a.463.463 0 0 1-.464.463.463.463 0 1 1 0-.926c.257 0 .464.208.464.463m6.198 0a.464.464 0 0 1-.465.463.464.464 0 1 1 0-.926c.257 0 .465.208.465.463m6.197 0a.464.464 0 0 1-.465.463.464.464 0 1 1 0-.926c.257 0 .465.208.465.463m6.197 0a.464.464 0 0 1-.465.463.464.464 0 1 1 0-.926c.257 0 .465.208.465.463m6.197 0a.463.463 0 0 1-.465.463.463.463 0 1 1 0-.926c.258 0 .465.208.465.463m6.197 0a.463.463 0 0 1-.464.463.463.463 0 1 1 0-.926c.257 0 .464.208.464.463m6.198 0a.464.464 0 0 1-.465.463.464.464 0 1 1 0-.926c.257 0 .465.208.465.463m6.197 0a.464.464 0 0 1-.465.463.464.464 0 1 1 0-.926c.257 0 .465.208.465.463m6.197 0a.464.464 0 0 1-.465.463.464.464 0 1 1 0-.926c.257 0 .465.208.465.463m6.197 0a.464.464 0 1 1-.927-.001.464.464 0 0 1 .927.001m6.197 0a.463.463 0 0 1-.465.463.463.463 0 1 1 0-.926c.258 0 .465.208.465.463m6.197 0a.463.463 0 0 1-.464.463.463.463 0 1 1 0-.926c.257 0 .464.208.464.463m6.198 0a.464.464 0 0 1-.465.463.464.464 0 1 1 0-.926c.257 0 .465.208.465.463m6.197 0a.464.464 0 0 1-.465.463.464.464 0 1 1 0-.926c.257 0 .465.208.465.463m6.197 0a.464.464 0 0 1-.465.463.464.464 0 1 1 0-.926c.257 0 .465.208.465.463"/></g></svg>