<svg xmlns="http://www.w3.org/2000/svg" width="1403" height="383" fill="none"><g opacity=".4"><path fill="#292D34" d="M3 1.5a1.5 1.5 0 1 1-3 0 1.5 1.5 0 0 1 3 0m20 0a1.5 1.5 0 1 1-3 0 1.5 1.5 0 0 1 3 0m20 0a1.5 1.5 0 1 1-3.001-.001A1.5 1.5 0 0 1 43 1.5m20 0a1.5 1.5 0 1 1-3.001-.001A1.5 1.5 0 0 1 63 1.5m20 0a1.5 1.5 0 1 1-3.001-.001A1.5 1.5 0 0 1 83 1.5m20 0a1.5 1.5 0 1 1-3.001-.001A1.5 1.5 0 0 1 103 1.5m20 0a1.5 1.5 0 1 1-3.001-.001A1.5 1.5 0 0 1 123 1.5m20 0a1.5 1.5 0 1 1-3.001-.001A1.5 1.5 0 0 1 143 1.5m20 0a1.5 1.5 0 1 1-3.001-.001A1.5 1.5 0 0 1 163 1.5m20 0a1.5 1.5 0 1 1-3.001-.001A1.5 1.5 0 0 1 183 1.5m20 0a1.5 1.5 0 1 1-3.001-.001A1.5 1.5 0 0 1 203 1.5M3 21.5a1.5 1.5 0 1 1-3 0 1.5 1.5 0 0 1 3 0m20 0a1.5 1.5 0 1 1-3 0 1.5 1.5 0 0 1 3 0m20 0a1.5 1.5 0 1 1-3.001-.001A1.5 1.5 0 0 1 43 21.5m20 0a1.5 1.5 0 1 1-3.001-.001A1.5 1.5 0 0 1 63 21.5m20 0a1.5 1.5 0 1 1-3.001-.001A1.5 1.5 0 0 1 83 21.5m20 0a1.5 1.5 0 1 1-3.001-.001A1.5 1.5 0 0 1 103 21.5m20 0a1.5 1.5 0 1 1-3.001-.001A1.5 1.5 0 0 1 123 21.5m20 0a1.5 1.5 0 1 1-3.001-.001A1.5 1.5 0 0 1 143 21.5m20 0a1.5 1.5 0 1 1-3.001-.001A1.5 1.5 0 0 1 163 21.5m20 0a1.5 1.5 0 1 1-3.001-.001A1.5 1.5 0 0 1 183 21.5m20 0a1.5 1.5 0 1 1-3.001-.001A1.5 1.5 0 0 1 203 21.5M3 41.5a1.5 1.5 0 1 1-3 0 1.5 1.5 0 0 1 3 0m20 0a1.5 1.5 0 1 1-3 0 1.5 1.5 0 0 1 3 0m20 0a1.5 1.5 0 1 1-3.001-.001A1.5 1.5 0 0 1 43 41.5m20 0a1.5 1.5 0 1 1-3.001-.001A1.5 1.5 0 0 1 63 41.5m20 0a1.5 1.5 0 1 1-3.001-.001A1.5 1.5 0 0 1 83 41.5m20 0a1.5 1.5 0 1 1-3.001-.001A1.5 1.5 0 0 1 103 41.5m20 0a1.5 1.5 0 1 1-3.001-.001A1.5 1.5 0 0 1 123 41.5m20 0a1.5 1.5 0 1 1-3.001-.001A1.5 1.5 0 0 1 143 41.5m20 0a1.5 1.5 0 1 1-3.001-.001A1.5 1.5 0 0 1 163 41.5m20 0a1.5 1.5 0 1 1-3.001-.001A1.5 1.5 0 0 1 183 41.5m20 0a1.5 1.5 0 1 1-3.001-.001A1.5 1.5 0 0 1 203 41.5M3 61.5a1.5 1.5 0 1 1-3 0 1.5 1.5 0 0 1 3 0m20 0a1.5 1.5 0 1 1-3 0 1.5 1.5 0 0 1 3 0m20 0a1.5 1.5 0 1 1-3.001-.001A1.5 1.5 0 0 1 43 61.5m20 0a1.5 1.5 0 1 1-3.001-.001A1.5 1.5 0 0 1 63 61.5m20 0a1.5 1.5 0 1 1-3.001-.001A1.5 1.5 0 0 1 83 61.5m20 0a1.5 1.5 0 1 1-3.001-.001A1.5 1.5 0 0 1 103 61.5m20 0a1.5 1.5 0 1 1-3.001-.001A1.5 1.5 0 0 1 123 61.5m20 0a1.5 1.5 0 1 1-3.001-.001A1.5 1.5 0 0 1 143 61.5m20 0a1.5 1.5 0 1 1-3.001-.001A1.5 1.5 0 0 1 163 61.5m20 0a1.5 1.5 0 1 1-3.001-.001A1.5 1.5 0 0 1 183 61.5m20 0a1.5 1.5 0 1 1-3.001-.001A1.5 1.5 0 0 1 203 61.5M3 81.5a1.5 1.5 0 1 1-3 0 1.5 1.5 0 0 1 3 0m20 0a1.5 1.5 0 1 1-3 0 1.5 1.5 0 0 1 3 0m20 0a1.5 1.5 0 1 1-3.001-.001A1.5 1.5 0 0 1 43 81.5m20 0a1.5 1.5 0 1 1-3.001-.001A1.5 1.5 0 0 1 63 81.5m20 0a1.5 1.5 0 1 1-3.001-.001A1.5 1.5 0 0 1 83 81.5m20 0a1.5 1.5 0 1 1-3.001-.001A1.5 1.5 0 0 1 103 81.5m20 0a1.5 1.5 0 1 1-3.001-.001A1.5 1.5 0 0 1 123 81.5m20 0a1.5 1.5 0 1 1-3.001-.001A1.5 1.5 0 0 1 143 81.5m20 0a1.5 1.5 0 1 1-3.001-.001A1.5 1.5 0 0 1 163 81.5m20 0a1.5 1.5 0 1 1-3.001-.001A1.5 1.5 0 0 1 183 81.5m20 0a1.5 1.5 0 1 1-3.001-.001A1.5 1.5 0 0 1 203 81.5m-200 20a1.5 1.5 0 1 1-3 0 1.5 1.5 0 0 1 3 0m20 0a1.5 1.5 0 1 1-3 0 1.5 1.5 0 0 1 3 0m20 0a1.5 1.5 0 1 1-3.001-.001A1.5 1.5 0 0 1 43 101.5m20 0a1.5 1.5 0 1 1-3.001-.001A1.5 1.5 0 0 1 63 101.5m20 0a1.5 1.5 0 1 1-3.001-.001A1.5 1.5 0 0 1 83 101.5m20 0a1.5 1.5 0 1 1-3.001-.001 1.5 1.5 0 0 1 3.001.001m20 0a1.5 1.5 0 1 1-3.001-.001 1.5 1.5 0 0 1 3.001.001m20 0a1.5 1.5 0 1 1-3.001-.001 1.5 1.5 0 0 1 3.001.001m20 0a1.5 1.5 0 1 1-3.001-.001 1.5 1.5 0 0 1 3.001.001m20 0a1.5 1.5 0 1 1-3.001-.001 1.5 1.5 0 0 1 3.001.001m20 0a1.5 1.5 0 1 1-3.001-.001 1.5 1.5 0 0 1 3.001.001m-200 20a1.5 1.5 0 1 1-3 0 1.5 1.5 0 0 1 3 0m20 0a1.5 1.5 0 1 1-3 0 1.5 1.5 0 0 1 3 0m20 0a1.5 1.5 0 1 1-3.001-.001A1.5 1.5 0 0 1 43 121.5m20 0a1.5 1.5 0 1 1-3.001-.001A1.5 1.5 0 0 1 63 121.5m20 0a1.5 1.5 0 1 1-3.001-.001A1.5 1.5 0 0 1 83 121.5m20 0a1.5 1.5 0 1 1-3.001-.001 1.5 1.5 0 0 1 3.001.001m20 0a1.5 1.5 0 1 1-3.001-.001 1.5 1.5 0 0 1 3.001.001m20 0a1.5 1.5 0 1 1-3.001-.001 1.5 1.5 0 0 1 3.001.001m20 0a1.5 1.5 0 1 1-3.001-.001 1.5 1.5 0 0 1 3.001.001m20 0a1.5 1.5 0 1 1-3.001-.001 1.5 1.5 0 0 1 3.001.001m20 0a1.5 1.5 0 1 1-3.001-.001 1.5 1.5 0 0 1 3.001.001m-200 20a1.5 1.5 0 1 1-3 0 1.5 1.5 0 0 1 3 0m20 0a1.5 1.5 0 1 1-3 0 1.5 1.5 0 0 1 3 0m20 0a1.5 1.5 0 1 1-3.001-.001A1.5 1.5 0 0 1 43 141.5m20 0a1.5 1.5 0 1 1-3.001-.001A1.5 1.5 0 0 1 63 141.5m20 0a1.5 1.5 0 1 1-3.001-.001A1.5 1.5 0 0 1 83 141.5m20 0a1.5 1.5 0 1 1-3.001-.001 1.5 1.5 0 0 1 3.001.001m20 0a1.5 1.5 0 1 1-3.001-.001 1.5 1.5 0 0 1 3.001.001m20 0a1.5 1.5 0 1 1-3.001-.001 1.5 1.5 0 0 1 3.001.001m20 0a1.5 1.5 0 1 1-3.001-.001 1.5 1.5 0 0 1 3.001.001m20 0a1.5 1.5 0 1 1-3.001-.001 1.5 1.5 0 0 1 3.001.001m20 0a1.5 1.5 0 1 1-3.001-.001 1.5 1.5 0 0 1 3.001.001m-200 20a1.5 1.5 0 1 1-3 0 1.5 1.5 0 0 1 3 0m20 0a1.5 1.5 0 1 1-3 0 1.5 1.5 0 0 1 3 0m20 0a1.5 1.5 0 1 1-3.001-.001A1.5 1.5 0 0 1 43 161.5m20 0a1.5 1.5 0 1 1-3.001-.001A1.5 1.5 0 0 1 63 161.5m20 0a1.5 1.5 0 1 1-3.001-.001A1.5 1.5 0 0 1 83 161.5m20 0a1.5 1.5 0 1 1-3.001-.001 1.5 1.5 0 0 1 3.001.001m20 0a1.5 1.5 0 1 1-3.001-.001 1.5 1.5 0 0 1 3.001.001m20 0a1.5 1.5 0 1 1-3.001-.001 1.5 1.5 0 0 1 3.001.001m20 0a1.5 1.5 0 1 1-3.001-.001 1.5 1.5 0 0 1 3.001.001m20 0a1.5 1.5 0 1 1-3.001-.001 1.5 1.5 0 0 1 3.001.001m20 0a1.5 1.5 0 1 1-3.001-.001 1.5 1.5 0 0 1 3.001.001m-200 20a1.5 1.5 0 1 1-3 0 1.5 1.5 0 0 1 3 0m20 0a1.5 1.5 0 1 1-3 0 1.5 1.5 0 0 1 3 0m20 0a1.5 1.5 0 1 1-3.001-.001A1.5 1.5 0 0 1 43 181.5m20 0a1.5 1.5 0 1 1-3.001-.001A1.5 1.5 0 0 1 63 181.5m20 0a1.5 1.5 0 1 1-3.001-.001A1.5 1.5 0 0 1 83 181.5m20 0a1.5 1.5 0 1 1-3.001-.001 1.5 1.5 0 0 1 3.001.001m20 0a1.5 1.5 0 1 1-3.001-.001 1.5 1.5 0 0 1 3.001.001m20 0a1.5 1.5 0 1 1-3.001-.001 1.5 1.5 0 0 1 3.001.001m20 0a1.5 1.5 0 1 1-3.001-.001 1.5 1.5 0 0 1 3.001.001m20 0a1.5 1.5 0 1 1-3.001-.001 1.5 1.5 0 0 1 3.001.001m20 0a1.5 1.5 0 1 1-3.001-.001 1.5 1.5 0 0 1 3.001.001m-200 20a1.5 1.5 0 1 1-3 0 1.5 1.5 0 0 1 3 0m20 0a1.5 1.5 0 1 1-3 0 1.5 1.5 0 0 1 3 0m20 0a1.5 1.5 0 1 1-3.001-.001A1.5 1.5 0 0 1 43 201.5m20 0a1.5 1.5 0 1 1-3.001-.001A1.5 1.5 0 0 1 63 201.5m20 0a1.5 1.5 0 1 1-3.001-.001A1.5 1.5 0 0 1 83 201.5m20 0a1.5 1.5 0 1 1-3.001-.001 1.5 1.5 0 0 1 3.001.001m20 0a1.5 1.5 0 1 1-3.001-.001 1.5 1.5 0 0 1 3.001.001m20 0a1.5 1.5 0 1 1-3.001-.001 1.5 1.5 0 0 1 3.001.001m20 0a1.5 1.5 0 1 1-3.001-.001 1.5 1.5 0 0 1 3.001.001m20 0a1.5 1.5 0 1 1-3.001-.001 1.5 1.5 0 0 1 3.001.001m20 0a1.5 1.5 0 1 1-3.001-.001 1.5 1.5 0 0 1 3.001.001m-200 20a1.5 1.5 0 1 1-3 0 1.5 1.5 0 0 1 3 0m20 0a1.5 1.5 0 1 1-3 0 1.5 1.5 0 0 1 3 0m20 0a1.5 1.5 0 1 1-3.001-.001A1.5 1.5 0 0 1 43 221.5m20 0a1.5 1.5 0 1 1-3.001-.001A1.5 1.5 0 0 1 63 221.5m20 0a1.5 1.5 0 1 1-3.001-.001A1.5 1.5 0 0 1 83 221.5m20 0a1.5 1.5 0 1 1-3.001-.001 1.5 1.5 0 0 1 3.001.001m20 0a1.5 1.5 0 1 1-3.001-.001 1.5 1.5 0 0 1 3.001.001m20 0a1.5 1.5 0 1 1-3.001-.001 1.5 1.5 0 0 1 3.001.001m20 0a1.5 1.5 0 1 1-3.001-.001 1.5 1.5 0 0 1 3.001.001m20 0a1.5 1.5 0 1 1-3.001-.001 1.5 1.5 0 0 1 3.001.001m20 0a1.5 1.5 0 1 1-3.001-.001 1.5 1.5 0 0 1 3.001.001m20-220a1.5 1.5 0 1 1-3.001-.001A1.5 1.5 0 0 1 223 1.5m20 0a1.5 1.5 0 1 1-3.001-.001A1.5 1.5 0 0 1 243 1.5m20 0a1.5 1.5 0 1 1-3.001-.001A1.5 1.5 0 0 1 263 1.5m20 0a1.5 1.5 0 1 1-3.001-.001A1.5 1.5 0 0 1 283 1.5m20 0a1.5 1.5 0 1 1-3.001-.001A1.5 1.5 0 0 1 303 1.5m20 0a1.5 1.5 0 1 1-3.001-.001A1.5 1.5 0 0 1 323 1.5m20 0a1.5 1.5 0 1 1-3.001-.001A1.5 1.5 0 0 1 343 1.5m20 0a1.5 1.5 0 1 1-3.001-.001A1.5 1.5 0 0 1 363 1.5m20 0a1.5 1.5 0 1 1-3.001-.001A1.5 1.5 0 0 1 383 1.5m20 0a1.5 1.5 0 1 1-3.001-.001A1.5 1.5 0 0 1 403 1.5m20 0a1.5 1.5 0 1 1-3.001-.001A1.5 1.5 0 0 1 423 1.5m20 0a1.5 1.5 0 1 1-3.001-.001A1.5 1.5 0 0 1 443 1.5m20 0a1.5 1.5 0 1 1-3.001-.001A1.5 1.5 0 0 1 463 1.5m20 0a1.5 1.5 0 1 1-3.001-.001A1.5 1.5 0 0 1 483 1.5m20 0a1.5 1.5 0 1 1-3.001-.001A1.5 1.5 0 0 1 503 1.5m-280 20a1.5 1.5 0 1 1-3.001-.001A1.5 1.5 0 0 1 223 21.5m20 0a1.5 1.5 0 1 1-3.001-.001A1.5 1.5 0 0 1 243 21.5m20 0a1.5 1.5 0 1 1-3.001-.001A1.5 1.5 0 0 1 263 21.5m20 0a1.5 1.5 0 1 1-3.001-.001A1.5 1.5 0 0 1 283 21.5m20 0a1.5 1.5 0 1 1-3.001-.001A1.5 1.5 0 0 1 303 21.5m20 0a1.5 1.5 0 1 1-3.001-.001A1.5 1.5 0 0 1 323 21.5m20 0a1.5 1.5 0 1 1-3.001-.001A1.5 1.5 0 0 1 343 21.5m20 0a1.5 1.5 0 1 1-3.001-.001A1.5 1.5 0 0 1 363 21.5m20 0a1.5 1.5 0 1 1-3.001-.001A1.5 1.5 0 0 1 383 21.5m20 0a1.5 1.5 0 1 1-3.001-.001A1.5 1.5 0 0 1 403 21.5m20 0a1.5 1.5 0 1 1-3.001-.001A1.5 1.5 0 0 1 423 21.5m20 0a1.5 1.5 0 1 1-3.001-.001A1.5 1.5 0 0 1 443 21.5m20 0a1.5 1.5 0 1 1-3.001-.001A1.5 1.5 0 0 1 463 21.5m20 0a1.5 1.5 0 1 1-3.001-.001A1.5 1.5 0 0 1 483 21.5m20 0a1.5 1.5 0 1 1-3.001-.001A1.5 1.5 0 0 1 503 21.5m-280 20a1.5 1.5 0 1 1-3.001-.001A1.5 1.5 0 0 1 223 41.5m20 0a1.5 1.5 0 1 1-3.001-.001A1.5 1.5 0 0 1 243 41.5m20 0a1.5 1.5 0 1 1-3.001-.001A1.5 1.5 0 0 1 263 41.5m20 0a1.5 1.5 0 1 1-3.001-.001A1.5 1.5 0 0 1 283 41.5m20 0a1.5 1.5 0 1 1-3.001-.001A1.5 1.5 0 0 1 303 41.5m20 0a1.5 1.5 0 1 1-3.001-.001A1.5 1.5 0 0 1 323 41.5m20 0a1.5 1.5 0 1 1-3.001-.001A1.5 1.5 0 0 1 343 41.5m20 0a1.5 1.5 0 1 1-3.001-.001A1.5 1.5 0 0 1 363 41.5m20 0a1.5 1.5 0 1 1-3.001-.001A1.5 1.5 0 0 1 383 41.5m20 0a1.5 1.5 0 1 1-3.001-.001A1.5 1.5 0 0 1 403 41.5m20 0a1.5 1.5 0 1 1-3.001-.001A1.5 1.5 0 0 1 423 41.5m20 0a1.5 1.5 0 1 1-3.001-.001A1.5 1.5 0 0 1 443 41.5m20 0a1.5 1.5 0 1 1-3.001-.001A1.5 1.5 0 0 1 463 41.5m20 0a1.5 1.5 0 1 1-3.001-.001A1.5 1.5 0 0 1 483 41.5m20 0a1.5 1.5 0 1 1-3.001-.001A1.5 1.5 0 0 1 503 41.5m-280 20a1.5 1.5 0 1 1-3.001-.001A1.5 1.5 0 0 1 223 61.5m20 0a1.5 1.5 0 1 1-3.001-.001A1.5 1.5 0 0 1 243 61.5m20 0a1.5 1.5 0 1 1-3.001-.001A1.5 1.5 0 0 1 263 61.5m20 0a1.5 1.5 0 1 1-3.001-.001A1.5 1.5 0 0 1 283 61.5m20 0a1.5 1.5 0 1 1-3.001-.001A1.5 1.5 0 0 1 303 61.5m20 0a1.5 1.5 0 1 1-3.001-.001A1.5 1.5 0 0 1 323 61.5m20 0a1.5 1.5 0 1 1-3.001-.001A1.5 1.5 0 0 1 343 61.5m20 0a1.5 1.5 0 1 1-3.001-.001A1.5 1.5 0 0 1 363 61.5m20 0a1.5 1.5 0 1 1-3.001-.001A1.5 1.5 0 0 1 383 61.5m20 0a1.5 1.5 0 1 1-3.001-.001A1.5 1.5 0 0 1 403 61.5m20 0a1.5 1.5 0 1 1-3.001-.001A1.5 1.5 0 0 1 423 61.5m20 0a1.5 1.5 0 1 1-3.001-.001A1.5 1.5 0 0 1 443 61.5m20 0a1.5 1.5 0 1 1-3.001-.001A1.5 1.5 0 0 1 463 61.5m20 0a1.5 1.5 0 1 1-3.001-.001A1.5 1.5 0 0 1 483 61.5m20 0a1.5 1.5 0 1 1-3.001-.001A1.5 1.5 0 0 1 503 61.5m-280 20a1.5 1.5 0 1 1-3.001-.001A1.5 1.5 0 0 1 223 81.5m20 0a1.5 1.5 0 1 1-3.001-.001A1.5 1.5 0 0 1 243 81.5m20 0a1.5 1.5 0 1 1-3.001-.001A1.5 1.5 0 0 1 263 81.5m20 0a1.5 1.5 0 1 1-3.001-.001A1.5 1.5 0 0 1 283 81.5m20 0a1.5 1.5 0 1 1-3.001-.001A1.5 1.5 0 0 1 303 81.5m20 0a1.5 1.5 0 1 1-3.001-.001A1.5 1.5 0 0 1 323 81.5m20 0a1.5 1.5 0 1 1-3.001-.001A1.5 1.5 0 0 1 343 81.5m20 0a1.5 1.5 0 1 1-3.001-.001A1.5 1.5 0 0 1 363 81.5m20 0a1.5 1.5 0 1 1-3.001-.001A1.5 1.5 0 0 1 383 81.5m20 0a1.5 1.5 0 1 1-3.001-.001A1.5 1.5 0 0 1 403 81.5m20 0a1.5 1.5 0 1 1-3.001-.001A1.5 1.5 0 0 1 423 81.5m20 0a1.5 1.5 0 1 1-3.001-.001A1.5 1.5 0 0 1 443 81.5m20 0a1.5 1.5 0 1 1-3.001-.001A1.5 1.5 0 0 1 463 81.5m20 0a1.5 1.5 0 1 1-3.001-.001A1.5 1.5 0 0 1 483 81.5m20 0a1.5 1.5 0 1 1-3.001-.001A1.5 1.5 0 0 1 503 81.5m-280 20a1.5 1.5 0 1 1-3.001-.001 1.5 1.5 0 0 1 3.001.001m20 0a1.5 1.5 0 1 1-3.001-.001 1.5 1.5 0 0 1 3.001.001m20 0a1.5 1.5 0 1 1-3.001-.001 1.5 1.5 0 0 1 3.001.001m20 0a1.5 1.5 0 1 1-3.001-.001 1.5 1.5 0 0 1 3.001.001m20 0a1.5 1.5 0 1 1-3.001-.001 1.5 1.5 0 0 1 3.001.001m20 0a1.5 1.5 0 1 1-3.001-.001 1.5 1.5 0 0 1 3.001.001m20 0a1.5 1.5 0 1 1-3.001-.001 1.5 1.5 0 0 1 3.001.001m20 0a1.5 1.5 0 1 1-3.001-.001 1.5 1.5 0 0 1 3.001.001m20 0a1.5 1.5 0 1 1-3.001-.001 1.5 1.5 0 0 1 3.001.001m20 0a1.5 1.5 0 1 1-3.001-.001 1.5 1.5 0 0 1 3.001.001m20 0a1.5 1.5 0 1 1-3.001-.001 1.5 1.5 0 0 1 3.001.001m20 0a1.5 1.5 0 1 1-3.001-.001 1.5 1.5 0 0 1 3.001.001m20 0a1.5 1.5 0 1 1-3.001-.001 1.5 1.5 0 0 1 3.001.001m20 0a1.5 1.5 0 1 1-3.001-.001 1.5 1.5 0 0 1 3.001.001m20 0a1.5 1.5 0 1 1-3.001-.001 1.5 1.5 0 0 1 3.001.001m-280 20a1.5 1.5 0 1 1-3.001-.001 1.5 1.5 0 0 1 3.001.001m20 0a1.5 1.5 0 1 1-3.001-.001 1.5 1.5 0 0 1 3.001.001m20 0a1.5 1.5 0 1 1-3.001-.001 1.5 1.5 0 0 1 3.001.001m20 0a1.5 1.5 0 1 1-3.001-.001 1.5 1.5 0 0 1 3.001.001m20 0a1.5 1.5 0 1 1-3.001-.001 1.5 1.5 0 0 1 3.001.001m20 0a1.5 1.5 0 1 1-3.001-.001 1.5 1.5 0 0 1 3.001.001m20 0a1.5 1.5 0 1 1-3.001-.001 1.5 1.5 0 0 1 3.001.001m20 0a1.5 1.5 0 1 1-3.001-.001 1.5 1.5 0 0 1 3.001.001m20 0a1.5 1.5 0 1 1-3.001-.001 1.5 1.5 0 0 1 3.001.001m20 0a1.5 1.5 0 1 1-3.001-.001 1.5 1.5 0 0 1 3.001.001m20 0a1.5 1.5 0 1 1-3.001-.001 1.5 1.5 0 0 1 3.001.001m20 0a1.5 1.5 0 1 1-3.001-.001 1.5 1.5 0 0 1 3.001.001m20 0a1.5 1.5 0 1 1-3.001-.001 1.5 1.5 0 0 1 3.001.001m20 0a1.5 1.5 0 1 1-3.001-.001 1.5 1.5 0 0 1 3.001.001m20 0a1.5 1.5 0 1 1-3.001-.001 1.5 1.5 0 0 1 3.001.001m-280 20a1.5 1.5 0 1 1-3.001-.001 1.5 1.5 0 0 1 3.001.001m20 0a1.5 1.5 0 1 1-3.001-.001 1.5 1.5 0 0 1 3.001.001m20 0a1.5 1.5 0 1 1-3.001-.001 1.5 1.5 0 0 1 3.001.001m20 0a1.5 1.5 0 1 1-3.001-.001 1.5 1.5 0 0 1 3.001.001m20 0a1.5 1.5 0 1 1-3.001-.001 1.5 1.5 0 0 1 3.001.001m20 0a1.5 1.5 0 1 1-3.001-.001 1.5 1.5 0 0 1 3.001.001m20 0a1.5 1.5 0 1 1-3.001-.001 1.5 1.5 0 0 1 3.001.001m20 0a1.5 1.5 0 1 1-3.001-.001 1.5 1.5 0 0 1 3.001.001m20 0a1.5 1.5 0 1 1-3.001-.001 1.5 1.5 0 0 1 3.001.001m20 0a1.5 1.5 0 1 1-3.001-.001 1.5 1.5 0 0 1 3.001.001m20 0a1.5 1.5 0 1 1-3.001-.001 1.5 1.5 0 0 1 3.001.001m20 0a1.5 1.5 0 1 1-3.001-.001 1.5 1.5 0 0 1 3.001.001m20 0a1.5 1.5 0 1 1-3.001-.001 1.5 1.5 0 0 1 3.001.001m20 0a1.5 1.5 0 1 1-3.001-.001 1.5 1.5 0 0 1 3.001.001m20 0a1.5 1.5 0 1 1-3.001-.001 1.5 1.5 0 0 1 3.001.001m-280 20a1.5 1.5 0 1 1-3.001-.001 1.5 1.5 0 0 1 3.001.001m20 0a1.5 1.5 0 1 1-3.001-.001 1.5 1.5 0 0 1 3.001.001m20 0a1.5 1.5 0 1 1-3.001-.001 1.5 1.5 0 0 1 3.001.001m20 0a1.5 1.5 0 1 1-3.001-.001 1.5 1.5 0 0 1 3.001.001m20 0a1.5 1.5 0 1 1-3.001-.001 1.5 1.5 0 0 1 3.001.001m20 0a1.5 1.5 0 1 1-3.001-.001 1.5 1.5 0 0 1 3.001.001m20 0a1.5 1.5 0 1 1-3.001-.001 1.5 1.5 0 0 1 3.001.001m20 0a1.5 1.5 0 1 1-3.001-.001 1.5 1.5 0 0 1 3.001.001m20 0a1.5 1.5 0 1 1-3.001-.001 1.5 1.5 0 0 1 3.001.001m20 0a1.5 1.5 0 1 1-3.001-.001 1.5 1.5 0 0 1 3.001.001m20 0a1.5 1.5 0 1 1-3.001-.001 1.5 1.5 0 0 1 3.001.001m20 0a1.5 1.5 0 1 1-3.001-.001 1.5 1.5 0 0 1 3.001.001m20 0a1.5 1.5 0 1 1-3.001-.001 1.5 1.5 0 0 1 3.001.001m20 0a1.5 1.5 0 1 1-3.001-.001 1.5 1.5 0 0 1 3.001.001m20 0a1.5 1.5 0 1 1-3.001-.001 1.5 1.5 0 0 1 3.001.001m-280 20a1.5 1.5 0 1 1-3.001-.001 1.5 1.5 0 0 1 3.001.001m20 0a1.5 1.5 0 1 1-3.001-.001 1.5 1.5 0 0 1 3.001.001m20 0a1.5 1.5 0 1 1-3.001-.001 1.5 1.5 0 0 1 3.001.001m20 0a1.5 1.5 0 1 1-3.001-.001 1.5 1.5 0 0 1 3.001.001m20 0a1.5 1.5 0 1 1-3.001-.001 1.5 1.5 0 0 1 3.001.001m20 0a1.5 1.5 0 1 1-3.001-.001 1.5 1.5 0 0 1 3.001.001m20 0a1.5 1.5 0 1 1-3.001-.001 1.5 1.5 0 0 1 3.001.001m20 0a1.5 1.5 0 1 1-3.001-.001 1.5 1.5 0 0 1 3.001.001m20 0a1.5 1.5 0 1 1-3.001-.001 1.5 1.5 0 0 1 3.001.001m20 0a1.5 1.5 0 1 1-3.001-.001 1.5 1.5 0 0 1 3.001.001m20 0a1.5 1.5 0 1 1-3.001-.001 1.5 1.5 0 0 1 3.001.001m20 0a1.5 1.5 0 1 1-3.001-.001 1.5 1.5 0 0 1 3.001.001m20 0a1.5 1.5 0 1 1-3.001-.001 1.5 1.5 0 0 1 3.001.001m20 0a1.5 1.5 0 1 1-3.001-.001 1.5 1.5 0 0 1 3.001.001m20 0a1.5 1.5 0 1 1-3.001-.001 1.5 1.5 0 0 1 3.001.001m-280 20a1.5 1.5 0 1 1-3.001-.001 1.5 1.5 0 0 1 3.001.001m20 0a1.5 1.5 0 1 1-3.001-.001 1.5 1.5 0 0 1 3.001.001m20 0a1.5 1.5 0 1 1-3.001-.001 1.5 1.5 0 0 1 3.001.001m20 0a1.5 1.5 0 1 1-3.001-.001 1.5 1.5 0 0 1 3.001.001m20 0a1.5 1.5 0 1 1-3.001-.001 1.5 1.5 0 0 1 3.001.001m20 0a1.5 1.5 0 1 1-3.001-.001 1.5 1.5 0 0 1 3.001.001m20 0a1.5 1.5 0 1 1-3.001-.001 1.5 1.5 0 0 1 3.001.001m20 0a1.5 1.5 0 1 1-3.001-.001 1.5 1.5 0 0 1 3.001.001m20 0a1.5 1.5 0 1 1-3.001-.001 1.5 1.5 0 0 1 3.001.001m20 0a1.5 1.5 0 1 1-3.001-.001 1.5 1.5 0 0 1 3.001.001m20 0a1.5 1.5 0 1 1-3.001-.001 1.5 1.5 0 0 1 3.001.001m20 0a1.5 1.5 0 1 1-3.001-.001 1.5 1.5 0 0 1 3.001.001m20 0a1.5 1.5 0 1 1-3.001-.001 1.5 1.5 0 0 1 3.001.001m20 0a1.5 1.5 0 1 1-3.001-.001 1.5 1.5 0 0 1 3.001.001m20 0a1.5 1.5 0 1 1-3.001-.001 1.5 1.5 0 0 1 3.001.001m-280 20a1.5 1.5 0 1 1-3.001-.001 1.5 1.5 0 0 1 3.001.001m20 0a1.5 1.5 0 1 1-3.001-.001 1.5 1.5 0 0 1 3.001.001m20 0a1.5 1.5 0 1 1-3.001-.001 1.5 1.5 0 0 1 3.001.001m20 0a1.5 1.5 0 1 1-3.001-.001 1.5 1.5 0 0 1 3.001.001m20 0a1.5 1.5 0 1 1-3.001-.001 1.5 1.5 0 0 1 3.001.001m20 0a1.5 1.5 0 1 1-3.001-.001 1.5 1.5 0 0 1 3.001.001m20 0a1.5 1.5 0 1 1-3.001-.001 1.5 1.5 0 0 1 3.001.001m20 0a1.5 1.5 0 1 1-3.001-.001 1.5 1.5 0 0 1 3.001.001m20 0a1.5 1.5 0 1 1-3.001-.001 1.5 1.5 0 0 1 3.001.001m20 0a1.5 1.5 0 1 1-3.001-.001 1.5 1.5 0 0 1 3.001.001m20 0a1.5 1.5 0 1 1-3.001-.001 1.5 1.5 0 0 1 3.001.001m20 0a1.5 1.5 0 1 1-3.001-.001 1.5 1.5 0 0 1 3.001.001m20 0a1.5 1.5 0 1 1-3.001-.001 1.5 1.5 0 0 1 3.001.001m20 0a1.5 1.5 0 1 1-3.001-.001 1.5 1.5 0 0 1 3.001.001m20 0a1.5 1.5 0 1 1-3.001-.001 1.5 1.5 0 0 1 3.001.001m20-220a1.5 1.5 0 1 1-3.001-.001A1.5 1.5 0 0 1 523 1.5m20 0a1.5 1.5 0 1 1-3.001-.001A1.5 1.5 0 0 1 543 1.5m20 0a1.5 1.5 0 1 1-3.001-.001A1.5 1.5 0 0 1 563 1.5m20 0a1.5 1.5 0 1 1-3.001-.001A1.5 1.5 0 0 1 583 1.5m20 0a1.5 1.5 0 1 1-3.001-.001A1.5 1.5 0 0 1 603 1.5m-80 20a1.5 1.5 0 1 1-3.001-.001A1.5 1.5 0 0 1 523 21.5m20 0a1.5 1.5 0 1 1-3.001-.001A1.5 1.5 0 0 1 543 21.5m20 0a1.5 1.5 0 1 1-3.001-.001A1.5 1.5 0 0 1 563 21.5m20 0a1.5 1.5 0 1 1-3.001-.001A1.5 1.5 0 0 1 583 21.5m20 0a1.5 1.5 0 1 1-3.001-.001A1.5 1.5 0 0 1 603 21.5m-80 20a1.5 1.5 0 1 1-3.001-.001A1.5 1.5 0 0 1 523 41.5m20 0a1.5 1.5 0 1 1-3.001-.001A1.5 1.5 0 0 1 543 41.5m20 0a1.5 1.5 0 1 1-3.001-.001A1.5 1.5 0 0 1 563 41.5m20 0a1.5 1.5 0 1 1-3.001-.001A1.5 1.5 0 0 1 583 41.5m20 0a1.5 1.5 0 1 1-3.001-.001A1.5 1.5 0 0 1 603 41.5m-80 20a1.5 1.5 0 1 1-3.001-.001A1.5 1.5 0 0 1 523 61.5m20 0a1.5 1.5 0 1 1-3.001-.001A1.5 1.5 0 0 1 543 61.5m20 0a1.5 1.5 0 1 1-3.001-.001A1.5 1.5 0 0 1 563 61.5m20 0a1.5 1.5 0 1 1-3.001-.001A1.5 1.5 0 0 1 583 61.5m20 0a1.5 1.5 0 1 1-3.001-.001A1.5 1.5 0 0 1 603 61.5m-80 20a1.5 1.5 0 1 1-3.001-.001A1.5 1.5 0 0 1 523 81.5m20 0a1.5 1.5 0 1 1-3.001-.001A1.5 1.5 0 0 1 543 81.5m20 0a1.5 1.5 0 1 1-3.001-.001A1.5 1.5 0 0 1 563 81.5m20 0a1.5 1.5 0 1 1-3.001-.001A1.5 1.5 0 0 1 583 81.5m20 0a1.5 1.5 0 1 1-3.001-.001A1.5 1.5 0 0 1 603 81.5m-80 20a1.5 1.5 0 1 1-3.001-.001 1.5 1.5 0 0 1 3.001.001m20 0a1.5 1.5 0 1 1-3.001-.001 1.5 1.5 0 0 1 3.001.001m20 0a1.5 1.5 0 1 1-3.001-.001 1.5 1.5 0 0 1 3.001.001m20 0a1.5 1.5 0 1 1-3.001-.001 1.5 1.5 0 0 1 3.001.001m20 0a1.5 1.5 0 1 1-3.001-.001 1.5 1.5 0 0 1 3.001.001m-80 20a1.5 1.5 0 1 1-3.001-.001 1.5 1.5 0 0 1 3.001.001m20 0a1.5 1.5 0 1 1-3.001-.001 1.5 1.5 0 0 1 3.001.001m20 0a1.5 1.5 0 1 1-3.001-.001 1.5 1.5 0 0 1 3.001.001m20 0a1.5 1.5 0 1 1-3.001-.001 1.5 1.5 0 0 1 3.001.001m20 0a1.5 1.5 0 1 1-3.001-.001 1.5 1.5 0 0 1 3.001.001m-80 20a1.5 1.5 0 1 1-3.001-.001 1.5 1.5 0 0 1 3.001.001m20 0a1.5 1.5 0 1 1-3.001-.001 1.5 1.5 0 0 1 3.001.001m20 0a1.5 1.5 0 1 1-3.001-.001 1.5 1.5 0 0 1 3.001.001m20 0a1.5 1.5 0 1 1-3.001-.001 1.5 1.5 0 0 1 3.001.001m20 0a1.5 1.5 0 1 1-3.001-.001 1.5 1.5 0 0 1 3.001.001m-80 20a1.5 1.5 0 1 1-3.001-.001 1.5 1.5 0 0 1 3.001.001m20 0a1.5 1.5 0 1 1-3.001-.001 1.5 1.5 0 0 1 3.001.001m20 0a1.5 1.5 0 1 1-3.001-.001 1.5 1.5 0 0 1 3.001.001m20 0a1.5 1.5 0 1 1-3.001-.001 1.5 1.5 0 0 1 3.001.001m20 0a1.5 1.5 0 1 1-3.001-.001 1.5 1.5 0 0 1 3.001.001m-80 20a1.5 1.5 0 1 1-3.001-.001 1.5 1.5 0 0 1 3.001.001m20 0a1.5 1.5 0 1 1-3.001-.001 1.5 1.5 0 0 1 3.001.001m20 0a1.5 1.5 0 1 1-3.001-.001 1.5 1.5 0 0 1 3.001.001m20 0a1.5 1.5 0 1 1-3.001-.001 1.5 1.5 0 0 1 3.001.001m20 0a1.5 1.5 0 1 1-3.001-.001 1.5 1.5 0 0 1 3.001.001m-80 20a1.5 1.5 0 1 1-3.001-.001 1.5 1.5 0 0 1 3.001.001m20 0a1.5 1.5 0 1 1-3.001-.001 1.5 1.5 0 0 1 3.001.001m20 0a1.5 1.5 0 1 1-3.001-.001 1.5 1.5 0 0 1 3.001.001m20 0a1.5 1.5 0 1 1-3.001-.001 1.5 1.5 0 0 1 3.001.001m20 0a1.5 1.5 0 1 1-3.001-.001 1.5 1.5 0 0 1 3.001.001m-80 20a1.5 1.5 0 1 1-3.001-.001 1.5 1.5 0 0 1 3.001.001m20 0a1.5 1.5 0 1 1-3.001-.001 1.5 1.5 0 0 1 3.001.001m20 0a1.5 1.5 0 1 1-3.001-.001 1.5 1.5 0 0 1 3.001.001m20 0a1.5 1.5 0 1 1-3.001-.001 1.5 1.5 0 0 1 3.001.001m20 0a1.5 1.5 0 1 1-3.001-.001 1.5 1.5 0 0 1 3.001.001m-600 20a1.5 1.5 0 1 1-3 0 1.5 1.5 0 0 1 3 0m20 0a1.5 1.5 0 1 1-3 0 1.5 1.5 0 0 1 3 0m20 0a1.5 1.5 0 1 1-3.001-.001A1.5 1.5 0 0 1 43 241.5m20 0a1.5 1.5 0 1 1-3.001-.001A1.5 1.5 0 0 1 63 241.5m20 0a1.5 1.5 0 1 1-3.001-.001A1.5 1.5 0 0 1 83 241.5m20 0a1.5 1.5 0 1 1-3.001-.001 1.5 1.5 0 0 1 3.001.001m20 0a1.5 1.5 0 1 1-3.001-.001 1.5 1.5 0 0 1 3.001.001m20 0a1.5 1.5 0 1 1-3.001-.001 1.5 1.5 0 0 1 3.001.001m20 0a1.5 1.5 0 1 1-3.001-.001 1.5 1.5 0 0 1 3.001.001m20 0a1.5 1.5 0 1 1-3.001-.001 1.5 1.5 0 0 1 3.001.001m20 0a1.5 1.5 0 1 1-3.001-.001 1.5 1.5 0 0 1 3.001.001m-200 20a1.499 1.499 0 1 1-3 0 1.499 1.499 0 1 1 3 0m20 0a1.499 1.499 0 1 1-3 0 1.499 1.499 0 1 1 3 0m20 0a1.5 1.5 0 1 1-2.999.001A1.5 1.5 0 0 1 43 261.5m20 0a1.5 1.5 0 1 1-2.999.001A1.5 1.5 0 0 1 63 261.5m20 0a1.5 1.5 0 1 1-2.999.001A1.5 1.5 0 0 1 83 261.5m20 0a1.5 1.5 0 1 1-2.999.001A1.5 1.5 0 0 1 103 261.5m20 0a1.5 1.5 0 1 1-2.999.001A1.5 1.5 0 0 1 123 261.5m20 0a1.5 1.5 0 1 1-2.999.001A1.5 1.5 0 0 1 143 261.5m20 0a1.5 1.5 0 1 1-2.999.001A1.5 1.5 0 0 1 163 261.5m20 0a1.5 1.5 0 1 1-2.999.001A1.5 1.5 0 0 1 183 261.5m20 0a1.5 1.5 0 1 1-2.999.001A1.5 1.5 0 0 1 203 261.5m-200 20a1.499 1.499 0 1 1-3 0 1.499 1.499 0 1 1 3 0m20 0a1.499 1.499 0 1 1-3 0 1.499 1.499 0 1 1 3 0m20 0a1.5 1.5 0 1 1-2.999.001A1.5 1.5 0 0 1 43 281.5m20 0a1.5 1.5 0 1 1-2.999.001A1.5 1.5 0 0 1 63 281.5m20 0a1.5 1.5 0 1 1-2.999.001A1.5 1.5 0 0 1 83 281.5m20 0a1.5 1.5 0 1 1-2.999.001A1.5 1.5 0 0 1 103 281.5m20 0a1.5 1.5 0 1 1-2.999.001A1.5 1.5 0 0 1 123 281.5m20 0a1.5 1.5 0 1 1-2.999.001A1.5 1.5 0 0 1 143 281.5m20 0a1.5 1.5 0 1 1-2.999.001A1.5 1.5 0 0 1 163 281.5m20 0a1.5 1.5 0 1 1-2.999.001A1.5 1.5 0 0 1 183 281.5m20 0a1.5 1.5 0 1 1-2.999.001A1.5 1.5 0 0 1 203 281.5m-200 20a1.499 1.499 0 1 1-3 0 1.499 1.499 0 1 1 3 0m20 0a1.499 1.499 0 1 1-3 0 1.499 1.499 0 1 1 3 0m20 0a1.5 1.5 0 1 1-2.999.001A1.5 1.5 0 0 1 43 301.5m20 0a1.5 1.5 0 1 1-2.999.001A1.5 1.5 0 0 1 63 301.5m20 0a1.5 1.5 0 1 1-2.999.001A1.5 1.5 0 0 1 83 301.5m20 0a1.5 1.5 0 1 1-2.999.001A1.5 1.5 0 0 1 103 301.5m20 0a1.5 1.5 0 1 1-2.999.001A1.5 1.5 0 0 1 123 301.5m20 0a1.5 1.5 0 1 1-2.999.001A1.5 1.5 0 0 1 143 301.5m20 0a1.5 1.5 0 1 1-2.999.001A1.5 1.5 0 0 1 163 301.5m20 0a1.5 1.5 0 1 1-2.999.001A1.5 1.5 0 0 1 183 301.5m20 0a1.5 1.5 0 1 1-2.999.001A1.5 1.5 0 0 1 203 301.5m-200 20a1.499 1.499 0 1 1-3 0 1.499 1.499 0 1 1 3 0m20 0a1.499 1.499 0 1 1-3 0 1.499 1.499 0 1 1 3 0m20 0a1.5 1.5 0 1 1-2.999.001A1.5 1.5 0 0 1 43 321.5m20 0a1.5 1.5 0 1 1-2.999.001A1.5 1.5 0 0 1 63 321.5m20 0a1.5 1.5 0 1 1-2.999.001A1.5 1.5 0 0 1 83 321.5m20 0a1.5 1.5 0 1 1-2.999.001A1.5 1.5 0 0 1 103 321.5m20 0a1.5 1.5 0 1 1-2.999.001A1.5 1.5 0 0 1 123 321.5m20 0a1.5 1.5 0 1 1-2.999.001A1.5 1.5 0 0 1 143 321.5m20 0a1.5 1.5 0 1 1-2.999.001A1.5 1.5 0 0 1 163 321.5m20 0a1.5 1.5 0 1 1-2.999.001A1.5 1.5 0 0 1 183 321.5m20 0a1.5 1.5 0 1 1-2.999.001A1.5 1.5 0 0 1 203 321.5m-200 20a1.499 1.499 0 1 1-3 0 1.499 1.499 0 1 1 3 0m20 0a1.499 1.499 0 1 1-3 0 1.499 1.499 0 1 1 3 0m20 0a1.5 1.5 0 1 1-2.999.001A1.5 1.5 0 0 1 43 341.5m20 0a1.5 1.5 0 1 1-2.999.001A1.5 1.5 0 0 1 63 341.5m20 0a1.5 1.5 0 1 1-2.999.001A1.5 1.5 0 0 1 83 341.5m20 0a1.5 1.5 0 1 1-2.999.001A1.5 1.5 0 0 1 103 341.5m20 0a1.5 1.5 0 1 1-2.999.001A1.5 1.5 0 0 1 123 341.5m20 0a1.5 1.5 0 1 1-2.999.001A1.5 1.5 0 0 1 143 341.5m20 0a1.5 1.5 0 1 1-2.999.001A1.5 1.5 0 0 1 163 341.5m20 0a1.5 1.5 0 1 1-2.999.001A1.5 1.5 0 0 1 183 341.5m20 0a1.5 1.5 0 1 1-2.999.001A1.5 1.5 0 0 1 203 341.5m-200 20a1.499 1.499 0 1 1-3 0 1.499 1.499 0 1 1 3 0m20 0a1.499 1.499 0 1 1-3 0 1.499 1.499 0 1 1 3 0m20 0a1.5 1.5 0 1 1-2.999.001A1.5 1.5 0 0 1 43 361.5m20 0a1.5 1.5 0 1 1-2.999.001A1.5 1.5 0 0 1 63 361.5m20 0a1.5 1.5 0 1 1-2.999.001A1.5 1.5 0 0 1 83 361.5m20 0a1.5 1.5 0 1 1-2.999.001A1.5 1.5 0 0 1 103 361.5m20 0a1.5 1.5 0 1 1-2.999.001A1.5 1.5 0 0 1 123 361.5m20 0a1.5 1.5 0 1 1-2.999.001A1.5 1.5 0 0 1 143 361.5m20 0a1.5 1.5 0 1 1-2.999.001A1.5 1.5 0 0 1 163 361.5m20 0a1.5 1.5 0 1 1-2.999.001A1.5 1.5 0 0 1 183 361.5m20 0a1.5 1.5 0 1 1-2.999.001A1.5 1.5 0 0 1 203 361.5m-200 20a1.499 1.499 0 1 1-3 0 1.499 1.499 0 1 1 3 0m20 0a1.499 1.499 0 1 1-3 0 1.499 1.499 0 1 1 3 0m20 0a1.5 1.5 0 1 1-2.999.001A1.5 1.5 0 0 1 43 381.5m20 0a1.5 1.5 0 1 1-2.999.001A1.5 1.5 0 0 1 63 381.5m20 0a1.5 1.5 0 1 1-2.999.001A1.5 1.5 0 0 1 83 381.5m20 0a1.5 1.5 0 1 1-2.999.001A1.5 1.5 0 0 1 103 381.5m20 0a1.5 1.5 0 1 1-2.999.001A1.5 1.5 0 0 1 123 381.5m20 0a1.5 1.5 0 1 1-2.999.001A1.5 1.5 0 0 1 143 381.5m20 0a1.5 1.5 0 1 1-2.999.001A1.5 1.5 0 0 1 163 381.5m20 0a1.5 1.5 0 1 1-2.999.001A1.5 1.5 0 0 1 183 381.5m20 0a1.5 1.5 0 1 1-2.999.001A1.5 1.5 0 0 1 203 381.5m20-140a1.5 1.5 0 1 1-3.001-.001 1.5 1.5 0 0 1 3.001.001m20 0a1.5 1.5 0 1 1-3.001-.001 1.5 1.5 0 0 1 3.001.001m20 0a1.5 1.5 0 1 1-3.001-.001 1.5 1.5 0 0 1 3.001.001m20 0a1.5 1.5 0 1 1-3.001-.001 1.5 1.5 0 0 1 3.001.001m20 0a1.5 1.5 0 1 1-3.001-.001 1.5 1.5 0 0 1 3.001.001m20 0a1.5 1.5 0 1 1-3.001-.001 1.5 1.5 0 0 1 3.001.001m20 0a1.5 1.5 0 1 1-3.001-.001 1.5 1.5 0 0 1 3.001.001m20 0a1.5 1.5 0 1 1-3.001-.001 1.5 1.5 0 0 1 3.001.001m20 0a1.5 1.5 0 1 1-3.001-.001 1.5 1.5 0 0 1 3.001.001m20 0a1.5 1.5 0 1 1-3.001-.001 1.5 1.5 0 0 1 3.001.001m20 0a1.5 1.5 0 1 1-3.001-.001 1.5 1.5 0 0 1 3.001.001m20 0a1.5 1.5 0 1 1-3.001-.001 1.5 1.5 0 0 1 3.001.001m20 0a1.5 1.5 0 1 1-3.001-.001 1.5 1.5 0 0 1 3.001.001m20 0a1.5 1.5 0 1 1-3.001-.001 1.5 1.5 0 0 1 3.001.001m20 0a1.5 1.5 0 1 1-3.001-.001 1.5 1.5 0 0 1 3.001.001m-280 20a1.5 1.5 0 1 1-2.999.001A1.5 1.5 0 0 1 223 261.5m20 0a1.5 1.5 0 1 1-2.999.001A1.5 1.5 0 0 1 243 261.5m20 0a1.5 1.5 0 1 1-2.999.001A1.5 1.5 0 0 1 263 261.5m20 0a1.5 1.5 0 1 1-2.999.001A1.5 1.5 0 0 1 283 261.5m20 0a1.5 1.5 0 1 1-2.999.001A1.5 1.5 0 0 1 303 261.5m20 0a1.5 1.5 0 1 1-2.999.001A1.5 1.5 0 0 1 323 261.5m20 0a1.5 1.5 0 1 1-2.999.001A1.5 1.5 0 0 1 343 261.5m20 0a1.5 1.5 0 1 1-2.999.001A1.5 1.5 0 0 1 363 261.5m20 0a1.5 1.5 0 1 1-2.999.001A1.5 1.5 0 0 1 383 261.5m20 0a1.5 1.5 0 1 1-2.999.001A1.5 1.5 0 0 1 403 261.5m20 0a1.5 1.5 0 1 1-2.999.001A1.5 1.5 0 0 1 423 261.5m20 0a1.5 1.5 0 1 1-2.999.001A1.5 1.5 0 0 1 443 261.5m20 0a1.5 1.5 0 1 1-2.999.001A1.5 1.5 0 0 1 463 261.5m20 0a1.5 1.5 0 1 1-2.999.001A1.5 1.5 0 0 1 483 261.5m20 0a1.5 1.5 0 1 1-2.999.001A1.5 1.5 0 0 1 503 261.5m-280 20a1.5 1.5 0 1 1-2.999.001A1.5 1.5 0 0 1 223 281.5m20 0a1.5 1.5 0 1 1-2.999.001A1.5 1.5 0 0 1 243 281.5m20 0a1.5 1.5 0 1 1-2.999.001A1.5 1.5 0 0 1 263 281.5m20 0a1.5 1.5 0 1 1-2.999.001A1.5 1.5 0 0 1 283 281.5m20 0a1.5 1.5 0 1 1-2.999.001A1.5 1.5 0 0 1 303 281.5m20 0a1.5 1.5 0 1 1-2.999.001A1.5 1.5 0 0 1 323 281.5m20 0a1.5 1.5 0 1 1-2.999.001A1.5 1.5 0 0 1 343 281.5m20 0a1.5 1.5 0 1 1-2.999.001A1.5 1.5 0 0 1 363 281.5m20 0a1.5 1.5 0 1 1-2.999.001A1.5 1.5 0 0 1 383 281.5m20 0a1.5 1.5 0 1 1-2.999.001A1.5 1.5 0 0 1 403 281.5m20 0a1.5 1.5 0 1 1-2.999.001A1.5 1.5 0 0 1 423 281.5m20 0a1.5 1.5 0 1 1-2.999.001A1.5 1.5 0 0 1 443 281.5m20 0a1.5 1.5 0 1 1-2.999.001A1.5 1.5 0 0 1 463 281.5m20 0a1.5 1.5 0 1 1-2.999.001A1.5 1.5 0 0 1 483 281.5m20 0a1.5 1.5 0 1 1-2.999.001A1.5 1.5 0 0 1 503 281.5m-280 20a1.5 1.5 0 1 1-2.999.001A1.5 1.5 0 0 1 223 301.5m20 0a1.5 1.5 0 1 1-2.999.001A1.5 1.5 0 0 1 243 301.5m20 0a1.5 1.5 0 1 1-2.999.001A1.5 1.5 0 0 1 263 301.5m20 0a1.5 1.5 0 1 1-2.999.001A1.5 1.5 0 0 1 283 301.5m20 0a1.5 1.5 0 1 1-2.999.001A1.5 1.5 0 0 1 303 301.5m20 0a1.5 1.5 0 1 1-2.999.001A1.5 1.5 0 0 1 323 301.5m20 0a1.5 1.5 0 1 1-2.999.001A1.5 1.5 0 0 1 343 301.5m20 0a1.5 1.5 0 1 1-2.999.001A1.5 1.5 0 0 1 363 301.5m20 0a1.5 1.5 0 1 1-2.999.001A1.5 1.5 0 0 1 383 301.5m20 0a1.5 1.5 0 1 1-2.999.001A1.5 1.5 0 0 1 403 301.5m20 0a1.5 1.5 0 1 1-2.999.001A1.5 1.5 0 0 1 423 301.5m20 0a1.5 1.5 0 1 1-2.999.001A1.5 1.5 0 0 1 443 301.5m20 0a1.5 1.5 0 1 1-2.999.001A1.5 1.5 0 0 1 463 301.5m20 0a1.5 1.5 0 1 1-2.999.001A1.5 1.5 0 0 1 483 301.5m20 0a1.5 1.5 0 1 1-2.999.001A1.5 1.5 0 0 1 503 301.5m-280 20a1.5 1.5 0 1 1-2.999.001A1.5 1.5 0 0 1 223 321.5m20 0a1.5 1.5 0 1 1-2.999.001A1.5 1.5 0 0 1 243 321.5m20 0a1.5 1.5 0 1 1-2.999.001A1.5 1.5 0 0 1 263 321.5m20 0a1.5 1.5 0 1 1-2.999.001A1.5 1.5 0 0 1 283 321.5m20 0a1.5 1.5 0 1 1-2.999.001A1.5 1.5 0 0 1 303 321.5m20 0a1.5 1.5 0 1 1-2.999.001A1.5 1.5 0 0 1 323 321.5m20 0a1.5 1.5 0 1 1-2.999.001A1.5 1.5 0 0 1 343 321.5m20 0a1.5 1.5 0 1 1-2.999.001A1.5 1.5 0 0 1 363 321.5m20 0a1.5 1.5 0 1 1-2.999.001A1.5 1.5 0 0 1 383 321.5m20 0a1.5 1.5 0 1 1-2.999.001A1.5 1.5 0 0 1 403 321.5m20 0a1.5 1.5 0 1 1-2.999.001A1.5 1.5 0 0 1 423 321.5m20 0a1.5 1.5 0 1 1-2.999.001A1.5 1.5 0 0 1 443 321.5m20 0a1.5 1.5 0 1 1-2.999.001A1.5 1.5 0 0 1 463 321.5m20 0a1.5 1.5 0 1 1-2.999.001A1.5 1.5 0 0 1 483 321.5m20 0a1.5 1.5 0 1 1-2.999.001A1.5 1.5 0 0 1 503 321.5m-280 20a1.5 1.5 0 1 1-2.999.001A1.5 1.5 0 0 1 223 341.5m20 0a1.5 1.5 0 1 1-2.999.001A1.5 1.5 0 0 1 243 341.5m20 0a1.5 1.5 0 1 1-2.999.001A1.5 1.5 0 0 1 263 341.5m20 0a1.5 1.5 0 1 1-2.999.001A1.5 1.5 0 0 1 283 341.5m20 0a1.5 1.5 0 1 1-2.999.001A1.5 1.5 0 0 1 303 341.5m20 0a1.5 1.5 0 1 1-2.999.001A1.5 1.5 0 0 1 323 341.5m20 0a1.5 1.5 0 1 1-2.999.001A1.5 1.5 0 0 1 343 341.5m20 0a1.5 1.5 0 1 1-2.999.001A1.5 1.5 0 0 1 363 341.5m20 0a1.5 1.5 0 1 1-2.999.001A1.5 1.5 0 0 1 383 341.5m20 0a1.5 1.5 0 1 1-2.999.001A1.5 1.5 0 0 1 403 341.5m20 0a1.5 1.5 0 1 1-2.999.001A1.5 1.5 0 0 1 423 341.5m20 0a1.5 1.5 0 1 1-2.999.001A1.5 1.5 0 0 1 443 341.5m20 0a1.5 1.5 0 1 1-2.999.001A1.5 1.5 0 0 1 463 341.5m20 0a1.5 1.5 0 1 1-2.999.001A1.5 1.5 0 0 1 483 341.5m20 0a1.5 1.5 0 1 1-2.999.001A1.5 1.5 0 0 1 503 341.5m-280 20a1.5 1.5 0 1 1-2.999.001A1.5 1.5 0 0 1 223 361.5m20 0a1.5 1.5 0 1 1-2.999.001A1.5 1.5 0 0 1 243 361.5m20 0a1.5 1.5 0 1 1-2.999.001A1.5 1.5 0 0 1 263 361.5m20 0a1.5 1.5 0 1 1-2.999.001A1.5 1.5 0 0 1 283 361.5m20 0a1.5 1.5 0 1 1-2.999.001A1.5 1.5 0 0 1 303 361.5m20 0a1.5 1.5 0 1 1-2.999.001A1.5 1.5 0 0 1 323 361.5m20 0a1.5 1.5 0 1 1-2.999.001A1.5 1.5 0 0 1 343 361.5m20 0a1.5 1.5 0 1 1-2.999.001A1.5 1.5 0 0 1 363 361.5m20 0a1.5 1.5 0 1 1-2.999.001A1.5 1.5 0 0 1 383 361.5m20 0a1.5 1.5 0 1 1-2.999.001A1.5 1.5 0 0 1 403 361.5m20 0a1.5 1.5 0 1 1-2.999.001A1.5 1.5 0 0 1 423 361.5m20 0a1.5 1.5 0 1 1-2.999.001A1.5 1.5 0 0 1 443 361.5m20 0a1.5 1.5 0 1 1-2.999.001A1.5 1.5 0 0 1 463 361.5m20 0a1.5 1.5 0 1 1-2.999.001A1.5 1.5 0 0 1 483 361.5m20 0a1.5 1.5 0 1 1-2.999.001A1.5 1.5 0 0 1 503 361.5m-280 20a1.5 1.5 0 1 1-2.999.001A1.5 1.5 0 0 1 223 381.5m20 0a1.5 1.5 0 1 1-2.999.001A1.5 1.5 0 0 1 243 381.5m20 0a1.5 1.5 0 1 1-2.999.001A1.5 1.5 0 0 1 263 381.5m20 0a1.5 1.5 0 1 1-2.999.001A1.5 1.5 0 0 1 283 381.5m20 0a1.5 1.5 0 1 1-2.999.001A1.5 1.5 0 0 1 303 381.5m20 0a1.5 1.5 0 1 1-2.999.001A1.5 1.5 0 0 1 323 381.5m20 0a1.5 1.5 0 1 1-2.999.001A1.5 1.5 0 0 1 343 381.5m20 0a1.5 1.5 0 1 1-2.999.001A1.5 1.5 0 0 1 363 381.5m20 0a1.5 1.5 0 1 1-2.999.001A1.5 1.5 0 0 1 383 381.5m20 0a1.5 1.5 0 1 1-2.999.001A1.5 1.5 0 0 1 403 381.5m20 0a1.5 1.5 0 1 1-2.999.001A1.5 1.5 0 0 1 423 381.5m20 0a1.5 1.5 0 1 1-2.999.001A1.5 1.5 0 0 1 443 381.5m20 0a1.5 1.5 0 1 1-2.999.001A1.5 1.5 0 0 1 463 381.5m20 0a1.5 1.5 0 1 1-2.999.001A1.5 1.5 0 0 1 483 381.5m20 0a1.5 1.5 0 1 1-2.999.001A1.5 1.5 0 0 1 503 381.5m20-140a1.5 1.5 0 1 1-3.001-.001 1.5 1.5 0 0 1 3.001.001m20 0a1.5 1.5 0 1 1-3.001-.001 1.5 1.5 0 0 1 3.001.001m20 0a1.5 1.5 0 1 1-3.001-.001 1.5 1.5 0 0 1 3.001.001m20 0a1.5 1.5 0 1 1-3.001-.001 1.5 1.5 0 0 1 3.001.001m20 0a1.5 1.5 0 1 1-3.001-.001 1.5 1.5 0 0 1 3.001.001m-80 20a1.5 1.5 0 1 1-2.999.001A1.5 1.5 0 0 1 523 261.5m20 0a1.5 1.5 0 1 1-2.999.001A1.5 1.5 0 0 1 543 261.5m20 0a1.5 1.5 0 1 1-2.999.001A1.5 1.5 0 0 1 563 261.5m20 0a1.5 1.5 0 1 1-2.999.001A1.5 1.5 0 0 1 583 261.5m20 0a1.5 1.5 0 1 1-2.999.001A1.5 1.5 0 0 1 603 261.5m-80 20a1.5 1.5 0 1 1-2.999.001A1.5 1.5 0 0 1 523 281.5m20 0a1.5 1.5 0 1 1-2.999.001A1.5 1.5 0 0 1 543 281.5m20 0a1.5 1.5 0 1 1-2.999.001A1.5 1.5 0 0 1 563 281.5m20 0a1.5 1.5 0 1 1-2.999.001A1.5 1.5 0 0 1 583 281.5m20 0a1.5 1.5 0 1 1-2.999.001A1.5 1.5 0 0 1 603 281.5m-80 20a1.5 1.5 0 1 1-2.999.001A1.5 1.5 0 0 1 523 301.5m20 0a1.5 1.5 0 1 1-2.999.001A1.5 1.5 0 0 1 543 301.5m20 0a1.5 1.5 0 1 1-2.999.001A1.5 1.5 0 0 1 563 301.5m20 0a1.5 1.5 0 1 1-2.999.001A1.5 1.5 0 0 1 583 301.5m20 0a1.5 1.5 0 1 1-2.999.001A1.5 1.5 0 0 1 603 301.5m-80 20a1.5 1.5 0 1 1-2.999.001A1.5 1.5 0 0 1 523 321.5m20 0a1.5 1.5 0 1 1-2.999.001A1.5 1.5 0 0 1 543 321.5m20 0a1.5 1.5 0 1 1-2.999.001A1.5 1.5 0 0 1 563 321.5m20 0a1.5 1.5 0 1 1-2.999.001A1.5 1.5 0 0 1 583 321.5m20 0a1.5 1.5 0 1 1-2.999.001A1.5 1.5 0 0 1 603 321.5m-80 20a1.5 1.5 0 1 1-2.999.001A1.5 1.5 0 0 1 523 341.5m20 0a1.5 1.5 0 1 1-2.999.001A1.5 1.5 0 0 1 543 341.5m20 0a1.5 1.5 0 1 1-2.999.001A1.5 1.5 0 0 1 563 341.5m20 0a1.5 1.5 0 1 1-2.999.001A1.5 1.5 0 0 1 583 341.5m20 0a1.5 1.5 0 1 1-2.999.001A1.5 1.5 0 0 1 603 341.5m-80 20a1.5 1.5 0 1 1-2.999.001A1.5 1.5 0 0 1 523 361.5m20 0a1.5 1.5 0 1 1-2.999.001A1.5 1.5 0 0 1 543 361.5m20 0a1.5 1.5 0 1 1-2.999.001A1.5 1.5 0 0 1 563 361.5m20 0a1.5 1.5 0 1 1-2.999.001A1.5 1.5 0 0 1 583 361.5m20 0a1.5 1.5 0 1 1-2.999.001A1.5 1.5 0 0 1 603 361.5m-80 20a1.5 1.5 0 1 1-2.999.001A1.5 1.5 0 0 1 523 381.5m20 0a1.5 1.5 0 1 1-2.999.001A1.5 1.5 0 0 1 543 381.5m20 0a1.5 1.5 0 1 1-2.999.001A1.5 1.5 0 0 1 563 381.5m20 0a1.5 1.5 0 1 1-2.999.001A1.5 1.5 0 0 1 583 381.5m20 0a1.5 1.5 0 1 1-2.999.001A1.5 1.5 0 0 1 603 381.5m20-380a1.5 1.5 0 1 1-3.001-.001A1.5 1.5 0 0 1 623 1.5m20 0a1.5 1.5 0 1 1-3.001-.001A1.5 1.5 0 0 1 643 1.5m20 0a1.5 1.5 0 1 1-3.001-.001A1.5 1.5 0 0 1 663 1.5m20 0a1.5 1.5 0 1 1-3.001-.001A1.5 1.5 0 0 1 683 1.5m20 0a1.5 1.5 0 1 1-3.001-.001A1.5 1.5 0 0 1 703 1.5m20 0a1.5 1.5 0 1 1-3.001-.001A1.5 1.5 0 0 1 723 1.5m20 0a1.5 1.5 0 1 1-3.001-.001A1.5 1.5 0 0 1 743 1.5m20 0a1.5 1.5 0 1 1-3.001-.001A1.5 1.5 0 0 1 763 1.5m20 0a1.5 1.5 0 1 1-3.001-.001A1.5 1.5 0 0 1 783 1.5m20 0a1.5 1.5 0 1 1-3.001-.001A1.5 1.5 0 0 1 803 1.5m20 0a1.5 1.5 0 1 1-3.001-.001A1.5 1.5 0 0 1 823 1.5m20 0a1.5 1.5 0 1 1-3.001-.001A1.5 1.5 0 0 1 843 1.5m20 0a1.5 1.5 0 1 1-3.001-.001A1.5 1.5 0 0 1 863 1.5m20 0a1.5 1.5 0 1 1-3.001-.001A1.5 1.5 0 0 1 883 1.5m20 0a1.5 1.5 0 1 1-3.001-.001A1.5 1.5 0 0 1 903 1.5m-280 20a1.5 1.5 0 1 1-3.001-.001A1.5 1.5 0 0 1 623 21.5m20 0a1.5 1.5 0 1 1-3.001-.001A1.5 1.5 0 0 1 643 21.5m20 0a1.5 1.5 0 1 1-3.001-.001A1.5 1.5 0 0 1 663 21.5m20 0a1.5 1.5 0 1 1-3.001-.001A1.5 1.5 0 0 1 683 21.5m20 0a1.5 1.5 0 1 1-3.001-.001A1.5 1.5 0 0 1 703 21.5m20 0a1.5 1.5 0 1 1-3.001-.001A1.5 1.5 0 0 1 723 21.5m20 0a1.5 1.5 0 1 1-3.001-.001A1.5 1.5 0 0 1 743 21.5m20 0a1.5 1.5 0 1 1-3.001-.001A1.5 1.5 0 0 1 763 21.5m20 0a1.5 1.5 0 1 1-3.001-.001A1.5 1.5 0 0 1 783 21.5m20 0a1.5 1.5 0 1 1-3.001-.001A1.5 1.5 0 0 1 803 21.5m20 0a1.5 1.5 0 1 1-3.001-.001A1.5 1.5 0 0 1 823 21.5m20 0a1.5 1.5 0 1 1-3.001-.001A1.5 1.5 0 0 1 843 21.5m20 0a1.5 1.5 0 1 1-3.001-.001A1.5 1.5 0 0 1 863 21.5m20 0a1.5 1.5 0 1 1-3.001-.001A1.5 1.5 0 0 1 883 21.5m20 0a1.5 1.5 0 1 1-3.001-.001A1.5 1.5 0 0 1 903 21.5m-280 20a1.5 1.5 0 1 1-3.001-.001A1.5 1.5 0 0 1 623 41.5m20 0a1.5 1.5 0 1 1-3.001-.001A1.5 1.5 0 0 1 643 41.5m20 0a1.5 1.5 0 1 1-3.001-.001A1.5 1.5 0 0 1 663 41.5m20 0a1.5 1.5 0 1 1-3.001-.001A1.5 1.5 0 0 1 683 41.5m20 0a1.5 1.5 0 1 1-3.001-.001A1.5 1.5 0 0 1 703 41.5m20 0a1.5 1.5 0 1 1-3.001-.001A1.5 1.5 0 0 1 723 41.5m20 0a1.5 1.5 0 1 1-3.001-.001A1.5 1.5 0 0 1 743 41.5m20 0a1.5 1.5 0 1 1-3.001-.001A1.5 1.5 0 0 1 763 41.5m20 0a1.5 1.5 0 1 1-3.001-.001A1.5 1.5 0 0 1 783 41.5m20 0a1.5 1.5 0 1 1-3.001-.001A1.5 1.5 0 0 1 803 41.5m20 0a1.5 1.5 0 1 1-3.001-.001A1.5 1.5 0 0 1 823 41.5m20 0a1.5 1.5 0 1 1-3.001-.001A1.5 1.5 0 0 1 843 41.5m20 0a1.5 1.5 0 1 1-3.001-.001A1.5 1.5 0 0 1 863 41.5m20 0a1.5 1.5 0 1 1-3.001-.001A1.5 1.5 0 0 1 883 41.5m20 0a1.5 1.5 0 1 1-3.001-.001A1.5 1.5 0 0 1 903 41.5m-280 20a1.5 1.5 0 1 1-3.001-.001A1.5 1.5 0 0 1 623 61.5m20 0a1.5 1.5 0 1 1-3.001-.001A1.5 1.5 0 0 1 643 61.5m20 0a1.5 1.5 0 1 1-3.001-.001A1.5 1.5 0 0 1 663 61.5m20 0a1.5 1.5 0 1 1-3.001-.001A1.5 1.5 0 0 1 683 61.5m20 0a1.5 1.5 0 1 1-3.001-.001A1.5 1.5 0 0 1 703 61.5m20 0a1.5 1.5 0 1 1-3.001-.001A1.5 1.5 0 0 1 723 61.5m20 0a1.5 1.5 0 1 1-3.001-.001A1.5 1.5 0 0 1 743 61.5m20 0a1.5 1.5 0 1 1-3.001-.001A1.5 1.5 0 0 1 763 61.5m20 0a1.5 1.5 0 1 1-3.001-.001A1.5 1.5 0 0 1 783 61.5m20 0a1.5 1.5 0 1 1-3.001-.001A1.5 1.5 0 0 1 803 61.5m20 0a1.5 1.5 0 1 1-3.001-.001A1.5 1.5 0 0 1 823 61.5m20 0a1.5 1.5 0 1 1-3.001-.001A1.5 1.5 0 0 1 843 61.5m20 0a1.5 1.5 0 1 1-3.001-.001A1.5 1.5 0 0 1 863 61.5m20 0a1.5 1.5 0 1 1-3.001-.001A1.5 1.5 0 0 1 883 61.5m20 0a1.5 1.5 0 1 1-3.001-.001A1.5 1.5 0 0 1 903 61.5m-280 20a1.5 1.5 0 1 1-3.001-.001A1.5 1.5 0 0 1 623 81.5m20 0a1.5 1.5 0 1 1-3.001-.001A1.5 1.5 0 0 1 643 81.5m20 0a1.5 1.5 0 1 1-3.001-.001A1.5 1.5 0 0 1 663 81.5m20 0a1.5 1.5 0 1 1-3.001-.001A1.5 1.5 0 0 1 683 81.5m20 0a1.5 1.5 0 1 1-3.001-.001A1.5 1.5 0 0 1 703 81.5m20 0a1.5 1.5 0 1 1-3.001-.001A1.5 1.5 0 0 1 723 81.5m20 0a1.5 1.5 0 1 1-3.001-.001A1.5 1.5 0 0 1 743 81.5m20 0a1.5 1.5 0 1 1-3.001-.001A1.5 1.5 0 0 1 763 81.5m20 0a1.5 1.5 0 1 1-3.001-.001A1.5 1.5 0 0 1 783 81.5m20 0a1.5 1.5 0 1 1-3.001-.001A1.5 1.5 0 0 1 803 81.5m20 0a1.5 1.5 0 1 1-3.001-.001A1.5 1.5 0 0 1 823 81.5m20 0a1.5 1.5 0 1 1-3.001-.001A1.5 1.5 0 0 1 843 81.5m20 0a1.5 1.5 0 1 1-3.001-.001A1.5 1.5 0 0 1 863 81.5m20 0a1.5 1.5 0 1 1-3.001-.001A1.5 1.5 0 0 1 883 81.5m20 0a1.5 1.5 0 1 1-3.001-.001A1.5 1.5 0 0 1 903 81.5m-280 20a1.5 1.5 0 1 1-3.001-.001 1.5 1.5 0 0 1 3.001.001m20 0a1.5 1.5 0 1 1-3.001-.001 1.5 1.5 0 0 1 3.001.001m20 0a1.5 1.5 0 1 1-3.001-.001 1.5 1.5 0 0 1 3.001.001m20 0a1.5 1.5 0 1 1-3.001-.001 1.5 1.5 0 0 1 3.001.001m20 0a1.5 1.5 0 1 1-3.001-.001 1.5 1.5 0 0 1 3.001.001m20 0a1.5 1.5 0 1 1-3.001-.001 1.5 1.5 0 0 1 3.001.001m20 0a1.5 1.5 0 1 1-3.001-.001 1.5 1.5 0 0 1 3.001.001m20 0a1.5 1.5 0 1 1-3.001-.001 1.5 1.5 0 0 1 3.001.001m20 0a1.5 1.5 0 1 1-3.001-.001 1.5 1.5 0 0 1 3.001.001m20 0a1.5 1.5 0 1 1-3.001-.001 1.5 1.5 0 0 1 3.001.001m20 0a1.5 1.5 0 1 1-3.001-.001 1.5 1.5 0 0 1 3.001.001m20 0a1.5 1.5 0 1 1-3.001-.001 1.5 1.5 0 0 1 3.001.001m20 0a1.5 1.5 0 1 1-3.001-.001 1.5 1.5 0 0 1 3.001.001m20 0a1.5 1.5 0 1 1-3.001-.001 1.5 1.5 0 0 1 3.001.001m20 0a1.5 1.5 0 1 1-3.001-.001 1.5 1.5 0 0 1 3.001.001m-280 20a1.5 1.5 0 1 1-3.001-.001 1.5 1.5 0 0 1 3.001.001m20 0a1.5 1.5 0 1 1-3.001-.001 1.5 1.5 0 0 1 3.001.001m20 0a1.5 1.5 0 1 1-3.001-.001 1.5 1.5 0 0 1 3.001.001m20 0a1.5 1.5 0 1 1-3.001-.001 1.5 1.5 0 0 1 3.001.001m20 0a1.5 1.5 0 1 1-3.001-.001 1.5 1.5 0 0 1 3.001.001m20 0a1.5 1.5 0 1 1-3.001-.001 1.5 1.5 0 0 1 3.001.001m20 0a1.5 1.5 0 1 1-3.001-.001 1.5 1.5 0 0 1 3.001.001m20 0a1.5 1.5 0 1 1-3.001-.001 1.5 1.5 0 0 1 3.001.001m20 0a1.5 1.5 0 1 1-3.001-.001 1.5 1.5 0 0 1 3.001.001m20 0a1.5 1.5 0 1 1-3.001-.001 1.5 1.5 0 0 1 3.001.001m20 0a1.5 1.5 0 1 1-3.001-.001 1.5 1.5 0 0 1 3.001.001m20 0a1.5 1.5 0 1 1-3.001-.001 1.5 1.5 0 0 1 3.001.001m20 0a1.5 1.5 0 1 1-3.001-.001 1.5 1.5 0 0 1 3.001.001m20 0a1.5 1.5 0 1 1-3.001-.001 1.5 1.5 0 0 1 3.001.001m20 0a1.5 1.5 0 1 1-3.001-.001 1.5 1.5 0 0 1 3.001.001m-280 20a1.5 1.5 0 1 1-3.001-.001 1.5 1.5 0 0 1 3.001.001m20 0a1.5 1.5 0 1 1-3.001-.001 1.5 1.5 0 0 1 3.001.001m20 0a1.5 1.5 0 1 1-3.001-.001 1.5 1.5 0 0 1 3.001.001m20 0a1.5 1.5 0 1 1-3.001-.001 1.5 1.5 0 0 1 3.001.001m20 0a1.5 1.5 0 1 1-3.001-.001 1.5 1.5 0 0 1 3.001.001m20 0a1.5 1.5 0 1 1-3.001-.001 1.5 1.5 0 0 1 3.001.001m20 0a1.5 1.5 0 1 1-3.001-.001 1.5 1.5 0 0 1 3.001.001m20 0a1.5 1.5 0 1 1-3.001-.001 1.5 1.5 0 0 1 3.001.001m20 0a1.5 1.5 0 1 1-3.001-.001 1.5 1.5 0 0 1 3.001.001m20 0a1.5 1.5 0 1 1-3.001-.001 1.5 1.5 0 0 1 3.001.001m20 0a1.5 1.5 0 1 1-3.001-.001 1.5 1.5 0 0 1 3.001.001m20 0a1.5 1.5 0 1 1-3.001-.001 1.5 1.5 0 0 1 3.001.001m20 0a1.5 1.5 0 1 1-3.001-.001 1.5 1.5 0 0 1 3.001.001m20 0a1.5 1.5 0 1 1-3.001-.001 1.5 1.5 0 0 1 3.001.001m20 0a1.5 1.5 0 1 1-3.001-.001 1.5 1.5 0 0 1 3.001.001m-280 20a1.5 1.5 0 1 1-3.001-.001 1.5 1.5 0 0 1 3.001.001m20 0a1.5 1.5 0 1 1-3.001-.001 1.5 1.5 0 0 1 3.001.001m20 0a1.5 1.5 0 1 1-3.001-.001 1.5 1.5 0 0 1 3.001.001m20 0a1.5 1.5 0 1 1-3.001-.001 1.5 1.5 0 0 1 3.001.001m20 0a1.5 1.5 0 1 1-3.001-.001 1.5 1.5 0 0 1 3.001.001m20 0a1.5 1.5 0 1 1-3.001-.001 1.5 1.5 0 0 1 3.001.001m20 0a1.5 1.5 0 1 1-3.001-.001 1.5 1.5 0 0 1 3.001.001m20 0a1.5 1.5 0 1 1-3.001-.001 1.5 1.5 0 0 1 3.001.001m20 0a1.5 1.5 0 1 1-3.001-.001 1.5 1.5 0 0 1 3.001.001m20 0a1.5 1.5 0 1 1-3.001-.001 1.5 1.5 0 0 1 3.001.001m20 0a1.5 1.5 0 1 1-3.001-.001 1.5 1.5 0 0 1 3.001.001m20 0a1.5 1.5 0 1 1-3.001-.001 1.5 1.5 0 0 1 3.001.001m20 0a1.5 1.5 0 1 1-3.001-.001 1.5 1.5 0 0 1 3.001.001m20 0a1.5 1.5 0 1 1-3.001-.001 1.5 1.5 0 0 1 3.001.001m20 0a1.5 1.5 0 1 1-3.001-.001 1.5 1.5 0 0 1 3.001.001m-280 20a1.5 1.5 0 1 1-3.001-.001 1.5 1.5 0 0 1 3.001.001m20 0a1.5 1.5 0 1 1-3.001-.001 1.5 1.5 0 0 1 3.001.001m20 0a1.5 1.5 0 1 1-3.001-.001 1.5 1.5 0 0 1 3.001.001m20 0a1.5 1.5 0 1 1-3.001-.001 1.5 1.5 0 0 1 3.001.001m20 0a1.5 1.5 0 1 1-3.001-.001 1.5 1.5 0 0 1 3.001.001m20 0a1.5 1.5 0 1 1-3.001-.001 1.5 1.5 0 0 1 3.001.001m20 0a1.5 1.5 0 1 1-3.001-.001 1.5 1.5 0 0 1 3.001.001m20 0a1.5 1.5 0 1 1-3.001-.001 1.5 1.5 0 0 1 3.001.001m20 0a1.5 1.5 0 1 1-3.001-.001 1.5 1.5 0 0 1 3.001.001m20 0a1.5 1.5 0 1 1-3.001-.001 1.5 1.5 0 0 1 3.001.001m20 0a1.5 1.5 0 1 1-3.001-.001 1.5 1.5 0 0 1 3.001.001m20 0a1.5 1.5 0 1 1-3.001-.001 1.5 1.5 0 0 1 3.001.001m20 0a1.5 1.5 0 1 1-3.001-.001 1.5 1.5 0 0 1 3.001.001m20 0a1.5 1.5 0 1 1-3.001-.001 1.5 1.5 0 0 1 3.001.001m20 0a1.5 1.5 0 1 1-3.001-.001 1.5 1.5 0 0 1 3.001.001m-280 20a1.5 1.5 0 1 1-3.001-.001 1.5 1.5 0 0 1 3.001.001m20 0a1.5 1.5 0 1 1-3.001-.001 1.5 1.5 0 0 1 3.001.001m20 0a1.5 1.5 0 1 1-3.001-.001 1.5 1.5 0 0 1 3.001.001m20 0a1.5 1.5 0 1 1-3.001-.001 1.5 1.5 0 0 1 3.001.001m20 0a1.5 1.5 0 1 1-3.001-.001 1.5 1.5 0 0 1 3.001.001m20 0a1.5 1.5 0 1 1-3.001-.001 1.5 1.5 0 0 1 3.001.001m20 0a1.5 1.5 0 1 1-3.001-.001 1.5 1.5 0 0 1 3.001.001m20 0a1.5 1.5 0 1 1-3.001-.001 1.5 1.5 0 0 1 3.001.001m20 0a1.5 1.5 0 1 1-3.001-.001 1.5 1.5 0 0 1 3.001.001m20 0a1.5 1.5 0 1 1-3.001-.001 1.5 1.5 0 0 1 3.001.001m20 0a1.5 1.5 0 1 1-3.001-.001 1.5 1.5 0 0 1 3.001.001m20 0a1.5 1.5 0 1 1-3.001-.001 1.5 1.5 0 0 1 3.001.001m20 0a1.5 1.5 0 1 1-3.001-.001 1.5 1.5 0 0 1 3.001.001m20 0a1.5 1.5 0 1 1-3.001-.001 1.5 1.5 0 0 1 3.001.001m20 0a1.5 1.5 0 1 1-3.001-.001 1.5 1.5 0 0 1 3.001.001m-280 20a1.5 1.5 0 1 1-3.001-.001 1.5 1.5 0 0 1 3.001.001m20 0a1.5 1.5 0 1 1-3.001-.001 1.5 1.5 0 0 1 3.001.001m20 0a1.5 1.5 0 1 1-3.001-.001 1.5 1.5 0 0 1 3.001.001m20 0a1.5 1.5 0 1 1-3.001-.001 1.5 1.5 0 0 1 3.001.001m20 0a1.5 1.5 0 1 1-3.001-.001 1.5 1.5 0 0 1 3.001.001m20 0a1.5 1.5 0 1 1-3.001-.001 1.5 1.5 0 0 1 3.001.001m20 0a1.5 1.5 0 1 1-3.001-.001 1.5 1.5 0 0 1 3.001.001m20 0a1.5 1.5 0 1 1-3.001-.001 1.5 1.5 0 0 1 3.001.001m20 0a1.5 1.5 0 1 1-3.001-.001 1.5 1.5 0 0 1 3.001.001m20 0a1.5 1.5 0 1 1-3.001-.001 1.5 1.5 0 0 1 3.001.001m20 0a1.5 1.5 0 1 1-3.001-.001 1.5 1.5 0 0 1 3.001.001m20 0a1.5 1.5 0 1 1-3.001-.001 1.5 1.5 0 0 1 3.001.001m20 0a1.5 1.5 0 1 1-3.001-.001 1.5 1.5 0 0 1 3.001.001m20 0a1.5 1.5 0 1 1-3.001-.001 1.5 1.5 0 0 1 3.001.001m20 0a1.5 1.5 0 1 1-3.001-.001 1.5 1.5 0 0 1 3.001.001m20-220a1.5 1.5 0 1 1-3.001-.001A1.5 1.5 0 0 1 923 1.5m20 0a1.5 1.5 0 1 1-2.999.001A1.5 1.5 0 0 1 943 1.5m20 0a1.5 1.5 0 1 1-2.999.001A1.5 1.5 0 0 1 963 1.5m20 0a1.5 1.5 0 1 1-2.999.001A1.5 1.5 0 0 1 983 1.5m20 0a1.5 1.5 0 1 1-2.999.001A1.5 1.5 0 0 1 1003 1.5m20 0a1.5 1.5 0 1 1-2.999.001A1.5 1.5 0 0 1 1023 1.5m20 0a1.5 1.5 0 1 1-2.999.001A1.5 1.5 0 0 1 1043 1.5m20 0a1.5 1.5 0 1 1-2.999.001A1.5 1.5 0 0 1 1063 1.5m20 0a1.5 1.5 0 1 1-2.999.001A1.5 1.5 0 0 1 1083 1.5m20 0a1.5 1.5 0 1 1-2.999.001A1.5 1.5 0 0 1 1103 1.5m20 0a1.5 1.5 0 1 1-2.999.001A1.5 1.5 0 0 1 1123 1.5m20 0a1.5 1.5 0 1 1-2.999.001A1.5 1.5 0 0 1 1143 1.5m20 0a1.5 1.5 0 1 1-2.999.001A1.5 1.5 0 0 1 1163 1.5m20 0a1.5 1.5 0 1 1-2.999.001A1.5 1.5 0 0 1 1183 1.5m20 0a1.5 1.5 0 1 1-2.999.001A1.5 1.5 0 0 1 1203 1.5m-280 20a1.5 1.5 0 1 1-3.001-.001A1.5 1.5 0 0 1 923 21.5m20 0a1.5 1.5 0 1 1-2.999.001A1.5 1.5 0 0 1 943 21.5m20 0a1.5 1.5 0 1 1-2.999.001A1.5 1.5 0 0 1 963 21.5m20 0a1.5 1.5 0 1 1-2.999.001A1.5 1.5 0 0 1 983 21.5m20 0a1.5 1.5 0 1 1-2.999.001A1.5 1.5 0 0 1 1003 21.5m20 0a1.5 1.5 0 1 1-2.999.001A1.5 1.5 0 0 1 1023 21.5m20 0a1.5 1.5 0 1 1-2.999.001A1.5 1.5 0 0 1 1043 21.5m20 0a1.5 1.5 0 1 1-2.999.001A1.5 1.5 0 0 1 1063 21.5m20 0a1.5 1.5 0 1 1-2.999.001A1.5 1.5 0 0 1 1083 21.5m20 0a1.5 1.5 0 1 1-2.999.001A1.5 1.5 0 0 1 1103 21.5m20 0a1.5 1.5 0 1 1-2.999.001A1.5 1.5 0 0 1 1123 21.5m20 0a1.5 1.5 0 1 1-2.999.001A1.5 1.5 0 0 1 1143 21.5m20 0a1.5 1.5 0 1 1-2.999.001A1.5 1.5 0 0 1 1163 21.5m20 0a1.5 1.5 0 1 1-2.999.001A1.5 1.5 0 0 1 1183 21.5m20 0a1.5 1.5 0 1 1-2.999.001A1.5 1.5 0 0 1 1203 21.5m-280 20a1.5 1.5 0 1 1-3.001-.001A1.5 1.5 0 0 1 923 41.5m20 0a1.5 1.5 0 1 1-2.999.001A1.5 1.5 0 0 1 943 41.5m20 0a1.5 1.5 0 1 1-2.999.001A1.5 1.5 0 0 1 963 41.5m20 0a1.5 1.5 0 1 1-2.999.001A1.5 1.5 0 0 1 983 41.5m20 0a1.5 1.5 0 1 1-2.999.001A1.5 1.5 0 0 1 1003 41.5m20 0a1.5 1.5 0 1 1-2.999.001A1.5 1.5 0 0 1 1023 41.5m20 0a1.5 1.5 0 1 1-2.999.001A1.5 1.5 0 0 1 1043 41.5m20 0a1.5 1.5 0 1 1-2.999.001A1.5 1.5 0 0 1 1063 41.5m20 0a1.5 1.5 0 1 1-2.999.001A1.5 1.5 0 0 1 1083 41.5m20 0a1.5 1.5 0 1 1-2.999.001A1.5 1.5 0 0 1 1103 41.5m20 0a1.5 1.5 0 1 1-2.999.001A1.5 1.5 0 0 1 1123 41.5m20 0a1.5 1.5 0 1 1-2.999.001A1.5 1.5 0 0 1 1143 41.5m20 0a1.5 1.5 0 1 1-2.999.001A1.5 1.5 0 0 1 1163 41.5m20 0a1.5 1.5 0 1 1-2.999.001A1.5 1.5 0 0 1 1183 41.5m20 0a1.5 1.5 0 1 1-2.999.001A1.5 1.5 0 0 1 1203 41.5m-280 20a1.5 1.5 0 1 1-3.001-.001A1.5 1.5 0 0 1 923 61.5m20 0a1.5 1.5 0 1 1-2.999.001A1.5 1.5 0 0 1 943 61.5m20 0a1.5 1.5 0 1 1-2.999.001A1.5 1.5 0 0 1 963 61.5m20 0a1.5 1.5 0 1 1-2.999.001A1.5 1.5 0 0 1 983 61.5m20 0a1.5 1.5 0 1 1-2.999.001A1.5 1.5 0 0 1 1003 61.5m20 0a1.5 1.5 0 1 1-2.999.001A1.5 1.5 0 0 1 1023 61.5m20 0a1.5 1.5 0 1 1-2.999.001A1.5 1.5 0 0 1 1043 61.5m20 0a1.5 1.5 0 1 1-2.999.001A1.5 1.5 0 0 1 1063 61.5m20 0a1.5 1.5 0 1 1-2.999.001A1.5 1.5 0 0 1 1083 61.5m20 0a1.5 1.5 0 1 1-2.999.001A1.5 1.5 0 0 1 1103 61.5m20 0a1.5 1.5 0 1 1-2.999.001A1.5 1.5 0 0 1 1123 61.5m20 0a1.5 1.5 0 1 1-2.999.001A1.5 1.5 0 0 1 1143 61.5m20 0a1.5 1.5 0 1 1-2.999.001A1.5 1.5 0 0 1 1163 61.5m20 0a1.5 1.5 0 1 1-2.999.001A1.5 1.5 0 0 1 1183 61.5m20 0a1.5 1.5 0 1 1-2.999.001A1.5 1.5 0 0 1 1203 61.5m-280 20a1.5 1.5 0 1 1-3.001-.001A1.5 1.5 0 0 1 923 81.5m20 0a1.5 1.5 0 1 1-2.999.001A1.5 1.5 0 0 1 943 81.5m20 0a1.5 1.5 0 1 1-2.999.001A1.5 1.5 0 0 1 963 81.5m20 0a1.5 1.5 0 1 1-2.999.001A1.5 1.5 0 0 1 983 81.5m20 0a1.5 1.5 0 1 1-2.999.001A1.5 1.5 0 0 1 1003 81.5m20 0a1.5 1.5 0 1 1-2.999.001A1.5 1.5 0 0 1 1023 81.5m20 0a1.5 1.5 0 1 1-2.999.001A1.5 1.5 0 0 1 1043 81.5m20 0a1.5 1.5 0 1 1-2.999.001A1.5 1.5 0 0 1 1063 81.5m20 0a1.5 1.5 0 1 1-2.999.001A1.5 1.5 0 0 1 1083 81.5m20 0a1.5 1.5 0 1 1-2.999.001A1.5 1.5 0 0 1 1103 81.5m20 0a1.5 1.5 0 1 1-2.999.001A1.5 1.5 0 0 1 1123 81.5m20 0a1.5 1.5 0 1 1-2.999.001A1.5 1.5 0 0 1 1143 81.5m20 0a1.5 1.5 0 1 1-2.999.001A1.5 1.5 0 0 1 1163 81.5m20 0a1.5 1.5 0 1 1-2.999.001A1.5 1.5 0 0 1 1183 81.5m20 0a1.5 1.5 0 1 1-2.999.001A1.5 1.5 0 0 1 1203 81.5m-280 20a1.5 1.5 0 1 1-3.001-.001 1.5 1.5 0 0 1 3.001.001m20 0a1.5 1.5 0 1 1-2.999.001A1.5 1.5 0 0 1 943 101.5m20 0a1.5 1.5 0 1 1-2.999.001A1.5 1.5 0 0 1 963 101.5m20 0a1.5 1.5 0 1 1-2.999.001A1.5 1.5 0 0 1 983 101.5m20 0a1.5 1.5 0 1 1-2.999.001 1.5 1.5 0 0 1 2.999-.001m20 0a1.5 1.5 0 1 1-2.999.001 1.5 1.5 0 0 1 2.999-.001m20 0a1.5 1.5 0 1 1-2.999.001 1.5 1.5 0 0 1 2.999-.001m20 0a1.5 1.5 0 1 1-2.999.001 1.5 1.5 0 0 1 2.999-.001m20 0a1.5 1.5 0 1 1-2.999.001 1.5 1.5 0 0 1 2.999-.001m20 0a1.5 1.5 0 1 1-2.999.001 1.5 1.5 0 0 1 2.999-.001m20 0a1.5 1.5 0 1 1-2.999.001 1.5 1.5 0 0 1 2.999-.001m20 0a1.5 1.5 0 1 1-2.999.001 1.5 1.5 0 0 1 2.999-.001m20 0a1.5 1.5 0 1 1-2.999.001 1.5 1.5 0 0 1 2.999-.001m20 0a1.5 1.5 0 1 1-2.999.001 1.5 1.5 0 0 1 2.999-.001m20 0a1.5 1.5 0 1 1-2.999.001 1.5 1.5 0 0 1 2.999-.001m-280 20a1.5 1.5 0 1 1-3.001-.001 1.5 1.5 0 0 1 3.001.001m20 0a1.5 1.5 0 1 1-2.999.001A1.5 1.5 0 0 1 943 121.5m20 0a1.5 1.5 0 1 1-2.999.001A1.5 1.5 0 0 1 963 121.5m20 0a1.5 1.5 0 1 1-2.999.001A1.5 1.5 0 0 1 983 121.5m20 0a1.5 1.5 0 1 1-2.999.001 1.5 1.5 0 0 1 2.999-.001m20 0a1.5 1.5 0 1 1-2.999.001 1.5 1.5 0 0 1 2.999-.001m20 0a1.5 1.5 0 1 1-2.999.001 1.5 1.5 0 0 1 2.999-.001m20 0a1.5 1.5 0 1 1-2.999.001 1.5 1.5 0 0 1 2.999-.001m20 0a1.5 1.5 0 1 1-2.999.001 1.5 1.5 0 0 1 2.999-.001m20 0a1.5 1.5 0 1 1-2.999.001 1.5 1.5 0 0 1 2.999-.001m20 0a1.5 1.5 0 1 1-2.999.001 1.5 1.5 0 0 1 2.999-.001m20 0a1.5 1.5 0 1 1-2.999.001 1.5 1.5 0 0 1 2.999-.001m20 0a1.5 1.5 0 1 1-2.999.001 1.5 1.5 0 0 1 2.999-.001m20 0a1.5 1.5 0 1 1-2.999.001 1.5 1.5 0 0 1 2.999-.001m20 0a1.5 1.5 0 1 1-2.999.001 1.5 1.5 0 0 1 2.999-.001m-280 20a1.5 1.5 0 1 1-3.001-.001 1.5 1.5 0 0 1 3.001.001m20 0a1.5 1.5 0 1 1-2.999.001A1.5 1.5 0 0 1 943 141.5m20 0a1.5 1.5 0 1 1-2.999.001A1.5 1.5 0 0 1 963 141.5m20 0a1.5 1.5 0 1 1-2.999.001A1.5 1.5 0 0 1 983 141.5m20 0a1.5 1.5 0 1 1-2.999.001 1.5 1.5 0 0 1 2.999-.001m20 0a1.5 1.5 0 1 1-2.999.001 1.5 1.5 0 0 1 2.999-.001m20 0a1.5 1.5 0 1 1-2.999.001 1.5 1.5 0 0 1 2.999-.001m20 0a1.5 1.5 0 1 1-2.999.001 1.5 1.5 0 0 1 2.999-.001m20 0a1.5 1.5 0 1 1-2.999.001 1.5 1.5 0 0 1 2.999-.001m20 0a1.5 1.5 0 1 1-2.999.001 1.5 1.5 0 0 1 2.999-.001m20 0a1.5 1.5 0 1 1-2.999.001 1.5 1.5 0 0 1 2.999-.001m20 0a1.5 1.5 0 1 1-2.999.001 1.5 1.5 0 0 1 2.999-.001m20 0a1.5 1.5 0 1 1-2.999.001 1.5 1.5 0 0 1 2.999-.001m20 0a1.5 1.5 0 1 1-2.999.001 1.5 1.5 0 0 1 2.999-.001m20 0a1.5 1.5 0 1 1-2.999.001 1.5 1.5 0 0 1 2.999-.001m-280 20a1.5 1.5 0 1 1-3.001-.001 1.5 1.5 0 0 1 3.001.001m20 0a1.5 1.5 0 1 1-2.999.001A1.5 1.5 0 0 1 943 161.5m20 0a1.5 1.5 0 1 1-2.999.001A1.5 1.5 0 0 1 963 161.5m20 0a1.5 1.5 0 1 1-2.999.001A1.5 1.5 0 0 1 983 161.5m20 0a1.5 1.5 0 1 1-2.999.001 1.5 1.5 0 0 1 2.999-.001m20 0a1.5 1.5 0 1 1-2.999.001 1.5 1.5 0 0 1 2.999-.001m20 0a1.5 1.5 0 1 1-2.999.001 1.5 1.5 0 0 1 2.999-.001m20 0a1.5 1.5 0 1 1-2.999.001 1.5 1.5 0 0 1 2.999-.001m20 0a1.5 1.5 0 1 1-2.999.001 1.5 1.5 0 0 1 2.999-.001m20 0a1.5 1.5 0 1 1-2.999.001 1.5 1.5 0 0 1 2.999-.001m20 0a1.5 1.5 0 1 1-2.999.001 1.5 1.5 0 0 1 2.999-.001m20 0a1.5 1.5 0 1 1-2.999.001 1.5 1.5 0 0 1 2.999-.001m20 0a1.5 1.5 0 1 1-2.999.001 1.5 1.5 0 0 1 2.999-.001m20 0a1.5 1.5 0 1 1-2.999.001 1.5 1.5 0 0 1 2.999-.001m20 0a1.5 1.5 0 1 1-2.999.001 1.5 1.5 0 0 1 2.999-.001m-280 20a1.5 1.5 0 1 1-3.001-.001 1.5 1.5 0 0 1 3.001.001m20 0a1.5 1.5 0 1 1-2.999.001A1.5 1.5 0 0 1 943 181.5m20 0a1.5 1.5 0 1 1-2.999.001A1.5 1.5 0 0 1 963 181.5m20 0a1.5 1.5 0 1 1-2.999.001A1.5 1.5 0 0 1 983 181.5m20 0a1.5 1.5 0 1 1-2.999.001 1.5 1.5 0 0 1 2.999-.001m20 0a1.5 1.5 0 1 1-2.999.001 1.5 1.5 0 0 1 2.999-.001m20 0a1.5 1.5 0 1 1-2.999.001 1.5 1.5 0 0 1 2.999-.001m20 0a1.5 1.5 0 1 1-2.999.001 1.5 1.5 0 0 1 2.999-.001m20 0a1.5 1.5 0 1 1-2.999.001 1.5 1.5 0 0 1 2.999-.001m20 0a1.5 1.5 0 1 1-2.999.001 1.5 1.5 0 0 1 2.999-.001m20 0a1.5 1.5 0 1 1-2.999.001 1.5 1.5 0 0 1 2.999-.001m20 0a1.5 1.5 0 1 1-2.999.001 1.5 1.5 0 0 1 2.999-.001m20 0a1.5 1.5 0 1 1-2.999.001 1.5 1.5 0 0 1 2.999-.001m20 0a1.5 1.5 0 1 1-2.999.001 1.5 1.5 0 0 1 2.999-.001m20 0a1.5 1.5 0 1 1-2.999.001 1.5 1.5 0 0 1 2.999-.001m-280 20a1.5 1.5 0 1 1-3.001-.001 1.5 1.5 0 0 1 3.001.001m20 0a1.5 1.5 0 1 1-2.999.001A1.5 1.5 0 0 1 943 201.5m20 0a1.5 1.5 0 1 1-2.999.001A1.5 1.5 0 0 1 963 201.5m20 0a1.5 1.5 0 1 1-2.999.001A1.5 1.5 0 0 1 983 201.5m20 0a1.5 1.5 0 1 1-2.999.001 1.5 1.5 0 0 1 2.999-.001m20 0a1.5 1.5 0 1 1-2.999.001 1.5 1.5 0 0 1 2.999-.001m20 0a1.5 1.5 0 1 1-2.999.001 1.5 1.5 0 0 1 2.999-.001m20 0a1.5 1.5 0 1 1-2.999.001 1.5 1.5 0 0 1 2.999-.001m20 0a1.5 1.5 0 1 1-2.999.001 1.5 1.5 0 0 1 2.999-.001m20 0a1.5 1.5 0 1 1-2.999.001 1.5 1.5 0 0 1 2.999-.001m20 0a1.5 1.5 0 1 1-2.999.001 1.5 1.5 0 0 1 2.999-.001m20 0a1.5 1.5 0 1 1-2.999.001 1.5 1.5 0 0 1 2.999-.001m20 0a1.5 1.5 0 1 1-2.999.001 1.5 1.5 0 0 1 2.999-.001m20 0a1.5 1.5 0 1 1-2.999.001 1.5 1.5 0 0 1 2.999-.001m20 0a1.5 1.5 0 1 1-2.999.001 1.5 1.5 0 0 1 2.999-.001m-280 20a1.5 1.5 0 1 1-3.001-.001 1.5 1.5 0 0 1 3.001.001m20 0a1.5 1.5 0 1 1-2.999.001A1.5 1.5 0 0 1 943 221.5m20 0a1.5 1.5 0 1 1-2.999.001A1.5 1.5 0 0 1 963 221.5m20 0a1.5 1.5 0 1 1-2.999.001A1.5 1.5 0 0 1 983 221.5m20 0a1.5 1.5 0 1 1-2.999.001 1.5 1.5 0 0 1 2.999-.001m20 0a1.5 1.5 0 1 1-2.999.001 1.5 1.5 0 0 1 2.999-.001m20 0a1.5 1.5 0 1 1-2.999.001 1.5 1.5 0 0 1 2.999-.001m20 0a1.5 1.5 0 1 1-2.999.001 1.5 1.5 0 0 1 2.999-.001m20 0a1.5 1.5 0 1 1-2.999.001 1.5 1.5 0 0 1 2.999-.001m20 0a1.5 1.5 0 1 1-2.999.001 1.5 1.5 0 0 1 2.999-.001m20 0a1.5 1.5 0 1 1-2.999.001 1.5 1.5 0 0 1 2.999-.001m20 0a1.5 1.5 0 1 1-2.999.001 1.5 1.5 0 0 1 2.999-.001m20 0a1.5 1.5 0 1 1-2.999.001 1.5 1.5 0 0 1 2.999-.001m20 0a1.5 1.5 0 1 1-2.999.001 1.5 1.5 0 0 1 2.999-.001m20 0a1.5 1.5 0 1 1-2.999.001 1.5 1.5 0 0 1 2.999-.001m20-220a1.5 1.5 0 1 1-2.999.001A1.5 1.5 0 0 1 1223 1.5m20 0a1.5 1.5 0 1 1-2.999.001A1.5 1.5 0 0 1 1243 1.5m20 0a1.5 1.5 0 1 1-2.999.001A1.5 1.5 0 0 1 1263 1.5m20 0a1.5 1.5 0 1 1-2.999.001A1.5 1.5 0 0 1 1283 1.5m20 0a1.5 1.5 0 1 1-2.999.001A1.5 1.5 0 0 1 1303 1.5m-80 20a1.5 1.5 0 1 1-2.999.001A1.5 1.5 0 0 1 1223 21.5m20 0a1.5 1.5 0 1 1-2.999.001A1.5 1.5 0 0 1 1243 21.5m20 0a1.5 1.5 0 1 1-2.999.001A1.5 1.5 0 0 1 1263 21.5m20 0a1.5 1.5 0 1 1-2.999.001A1.5 1.5 0 0 1 1283 21.5m20 0a1.5 1.5 0 1 1-2.999.001A1.5 1.5 0 0 1 1303 21.5m-80 20a1.5 1.5 0 1 1-2.999.001A1.5 1.5 0 0 1 1223 41.5m20 0a1.5 1.5 0 1 1-2.999.001A1.5 1.5 0 0 1 1243 41.5m20 0a1.5 1.5 0 1 1-2.999.001A1.5 1.5 0 0 1 1263 41.5m20 0a1.5 1.5 0 1 1-2.999.001A1.5 1.5 0 0 1 1283 41.5m20 0a1.5 1.5 0 1 1-2.999.001A1.5 1.5 0 0 1 1303 41.5m-80 20a1.5 1.5 0 1 1-2.999.001A1.5 1.5 0 0 1 1223 61.5m20 0a1.5 1.5 0 1 1-2.999.001A1.5 1.5 0 0 1 1243 61.5m20 0a1.5 1.5 0 1 1-2.999.001A1.5 1.5 0 0 1 1263 61.5m20 0a1.5 1.5 0 1 1-2.999.001A1.5 1.5 0 0 1 1283 61.5m20 0a1.5 1.5 0 1 1-2.999.001A1.5 1.5 0 0 1 1303 61.5m-80 20a1.5 1.5 0 1 1-2.999.001A1.5 1.5 0 0 1 1223 81.5m20 0a1.5 1.5 0 1 1-2.999.001A1.5 1.5 0 0 1 1243 81.5m20 0a1.5 1.5 0 1 1-2.999.001A1.5 1.5 0 0 1 1263 81.5m20 0a1.5 1.5 0 1 1-2.999.001A1.5 1.5 0 0 1 1283 81.5m20 0a1.5 1.5 0 1 1-2.999.001A1.5 1.5 0 0 1 1303 81.5m-80 20a1.5 1.5 0 1 1-2.999.001 1.5 1.5 0 0 1 2.999-.001m20 0a1.5 1.5 0 1 1-2.999.001 1.5 1.5 0 0 1 2.999-.001m20 0a1.5 1.5 0 1 1-2.999.001 1.5 1.5 0 0 1 2.999-.001m20 0a1.5 1.5 0 1 1-2.999.001 1.5 1.5 0 0 1 2.999-.001m20 0a1.5 1.5 0 1 1-2.999.001 1.5 1.5 0 0 1 2.999-.001m-80 20a1.5 1.5 0 1 1-2.999.001 1.5 1.5 0 0 1 2.999-.001m20 0a1.5 1.5 0 1 1-2.999.001 1.5 1.5 0 0 1 2.999-.001m20 0a1.5 1.5 0 1 1-2.999.001 1.5 1.5 0 0 1 2.999-.001m20 0a1.5 1.5 0 1 1-2.999.001 1.5 1.5 0 0 1 2.999-.001m20 0a1.5 1.5 0 1 1-2.999.001 1.5 1.5 0 0 1 2.999-.001m-80 20a1.5 1.5 0 1 1-2.999.001 1.5 1.5 0 0 1 2.999-.001m20 0a1.5 1.5 0 1 1-2.999.001 1.5 1.5 0 0 1 2.999-.001m20 0a1.5 1.5 0 1 1-2.999.001 1.5 1.5 0 0 1 2.999-.001m20 0a1.5 1.5 0 1 1-2.999.001 1.5 1.5 0 0 1 2.999-.001m20 0a1.5 1.5 0 1 1-2.999.001 1.5 1.5 0 0 1 2.999-.001m-80 20a1.5 1.5 0 1 1-2.999.001 1.5 1.5 0 0 1 2.999-.001m20 0a1.5 1.5 0 1 1-2.999.001 1.5 1.5 0 0 1 2.999-.001m20 0a1.5 1.5 0 1 1-2.999.001 1.5 1.5 0 0 1 2.999-.001m20 0a1.5 1.5 0 1 1-2.999.001 1.5 1.5 0 0 1 2.999-.001m20 0a1.5 1.5 0 1 1-2.999.001 1.5 1.5 0 0 1 2.999-.001m-80 20a1.5 1.5 0 1 1-2.999.001 1.5 1.5 0 0 1 2.999-.001m20 0a1.5 1.5 0 1 1-2.999.001 1.5 1.5 0 0 1 2.999-.001m20 0a1.5 1.5 0 1 1-2.999.001 1.5 1.5 0 0 1 2.999-.001m20 0a1.5 1.5 0 1 1-2.999.001 1.5 1.5 0 0 1 2.999-.001m20 0a1.5 1.5 0 1 1-2.999.001 1.5 1.5 0 0 1 2.999-.001m-80 20a1.5 1.5 0 1 1-2.999.001 1.5 1.5 0 0 1 2.999-.001m20 0a1.5 1.5 0 1 1-2.999.001 1.5 1.5 0 0 1 2.999-.001m20 0a1.5 1.5 0 1 1-2.999.001 1.5 1.5 0 0 1 2.999-.001m20 0a1.5 1.5 0 1 1-2.999.001 1.5 1.5 0 0 1 2.999-.001m20 0a1.5 1.5 0 1 1-2.999.001 1.5 1.5 0 0 1 2.999-.001m-80 20a1.5 1.5 0 1 1-2.999.001 1.5 1.5 0 0 1 2.999-.001m20 0a1.5 1.5 0 1 1-2.999.001 1.5 1.5 0 0 1 2.999-.001m20 0a1.5 1.5 0 1 1-2.999.001 1.5 1.5 0 0 1 2.999-.001m20 0a1.5 1.5 0 1 1-2.999.001 1.5 1.5 0 0 1 2.999-.001m20 0a1.5 1.5 0 1 1-2.999.001 1.5 1.5 0 0 1 2.999-.001m-680 20a1.5 1.5 0 1 1-3.001-.001 1.5 1.5 0 0 1 3.001.001m20 0a1.5 1.5 0 1 1-3.001-.001 1.5 1.5 0 0 1 3.001.001m20 0a1.5 1.5 0 1 1-3.001-.001 1.5 1.5 0 0 1 3.001.001m20 0a1.5 1.5 0 1 1-3.001-.001 1.5 1.5 0 0 1 3.001.001m20 0a1.5 1.5 0 1 1-3.001-.001 1.5 1.5 0 0 1 3.001.001m20 0a1.5 1.5 0 1 1-3.001-.001 1.5 1.5 0 0 1 3.001.001m20 0a1.5 1.5 0 1 1-3.001-.001 1.5 1.5 0 0 1 3.001.001m20 0a1.5 1.5 0 1 1-3.001-.001 1.5 1.5 0 0 1 3.001.001m20 0a1.5 1.5 0 1 1-3.001-.001 1.5 1.5 0 0 1 3.001.001m20 0a1.5 1.5 0 1 1-3.001-.001 1.5 1.5 0 0 1 3.001.001m20 0a1.5 1.5 0 1 1-3.001-.001 1.5 1.5 0 0 1 3.001.001m20 0a1.5 1.5 0 1 1-3.001-.001 1.5 1.5 0 0 1 3.001.001m20 0a1.5 1.5 0 1 1-3.001-.001 1.5 1.5 0 0 1 3.001.001m20 0a1.5 1.5 0 1 1-3.001-.001 1.5 1.5 0 0 1 3.001.001m20 0a1.5 1.5 0 1 1-3.001-.001 1.5 1.5 0 0 1 3.001.001m-280 20a1.5 1.5 0 1 1-2.999.001A1.5 1.5 0 0 1 623 261.5m20 0a1.5 1.5 0 1 1-2.999.001A1.5 1.5 0 0 1 643 261.5m20 0a1.5 1.5 0 1 1-2.999.001A1.5 1.5 0 0 1 663 261.5m20 0a1.5 1.5 0 1 1-2.999.001A1.5 1.5 0 0 1 683 261.5m20 0a1.5 1.5 0 1 1-2.999.001A1.5 1.5 0 0 1 703 261.5m20 0a1.5 1.5 0 1 1-2.999.001A1.5 1.5 0 0 1 723 261.5m20 0a1.5 1.5 0 1 1-2.999.001A1.5 1.5 0 0 1 743 261.5m20 0a1.5 1.5 0 1 1-2.999.001A1.5 1.5 0 0 1 763 261.5m20 0a1.5 1.5 0 1 1-2.999.001A1.5 1.5 0 0 1 783 261.5m20 0a1.5 1.5 0 1 1-2.999.001A1.5 1.5 0 0 1 803 261.5m20 0a1.5 1.5 0 1 1-2.999.001A1.5 1.5 0 0 1 823 261.5m20 0a1.5 1.5 0 1 1-2.999.001A1.5 1.5 0 0 1 843 261.5m20 0a1.5 1.5 0 1 1-2.999.001A1.5 1.5 0 0 1 863 261.5m20 0a1.5 1.5 0 1 1-2.999.001A1.5 1.5 0 0 1 883 261.5m20 0a1.5 1.5 0 1 1-2.999.001A1.5 1.5 0 0 1 903 261.5m-280 20a1.5 1.5 0 1 1-2.999.001A1.5 1.5 0 0 1 623 281.5m20 0a1.5 1.5 0 1 1-2.999.001A1.5 1.5 0 0 1 643 281.5m20 0a1.5 1.5 0 1 1-2.999.001A1.5 1.5 0 0 1 663 281.5m20 0a1.5 1.5 0 1 1-2.999.001A1.5 1.5 0 0 1 683 281.5m20 0a1.5 1.5 0 1 1-2.999.001A1.5 1.5 0 0 1 703 281.5m20 0a1.5 1.5 0 1 1-2.999.001A1.5 1.5 0 0 1 723 281.5m20 0a1.5 1.5 0 1 1-2.999.001A1.5 1.5 0 0 1 743 281.5m20 0a1.5 1.5 0 1 1-2.999.001A1.5 1.5 0 0 1 763 281.5m20 0a1.5 1.5 0 1 1-2.999.001A1.5 1.5 0 0 1 783 281.5m20 0a1.5 1.5 0 1 1-2.999.001A1.5 1.5 0 0 1 803 281.5m20 0a1.5 1.5 0 1 1-2.999.001A1.5 1.5 0 0 1 823 281.5m20 0a1.5 1.5 0 1 1-2.999.001A1.5 1.5 0 0 1 843 281.5m20 0a1.5 1.5 0 1 1-2.999.001A1.5 1.5 0 0 1 863 281.5m20 0a1.5 1.5 0 1 1-2.999.001A1.5 1.5 0 0 1 883 281.5m20 0a1.5 1.5 0 1 1-2.999.001A1.5 1.5 0 0 1 903 281.5m-280 20a1.5 1.5 0 1 1-2.999.001A1.5 1.5 0 0 1 623 301.5m20 0a1.5 1.5 0 1 1-2.999.001A1.5 1.5 0 0 1 643 301.5m20 0a1.5 1.5 0 1 1-2.999.001A1.5 1.5 0 0 1 663 301.5m20 0a1.5 1.5 0 1 1-2.999.001A1.5 1.5 0 0 1 683 301.5m20 0a1.5 1.5 0 1 1-2.999.001A1.5 1.5 0 0 1 703 301.5m20 0a1.5 1.5 0 1 1-2.999.001A1.5 1.5 0 0 1 723 301.5m20 0a1.5 1.5 0 1 1-2.999.001A1.5 1.5 0 0 1 743 301.5m20 0a1.5 1.5 0 1 1-2.999.001A1.5 1.5 0 0 1 763 301.5m20 0a1.5 1.5 0 1 1-2.999.001A1.5 1.5 0 0 1 783 301.5m20 0a1.5 1.5 0 1 1-2.999.001A1.5 1.5 0 0 1 803 301.5m20 0a1.5 1.5 0 1 1-2.999.001A1.5 1.5 0 0 1 823 301.5m20 0a1.5 1.5 0 1 1-2.999.001A1.5 1.5 0 0 1 843 301.5m20 0a1.5 1.5 0 1 1-2.999.001A1.5 1.5 0 0 1 863 301.5m20 0a1.5 1.5 0 1 1-2.999.001A1.5 1.5 0 0 1 883 301.5m20 0a1.5 1.5 0 1 1-2.999.001A1.5 1.5 0 0 1 903 301.5m-280 20a1.5 1.5 0 1 1-2.999.001A1.5 1.5 0 0 1 623 321.5m20 0a1.5 1.5 0 1 1-2.999.001A1.5 1.5 0 0 1 643 321.5m20 0a1.5 1.5 0 1 1-2.999.001A1.5 1.5 0 0 1 663 321.5m20 0a1.5 1.5 0 1 1-2.999.001A1.5 1.5 0 0 1 683 321.5m20 0a1.5 1.5 0 1 1-2.999.001A1.5 1.5 0 0 1 703 321.5m20 0a1.5 1.5 0 1 1-2.999.001A1.5 1.5 0 0 1 723 321.5m20 0a1.5 1.5 0 1 1-2.999.001A1.5 1.5 0 0 1 743 321.5m20 0a1.5 1.5 0 1 1-2.999.001A1.5 1.5 0 0 1 763 321.5m20 0a1.5 1.5 0 1 1-2.999.001A1.5 1.5 0 0 1 783 321.5m20 0a1.5 1.5 0 1 1-2.999.001A1.5 1.5 0 0 1 803 321.5m20 0a1.5 1.5 0 1 1-2.999.001A1.5 1.5 0 0 1 823 321.5m20 0a1.5 1.5 0 1 1-2.999.001A1.5 1.5 0 0 1 843 321.5m20 0a1.5 1.5 0 1 1-2.999.001A1.5 1.5 0 0 1 863 321.5m20 0a1.5 1.5 0 1 1-2.999.001A1.5 1.5 0 0 1 883 321.5m20 0a1.5 1.5 0 1 1-2.999.001A1.5 1.5 0 0 1 903 321.5m-280 20a1.5 1.5 0 1 1-2.999.001A1.5 1.5 0 0 1 623 341.5m20 0a1.5 1.5 0 1 1-2.999.001A1.5 1.5 0 0 1 643 341.5m20 0a1.5 1.5 0 1 1-2.999.001A1.5 1.5 0 0 1 663 341.5m20 0a1.5 1.5 0 1 1-2.999.001A1.5 1.5 0 0 1 683 341.5m20 0a1.5 1.5 0 1 1-2.999.001A1.5 1.5 0 0 1 703 341.5m20 0a1.5 1.5 0 1 1-2.999.001A1.5 1.5 0 0 1 723 341.5m20 0a1.5 1.5 0 1 1-2.999.001A1.5 1.5 0 0 1 743 341.5m20 0a1.5 1.5 0 1 1-2.999.001A1.5 1.5 0 0 1 763 341.5m20 0a1.5 1.5 0 1 1-2.999.001A1.5 1.5 0 0 1 783 341.5m20 0a1.5 1.5 0 1 1-2.999.001A1.5 1.5 0 0 1 803 341.5m20 0a1.5 1.5 0 1 1-2.999.001A1.5 1.5 0 0 1 823 341.5m20 0a1.5 1.5 0 1 1-2.999.001A1.5 1.5 0 0 1 843 341.5m20 0a1.5 1.5 0 1 1-2.999.001A1.5 1.5 0 0 1 863 341.5m20 0a1.5 1.5 0 1 1-2.999.001A1.5 1.5 0 0 1 883 341.5m20 0a1.5 1.5 0 1 1-2.999.001A1.5 1.5 0 0 1 903 341.5m-280 20a1.5 1.5 0 1 1-2.999.001A1.5 1.5 0 0 1 623 361.5m20 0a1.5 1.5 0 1 1-2.999.001A1.5 1.5 0 0 1 643 361.5m20 0a1.5 1.5 0 1 1-2.999.001A1.5 1.5 0 0 1 663 361.5m20 0a1.5 1.5 0 1 1-2.999.001A1.5 1.5 0 0 1 683 361.5m20 0a1.5 1.5 0 1 1-2.999.001A1.5 1.5 0 0 1 703 361.5m20 0a1.5 1.5 0 1 1-2.999.001A1.5 1.5 0 0 1 723 361.5m20 0a1.5 1.5 0 1 1-2.999.001A1.5 1.5 0 0 1 743 361.5m20 0a1.5 1.5 0 1 1-2.999.001A1.5 1.5 0 0 1 763 361.5m20 0a1.5 1.5 0 1 1-2.999.001A1.5 1.5 0 0 1 783 361.5m20 0a1.5 1.5 0 1 1-2.999.001A1.5 1.5 0 0 1 803 361.5m20 0a1.5 1.5 0 1 1-2.999.001A1.5 1.5 0 0 1 823 361.5m20 0a1.5 1.5 0 1 1-2.999.001A1.5 1.5 0 0 1 843 361.5m20 0a1.5 1.5 0 1 1-2.999.001A1.5 1.5 0 0 1 863 361.5m20 0a1.5 1.5 0 1 1-2.999.001A1.5 1.5 0 0 1 883 361.5m20 0a1.5 1.5 0 1 1-2.999.001A1.5 1.5 0 0 1 903 361.5m-280 20a1.5 1.5 0 1 1-2.999.001A1.5 1.5 0 0 1 623 381.5m20 0a1.5 1.5 0 1 1-2.999.001A1.5 1.5 0 0 1 643 381.5m20 0a1.5 1.5 0 1 1-2.999.001A1.5 1.5 0 0 1 663 381.5m20 0a1.5 1.5 0 1 1-2.999.001A1.5 1.5 0 0 1 683 381.5m20 0a1.5 1.5 0 1 1-2.999.001A1.5 1.5 0 0 1 703 381.5m20 0a1.5 1.5 0 1 1-2.999.001A1.5 1.5 0 0 1 723 381.5m20 0a1.5 1.5 0 1 1-2.999.001A1.5 1.5 0 0 1 743 381.5m20 0a1.5 1.5 0 1 1-2.999.001A1.5 1.5 0 0 1 763 381.5m20 0a1.5 1.5 0 1 1-2.999.001A1.5 1.5 0 0 1 783 381.5m20 0a1.5 1.5 0 1 1-2.999.001A1.5 1.5 0 0 1 803 381.5m20 0a1.5 1.5 0 1 1-2.999.001A1.5 1.5 0 0 1 823 381.5m20 0a1.5 1.5 0 1 1-2.999.001A1.5 1.5 0 0 1 843 381.5m20 0a1.5 1.5 0 1 1-2.999.001A1.5 1.5 0 0 1 863 381.5m20 0a1.5 1.5 0 1 1-2.999.001A1.5 1.5 0 0 1 883 381.5m20 0a1.5 1.5 0 1 1-2.999.001A1.5 1.5 0 0 1 903 381.5m20-140a1.5 1.5 0 1 1-3.001-.001 1.5 1.5 0 0 1 3.001.001m20 0a1.5 1.5 0 1 1-2.999.001A1.5 1.5 0 0 1 943 241.5m20 0a1.5 1.5 0 1 1-2.999.001A1.5 1.5 0 0 1 963 241.5m20 0a1.5 1.5 0 1 1-2.999.001A1.5 1.5 0 0 1 983 241.5m20 0a1.5 1.5 0 1 1-2.999.001 1.5 1.5 0 0 1 2.999-.001m20 0a1.5 1.5 0 1 1-2.999.001 1.5 1.5 0 0 1 2.999-.001m20 0a1.5 1.5 0 1 1-2.999.001 1.5 1.5 0 0 1 2.999-.001m20 0a1.5 1.5 0 1 1-2.999.001 1.5 1.5 0 0 1 2.999-.001m20 0a1.5 1.5 0 1 1-2.999.001 1.5 1.5 0 0 1 2.999-.001m20 0a1.5 1.5 0 1 1-2.999.001 1.5 1.5 0 0 1 2.999-.001m20 0a1.5 1.5 0 1 1-2.999.001 1.5 1.5 0 0 1 2.999-.001m20 0a1.5 1.5 0 1 1-2.999.001 1.5 1.5 0 0 1 2.999-.001m20 0a1.5 1.5 0 1 1-2.999.001 1.5 1.5 0 0 1 2.999-.001m20 0a1.5 1.5 0 1 1-2.999.001 1.5 1.5 0 0 1 2.999-.001m20 0a1.5 1.5 0 1 1-2.999.001 1.5 1.5 0 0 1 2.999-.001m-280 20a1.5 1.5 0 1 1-2.999.001A1.5 1.5 0 0 1 923 261.5m20 0c0 .83-.67 1.5-1.5 1.5s-1.5-.67-1.5-1.5.67-1.5 1.5-1.5 1.5.67 1.5 1.5m20 0c0 .83-.67 1.5-1.5 1.5s-1.5-.67-1.5-1.5.67-1.5 1.5-1.5 1.5.67 1.5 1.5m20 0c0 .83-.67 1.5-1.5 1.5s-1.5-.67-1.5-1.5.67-1.5 1.5-1.5 1.5.67 1.5 1.5m20 0c0 .83-.67 1.5-1.5 1.5s-1.5-.67-1.5-1.5.67-1.5 1.5-1.5 1.5.67 1.5 1.5m20 0c0 .83-.67 1.5-1.5 1.5s-1.5-.67-1.5-1.5.67-1.5 1.5-1.5 1.5.67 1.5 1.5m20 0c0 .83-.67 1.5-1.5 1.5s-1.5-.67-1.5-1.5.67-1.5 1.5-1.5 1.5.67 1.5 1.5m20 0c0 .83-.67 1.5-1.5 1.5s-1.5-.67-1.5-1.5.67-1.5 1.5-1.5 1.5.67 1.5 1.5m20 0c0 .83-.67 1.5-1.5 1.5s-1.5-.67-1.5-1.5.67-1.5 1.5-1.5 1.5.67 1.5 1.5m20 0c0 .83-.67 1.5-1.5 1.5s-1.5-.67-1.5-1.5.67-1.5 1.5-1.5 1.5.67 1.5 1.5m20 0c0 .83-.67 1.5-1.5 1.5s-1.5-.67-1.5-1.5.67-1.5 1.5-1.5 1.5.67 1.5 1.5m20 0c0 .83-.67 1.5-1.5 1.5s-1.5-.67-1.5-1.5.67-1.5 1.5-1.5 1.5.67 1.5 1.5m20 0c0 .83-.67 1.5-1.5 1.5s-1.5-.67-1.5-1.5.67-1.5 1.5-1.5 1.5.67 1.5 1.5m20 0c0 .83-.67 1.5-1.5 1.5s-1.5-.67-1.5-1.5.67-1.5 1.5-1.5 1.5.67 1.5 1.5m20 0c0 .83-.67 1.5-1.5 1.5s-1.5-.67-1.5-1.5.67-1.5 1.5-1.5 1.5.67 1.5 1.5m-280 20a1.5 1.5 0 1 1-2.999.001A1.5 1.5 0 0 1 923 281.5m20 0c0 .83-.67 1.5-1.5 1.5s-1.5-.67-1.5-1.5.67-1.5 1.5-1.5 1.5.67 1.5 1.5m20 0c0 .83-.67 1.5-1.5 1.5s-1.5-.67-1.5-1.5.67-1.5 1.5-1.5 1.5.67 1.5 1.5m20 0c0 .83-.67 1.5-1.5 1.5s-1.5-.67-1.5-1.5.67-1.5 1.5-1.5 1.5.67 1.5 1.5m20 0c0 .83-.67 1.5-1.5 1.5s-1.5-.67-1.5-1.5.67-1.5 1.5-1.5 1.5.67 1.5 1.5m20 0c0 .83-.67 1.5-1.5 1.5s-1.5-.67-1.5-1.5.67-1.5 1.5-1.5 1.5.67 1.5 1.5m20 0c0 .83-.67 1.5-1.5 1.5s-1.5-.67-1.5-1.5.67-1.5 1.5-1.5 1.5.67 1.5 1.5m20 0c0 .83-.67 1.5-1.5 1.5s-1.5-.67-1.5-1.5.67-1.5 1.5-1.5 1.5.67 1.5 1.5m20 0c0 .83-.67 1.5-1.5 1.5s-1.5-.67-1.5-1.5.67-1.5 1.5-1.5 1.5.67 1.5 1.5m20 0c0 .83-.67 1.5-1.5 1.5s-1.5-.67-1.5-1.5.67-1.5 1.5-1.5 1.5.67 1.5 1.5m20 0c0 .83-.67 1.5-1.5 1.5s-1.5-.67-1.5-1.5.67-1.5 1.5-1.5 1.5.67 1.5 1.5m20 0c0 .83-.67 1.5-1.5 1.5s-1.5-.67-1.5-1.5.67-1.5 1.5-1.5 1.5.67 1.5 1.5m20 0c0 .83-.67 1.5-1.5 1.5s-1.5-.67-1.5-1.5.67-1.5 1.5-1.5 1.5.67 1.5 1.5m20 0c0 .83-.67 1.5-1.5 1.5s-1.5-.67-1.5-1.5.67-1.5 1.5-1.5 1.5.67 1.5 1.5m20 0c0 .83-.67 1.5-1.5 1.5s-1.5-.67-1.5-1.5.67-1.5 1.5-1.5 1.5.67 1.5 1.5m-280 20a1.5 1.5 0 1 1-2.999.001A1.5 1.5 0 0 1 923 301.5m20 0c0 .83-.67 1.5-1.5 1.5s-1.5-.67-1.5-1.5.67-1.5 1.5-1.5 1.5.67 1.5 1.5m20 0c0 .83-.67 1.5-1.5 1.5s-1.5-.67-1.5-1.5.67-1.5 1.5-1.5 1.5.67 1.5 1.5m20 0c0 .83-.67 1.5-1.5 1.5s-1.5-.67-1.5-1.5.67-1.5 1.5-1.5 1.5.67 1.5 1.5m20 0c0 .83-.67 1.5-1.5 1.5s-1.5-.67-1.5-1.5.67-1.5 1.5-1.5 1.5.67 1.5 1.5m20 0c0 .83-.67 1.5-1.5 1.5s-1.5-.67-1.5-1.5.67-1.5 1.5-1.5 1.5.67 1.5 1.5m20 0c0 .83-.67 1.5-1.5 1.5s-1.5-.67-1.5-1.5.67-1.5 1.5-1.5 1.5.67 1.5 1.5m20 0c0 .83-.67 1.5-1.5 1.5s-1.5-.67-1.5-1.5.67-1.5 1.5-1.5 1.5.67 1.5 1.5m20 0c0 .83-.67 1.5-1.5 1.5s-1.5-.67-1.5-1.5.67-1.5 1.5-1.5 1.5.67 1.5 1.5m20 0c0 .83-.67 1.5-1.5 1.5s-1.5-.67-1.5-1.5.67-1.5 1.5-1.5 1.5.67 1.5 1.5m20 0c0 .83-.67 1.5-1.5 1.5s-1.5-.67-1.5-1.5.67-1.5 1.5-1.5 1.5.67 1.5 1.5m20 0c0 .83-.67 1.5-1.5 1.5s-1.5-.67-1.5-1.5.67-1.5 1.5-1.5 1.5.67 1.5 1.5m20 0c0 .83-.67 1.5-1.5 1.5s-1.5-.67-1.5-1.5.67-1.5 1.5-1.5 1.5.67 1.5 1.5m20 0c0 .83-.67 1.5-1.5 1.5s-1.5-.67-1.5-1.5.67-1.5 1.5-1.5 1.5.67 1.5 1.5m20 0c0 .83-.67 1.5-1.5 1.5s-1.5-.67-1.5-1.5.67-1.5 1.5-1.5 1.5.67 1.5 1.5m-280 20a1.5 1.5 0 1 1-2.999.001A1.5 1.5 0 0 1 923 321.5m20 0c0 .83-.67 1.5-1.5 1.5s-1.5-.67-1.5-1.5.67-1.5 1.5-1.5 1.5.67 1.5 1.5m20 0c0 .83-.67 1.5-1.5 1.5s-1.5-.67-1.5-1.5.67-1.5 1.5-1.5 1.5.67 1.5 1.5m20 0c0 .83-.67 1.5-1.5 1.5s-1.5-.67-1.5-1.5.67-1.5 1.5-1.5 1.5.67 1.5 1.5m20 0c0 .83-.67 1.5-1.5 1.5s-1.5-.67-1.5-1.5.67-1.5 1.5-1.5 1.5.67 1.5 1.5m20 0c0 .83-.67 1.5-1.5 1.5s-1.5-.67-1.5-1.5.67-1.5 1.5-1.5 1.5.67 1.5 1.5m20 0c0 .83-.67 1.5-1.5 1.5s-1.5-.67-1.5-1.5.67-1.5 1.5-1.5 1.5.67 1.5 1.5m20 0c0 .83-.67 1.5-1.5 1.5s-1.5-.67-1.5-1.5.67-1.5 1.5-1.5 1.5.67 1.5 1.5m20 0c0 .83-.67 1.5-1.5 1.5s-1.5-.67-1.5-1.5.67-1.5 1.5-1.5 1.5.67 1.5 1.5m20 0c0 .83-.67 1.5-1.5 1.5s-1.5-.67-1.5-1.5.67-1.5 1.5-1.5 1.5.67 1.5 1.5m20 0c0 .83-.67 1.5-1.5 1.5s-1.5-.67-1.5-1.5.67-1.5 1.5-1.5 1.5.67 1.5 1.5m20 0c0 .83-.67 1.5-1.5 1.5s-1.5-.67-1.5-1.5.67-1.5 1.5-1.5 1.5.67 1.5 1.5m20 0c0 .83-.67 1.5-1.5 1.5s-1.5-.67-1.5-1.5.67-1.5 1.5-1.5 1.5.67 1.5 1.5m20 0c0 .83-.67 1.5-1.5 1.5s-1.5-.67-1.5-1.5.67-1.5 1.5-1.5 1.5.67 1.5 1.5m20 0c0 .83-.67 1.5-1.5 1.5s-1.5-.67-1.5-1.5.67-1.5 1.5-1.5 1.5.67 1.5 1.5m-280 20a1.5 1.5 0 1 1-2.999.001A1.5 1.5 0 0 1 923 341.5m20 0c0 .83-.67 1.5-1.5 1.5s-1.5-.67-1.5-1.5.67-1.5 1.5-1.5 1.5.67 1.5 1.5m20 0c0 .83-.67 1.5-1.5 1.5s-1.5-.67-1.5-1.5.67-1.5 1.5-1.5 1.5.67 1.5 1.5m20 0c0 .83-.67 1.5-1.5 1.5s-1.5-.67-1.5-1.5.67-1.5 1.5-1.5 1.5.67 1.5 1.5m20 0c0 .83-.67 1.5-1.5 1.5s-1.5-.67-1.5-1.5.67-1.5 1.5-1.5 1.5.67 1.5 1.5m20 0c0 .83-.67 1.5-1.5 1.5s-1.5-.67-1.5-1.5.67-1.5 1.5-1.5 1.5.67 1.5 1.5m20 0c0 .83-.67 1.5-1.5 1.5s-1.5-.67-1.5-1.5.67-1.5 1.5-1.5 1.5.67 1.5 1.5m20 0c0 .83-.67 1.5-1.5 1.5s-1.5-.67-1.5-1.5.67-1.5 1.5-1.5 1.5.67 1.5 1.5m20 0c0 .83-.67 1.5-1.5 1.5s-1.5-.67-1.5-1.5.67-1.5 1.5-1.5 1.5.67 1.5 1.5m20 0c0 .83-.67 1.5-1.5 1.5s-1.5-.67-1.5-1.5.67-1.5 1.5-1.5 1.5.67 1.5 1.5m20 0c0 .83-.67 1.5-1.5 1.5s-1.5-.67-1.5-1.5.67-1.5 1.5-1.5 1.5.67 1.5 1.5m20 0c0 .83-.67 1.5-1.5 1.5s-1.5-.67-1.5-1.5.67-1.5 1.5-1.5 1.5.67 1.5 1.5m20 0c0 .83-.67 1.5-1.5 1.5s-1.5-.67-1.5-1.5.67-1.5 1.5-1.5 1.5.67 1.5 1.5m20 0c0 .83-.67 1.5-1.5 1.5s-1.5-.67-1.5-1.5.67-1.5 1.5-1.5 1.5.67 1.5 1.5m20 0c0 .83-.67 1.5-1.5 1.5s-1.5-.67-1.5-1.5.67-1.5 1.5-1.5 1.5.67 1.5 1.5m-280 20a1.5 1.5 0 1 1-2.999.001A1.5 1.5 0 0 1 923 361.5m20 0c0 .83-.67 1.5-1.5 1.5s-1.5-.67-1.5-1.5.67-1.5 1.5-1.5 1.5.67 1.5 1.5m20 0c0 .83-.67 1.5-1.5 1.5s-1.5-.67-1.5-1.5.67-1.5 1.5-1.5 1.5.67 1.5 1.5m20 0c0 .83-.67 1.5-1.5 1.5s-1.5-.67-1.5-1.5.67-1.5 1.5-1.5 1.5.67 1.5 1.5m20 0c0 .83-.67 1.5-1.5 1.5s-1.5-.67-1.5-1.5.67-1.5 1.5-1.5 1.5.67 1.5 1.5m20 0c0 .83-.67 1.5-1.5 1.5s-1.5-.67-1.5-1.5.67-1.5 1.5-1.5 1.5.67 1.5 1.5m20 0c0 .83-.67 1.5-1.5 1.5s-1.5-.67-1.5-1.5.67-1.5 1.5-1.5 1.5.67 1.5 1.5m20 0c0 .83-.67 1.5-1.5 1.5s-1.5-.67-1.5-1.5.67-1.5 1.5-1.5 1.5.67 1.5 1.5m20 0c0 .83-.67 1.5-1.5 1.5s-1.5-.67-1.5-1.5.67-1.5 1.5-1.5 1.5.67 1.5 1.5m20 0c0 .83-.67 1.5-1.5 1.5s-1.5-.67-1.5-1.5.67-1.5 1.5-1.5 1.5.67 1.5 1.5m20 0c0 .83-.67 1.5-1.5 1.5s-1.5-.67-1.5-1.5.67-1.5 1.5-1.5 1.5.67 1.5 1.5m20 0c0 .83-.67 1.5-1.5 1.5s-1.5-.67-1.5-1.5.67-1.5 1.5-1.5 1.5.67 1.5 1.5m20 0c0 .83-.67 1.5-1.5 1.5s-1.5-.67-1.5-1.5.67-1.5 1.5-1.5 1.5.67 1.5 1.5m20 0c0 .83-.67 1.5-1.5 1.5s-1.5-.67-1.5-1.5.67-1.5 1.5-1.5 1.5.67 1.5 1.5m20 0c0 .83-.67 1.5-1.5 1.5s-1.5-.67-1.5-1.5.67-1.5 1.5-1.5 1.5.67 1.5 1.5m-280 20a1.5 1.5 0 1 1-2.999.001A1.5 1.5 0 0 1 923 381.5m20 0c0 .83-.67 1.5-1.5 1.5s-1.5-.67-1.5-1.5.67-1.5 1.5-1.5 1.5.67 1.5 1.5m20 0c0 .83-.67 1.5-1.5 1.5s-1.5-.67-1.5-1.5.67-1.5 1.5-1.5 1.5.67 1.5 1.5m20 0c0 .83-.67 1.5-1.5 1.5s-1.5-.67-1.5-1.5.67-1.5 1.5-1.5 1.5.67 1.5 1.5m20 0c0 .83-.67 1.5-1.5 1.5s-1.5-.67-1.5-1.5.67-1.5 1.5-1.5 1.5.67 1.5 1.5m20 0c0 .83-.67 1.5-1.5 1.5s-1.5-.67-1.5-1.5.67-1.5 1.5-1.5 1.5.67 1.5 1.5m20 0c0 .83-.67 1.5-1.5 1.5s-1.5-.67-1.5-1.5.67-1.5 1.5-1.5 1.5.67 1.5 1.5m20 0c0 .83-.67 1.5-1.5 1.5s-1.5-.67-1.5-1.5.67-1.5 1.5-1.5 1.5.67 1.5 1.5m20 0c0 .83-.67 1.5-1.5 1.5s-1.5-.67-1.5-1.5.67-1.5 1.5-1.5 1.5.67 1.5 1.5m20 0c0 .83-.67 1.5-1.5 1.5s-1.5-.67-1.5-1.5.67-1.5 1.5-1.5 1.5.67 1.5 1.5m20 0c0 .83-.67 1.5-1.5 1.5s-1.5-.67-1.5-1.5.67-1.5 1.5-1.5 1.5.67 1.5 1.5m20 0c0 .83-.67 1.5-1.5 1.5s-1.5-.67-1.5-1.5.67-1.5 1.5-1.5 1.5.67 1.5 1.5m20 0c0 .83-.67 1.5-1.5 1.5s-1.5-.67-1.5-1.5.67-1.5 1.5-1.5 1.5.67 1.5 1.5m20 0c0 .83-.67 1.5-1.5 1.5s-1.5-.67-1.5-1.5.67-1.5 1.5-1.5 1.5.67 1.5 1.5m20 0c0 .83-.67 1.5-1.5 1.5s-1.5-.67-1.5-1.5.67-1.5 1.5-1.5 1.5.67 1.5 1.5m20-140a1.5 1.5 0 1 1-2.999.001 1.5 1.5 0 0 1 2.999-.001m20 0a1.5 1.5 0 1 1-2.999.001 1.5 1.5 0 0 1 2.999-.001m20 0a1.5 1.5 0 1 1-2.999.001 1.5 1.5 0 0 1 2.999-.001m20 0a1.5 1.5 0 1 1-2.999.001 1.5 1.5 0 0 1 2.999-.001m20 0a1.5 1.5 0 1 1-2.999.001 1.5 1.5 0 0 1 2.999-.001m-80 20c0 .83-.67 1.5-1.5 1.5s-1.5-.67-1.5-1.5.67-1.5 1.5-1.5 1.5.67 1.5 1.5m20 0c0 .83-.67 1.5-1.5 1.5s-1.5-.67-1.5-1.5.67-1.5 1.5-1.5 1.5.67 1.5 1.5m20 0c0 .83-.67 1.5-1.5 1.5s-1.5-.67-1.5-1.5.67-1.5 1.5-1.5 1.5.67 1.5 1.5m20 0c0 .83-.67 1.5-1.5 1.5s-1.5-.67-1.5-1.5.67-1.5 1.5-1.5 1.5.67 1.5 1.5m20 0c0 .83-.67 1.5-1.5 1.5s-1.5-.67-1.5-1.5.67-1.5 1.5-1.5 1.5.67 1.5 1.5m-80 20c0 .83-.67 1.5-1.5 1.5s-1.5-.67-1.5-1.5.67-1.5 1.5-1.5 1.5.67 1.5 1.5m20 0c0 .83-.67 1.5-1.5 1.5s-1.5-.67-1.5-1.5.67-1.5 1.5-1.5 1.5.67 1.5 1.5m20 0c0 .83-.67 1.5-1.5 1.5s-1.5-.67-1.5-1.5.67-1.5 1.5-1.5 1.5.67 1.5 1.5m20 0c0 .83-.67 1.5-1.5 1.5s-1.5-.67-1.5-1.5.67-1.5 1.5-1.5 1.5.67 1.5 1.5m20 0c0 .83-.67 1.5-1.5 1.5s-1.5-.67-1.5-1.5.67-1.5 1.5-1.5 1.5.67 1.5 1.5m-80 20c0 .83-.67 1.5-1.5 1.5s-1.5-.67-1.5-1.5.67-1.5 1.5-1.5 1.5.67 1.5 1.5m20 0c0 .83-.67 1.5-1.5 1.5s-1.5-.67-1.5-1.5.67-1.5 1.5-1.5 1.5.67 1.5 1.5m20 0c0 .83-.67 1.5-1.5 1.5s-1.5-.67-1.5-1.5.67-1.5 1.5-1.5 1.5.67 1.5 1.5m20 0c0 .83-.67 1.5-1.5 1.5s-1.5-.67-1.5-1.5.67-1.5 1.5-1.5 1.5.67 1.5 1.5m20 0c0 .83-.67 1.5-1.5 1.5s-1.5-.67-1.5-1.5.67-1.5 1.5-1.5 1.5.67 1.5 1.5m-80 20c0 .83-.67 1.5-1.5 1.5s-1.5-.67-1.5-1.5.67-1.5 1.5-1.5 1.5.67 1.5 1.5m20 0c0 .83-.67 1.5-1.5 1.5s-1.5-.67-1.5-1.5.67-1.5 1.5-1.5 1.5.67 1.5 1.5m20 0c0 .83-.67 1.5-1.5 1.5s-1.5-.67-1.5-1.5.67-1.5 1.5-1.5 1.5.67 1.5 1.5m20 0c0 .83-.67 1.5-1.5 1.5s-1.5-.67-1.5-1.5.67-1.5 1.5-1.5 1.5.67 1.5 1.5m20 0c0 .83-.67 1.5-1.5 1.5s-1.5-.67-1.5-1.5.67-1.5 1.5-1.5 1.5.67 1.5 1.5m-80 20c0 .83-.67 1.5-1.5 1.5s-1.5-.67-1.5-1.5.67-1.5 1.5-1.5 1.5.67 1.5 1.5m20 0c0 .83-.67 1.5-1.5 1.5s-1.5-.67-1.5-1.5.67-1.5 1.5-1.5 1.5.67 1.5 1.5m20 0c0 .83-.67 1.5-1.5 1.5s-1.5-.67-1.5-1.5.67-1.5 1.5-1.5 1.5.67 1.5 1.5m20 0c0 .83-.67 1.5-1.5 1.5s-1.5-.67-1.5-1.5.67-1.5 1.5-1.5 1.5.67 1.5 1.5m20 0c0 .83-.67 1.5-1.5 1.5s-1.5-.67-1.5-1.5.67-1.5 1.5-1.5 1.5.67 1.5 1.5m-80 20c0 .83-.67 1.5-1.5 1.5s-1.5-.67-1.5-1.5.67-1.5 1.5-1.5 1.5.67 1.5 1.5m20 0c0 .83-.67 1.5-1.5 1.5s-1.5-.67-1.5-1.5.67-1.5 1.5-1.5 1.5.67 1.5 1.5m20 0c0 .83-.67 1.5-1.5 1.5s-1.5-.67-1.5-1.5.67-1.5 1.5-1.5 1.5.67 1.5 1.5m20 0c0 .83-.67 1.5-1.5 1.5s-1.5-.67-1.5-1.5.67-1.5 1.5-1.5 1.5.67 1.5 1.5m20 0c0 .83-.67 1.5-1.5 1.5s-1.5-.67-1.5-1.5.67-1.5 1.5-1.5 1.5.67 1.5 1.5m-80 20c0 .83-.67 1.5-1.5 1.5s-1.5-.67-1.5-1.5.67-1.5 1.5-1.5 1.5.67 1.5 1.5m20 0c0 .83-.67 1.5-1.5 1.5s-1.5-.67-1.5-1.5.67-1.5 1.5-1.5 1.5.67 1.5 1.5m20 0c0 .83-.67 1.5-1.5 1.5s-1.5-.67-1.5-1.5.67-1.5 1.5-1.5 1.5.67 1.5 1.5m20 0c0 .83-.67 1.5-1.5 1.5s-1.5-.67-1.5-1.5.67-1.5 1.5-1.5 1.5.67 1.5 1.5m20 0c0 .83-.67 1.5-1.5 1.5s-1.5-.67-1.5-1.5.67-1.5 1.5-1.5 1.5.67 1.5 1.5m20-380a1.5 1.5 0 1 1-2.999.001A1.5 1.5 0 0 1 1323 1.5m20 0a1.5 1.5 0 1 1-2.999.001A1.5 1.5 0 0 1 1343 1.5m20 0a1.5 1.5 0 1 1-2.999.001A1.5 1.5 0 0 1 1363 1.5m20 0a1.5 1.5 0 1 1-2.999.001A1.5 1.5 0 0 1 1383 1.5m20 0a1.5 1.5 0 1 1-2.999.001A1.5 1.5 0 0 1 1403 1.5m-80 20a1.5 1.5 0 1 1-2.999.001A1.5 1.5 0 0 1 1323 21.5m20 0a1.5 1.5 0 1 1-2.999.001A1.5 1.5 0 0 1 1343 21.5m20 0a1.5 1.5 0 1 1-2.999.001A1.5 1.5 0 0 1 1363 21.5m20 0a1.5 1.5 0 1 1-2.999.001A1.5 1.5 0 0 1 1383 21.5m20 0a1.5 1.5 0 1 1-2.999.001A1.5 1.5 0 0 1 1403 21.5m-80 20a1.5 1.5 0 1 1-2.999.001A1.5 1.5 0 0 1 1323 41.5m20 0a1.5 1.5 0 1 1-2.999.001A1.5 1.5 0 0 1 1343 41.5m20 0a1.5 1.5 0 1 1-2.999.001A1.5 1.5 0 0 1 1363 41.5m20 0a1.5 1.5 0 1 1-2.999.001A1.5 1.5 0 0 1 1383 41.5m20 0a1.5 1.5 0 1 1-2.999.001A1.5 1.5 0 0 1 1403 41.5m-80 20a1.5 1.5 0 1 1-2.999.001A1.5 1.5 0 0 1 1323 61.5m20 0a1.5 1.5 0 1 1-2.999.001A1.5 1.5 0 0 1 1343 61.5m20 0a1.5 1.5 0 1 1-2.999.001A1.5 1.5 0 0 1 1363 61.5m20 0a1.5 1.5 0 1 1-2.999.001A1.5 1.5 0 0 1 1383 61.5m20 0a1.5 1.5 0 1 1-2.999.001A1.5 1.5 0 0 1 1403 61.5m-80 20a1.5 1.5 0 1 1-2.999.001A1.5 1.5 0 0 1 1323 81.5m20 0a1.5 1.5 0 1 1-2.999.001A1.5 1.5 0 0 1 1343 81.5m20 0a1.5 1.5 0 1 1-2.999.001A1.5 1.5 0 0 1 1363 81.5m20 0a1.5 1.5 0 1 1-2.999.001A1.5 1.5 0 0 1 1383 81.5m20 0a1.5 1.5 0 1 1-2.999.001A1.5 1.5 0 0 1 1403 81.5m-80 20a1.5 1.5 0 1 1-2.999.001 1.5 1.5 0 0 1 2.999-.001m20 0a1.5 1.5 0 1 1-2.999.001 1.5 1.5 0 0 1 2.999-.001m20 0a1.5 1.5 0 1 1-2.999.001 1.5 1.5 0 0 1 2.999-.001m20 0a1.5 1.5 0 1 1-2.999.001 1.5 1.5 0 0 1 2.999-.001m20 0a1.5 1.5 0 1 1-2.999.001 1.5 1.5 0 0 1 2.999-.001m-80 20a1.5 1.5 0 1 1-2.999.001 1.5 1.5 0 0 1 2.999-.001m20 0a1.5 1.5 0 1 1-2.999.001 1.5 1.5 0 0 1 2.999-.001m20 0a1.5 1.5 0 1 1-2.999.001 1.5 1.5 0 0 1 2.999-.001m20 0a1.5 1.5 0 1 1-2.999.001 1.5 1.5 0 0 1 2.999-.001m20 0a1.5 1.5 0 1 1-2.999.001 1.5 1.5 0 0 1 2.999-.001m-80 20a1.5 1.5 0 1 1-2.999.001 1.5 1.5 0 0 1 2.999-.001m20 0a1.5 1.5 0 1 1-2.999.001 1.5 1.5 0 0 1 2.999-.001m20 0a1.5 1.5 0 1 1-2.999.001 1.5 1.5 0 0 1 2.999-.001m20 0a1.5 1.5 0 1 1-2.999.001 1.5 1.5 0 0 1 2.999-.001m20 0a1.5 1.5 0 1 1-2.999.001 1.5 1.5 0 0 1 2.999-.001m-80 20a1.5 1.5 0 1 1-2.999.001 1.5 1.5 0 0 1 2.999-.001m20 0a1.5 1.5 0 1 1-2.999.001 1.5 1.5 0 0 1 2.999-.001m20 0a1.5 1.5 0 1 1-2.999.001 1.5 1.5 0 0 1 2.999-.001m20 0a1.5 1.5 0 1 1-2.999.001 1.5 1.5 0 0 1 2.999-.001m20 0a1.5 1.5 0 1 1-2.999.001 1.5 1.5 0 0 1 2.999-.001m-80 20a1.5 1.5 0 1 1-2.999.001 1.5 1.5 0 0 1 2.999-.001m20 0a1.5 1.5 0 1 1-2.999.001 1.5 1.5 0 0 1 2.999-.001m20 0a1.5 1.5 0 1 1-2.999.001 1.5 1.5 0 0 1 2.999-.001m20 0a1.5 1.5 0 1 1-2.999.001 1.5 1.5 0 0 1 2.999-.001m20 0a1.5 1.5 0 1 1-2.999.001 1.5 1.5 0 0 1 2.999-.001m-80 20a1.5 1.5 0 1 1-2.999.001 1.5 1.5 0 0 1 2.999-.001m20 0a1.5 1.5 0 1 1-2.999.001 1.5 1.5 0 0 1 2.999-.001m20 0a1.5 1.5 0 1 1-2.999.001 1.5 1.5 0 0 1 2.999-.001m20 0a1.5 1.5 0 1 1-2.999.001 1.5 1.5 0 0 1 2.999-.001m20 0a1.5 1.5 0 1 1-2.999.001 1.5 1.5 0 0 1 2.999-.001m-80 20a1.5 1.5 0 1 1-2.999.001 1.5 1.5 0 0 1 2.999-.001m20 0a1.5 1.5 0 1 1-2.999.001 1.5 1.5 0 0 1 2.999-.001m20 0a1.5 1.5 0 1 1-2.999.001 1.5 1.5 0 0 1 2.999-.001m20 0a1.5 1.5 0 1 1-2.999.001 1.5 1.5 0 0 1 2.999-.001m20 0a1.5 1.5 0 1 1-2.999.001 1.5 1.5 0 0 1 2.999-.001m-80 20a1.5 1.5 0 1 1-2.999.001 1.5 1.5 0 0 1 2.999-.001m20 0a1.5 1.5 0 1 1-2.999.001 1.5 1.5 0 0 1 2.999-.001m20 0a1.5 1.5 0 1 1-2.999.001 1.5 1.5 0 0 1 2.999-.001m20 0a1.5 1.5 0 1 1-2.999.001 1.5 1.5 0 0 1 2.999-.001m20 0a1.5 1.5 0 1 1-2.999.001 1.5 1.5 0 0 1 2.999-.001m-80 20c0 .83-.67 1.5-1.5 1.5s-1.5-.67-1.5-1.5.67-1.5 1.5-1.5 1.5.67 1.5 1.5m20 0c0 .83-.67 1.5-1.5 1.5s-1.5-.67-1.5-1.5.67-1.5 1.5-1.5 1.5.67 1.5 1.5m20 0c0 .83-.67 1.5-1.5 1.5s-1.5-.67-1.5-1.5.67-1.5 1.5-1.5 1.5.67 1.5 1.5m20 0c0 .83-.67 1.5-1.5 1.5s-1.5-.67-1.5-1.5.67-1.5 1.5-1.5 1.5.67 1.5 1.5m20 0c0 .83-.67 1.5-1.5 1.5s-1.5-.67-1.5-1.5.67-1.5 1.5-1.5 1.5.67 1.5 1.5m-80 20c0 .83-.67 1.5-1.5 1.5s-1.5-.67-1.5-1.5.67-1.5 1.5-1.5 1.5.67 1.5 1.5m20 0c0 .83-.67 1.5-1.5 1.5s-1.5-.67-1.5-1.5.67-1.5 1.5-1.5 1.5.67 1.5 1.5m20 0c0 .83-.67 1.5-1.5 1.5s-1.5-.67-1.5-1.5.67-1.5 1.5-1.5 1.5.67 1.5 1.5m20 0c0 .83-.67 1.5-1.5 1.5s-1.5-.67-1.5-1.5.67-1.5 1.5-1.5 1.5.67 1.5 1.5m20 0c0 .83-.67 1.5-1.5 1.5s-1.5-.67-1.5-1.5.67-1.5 1.5-1.5 1.5.67 1.5 1.5m-80 20c0 .83-.67 1.5-1.5 1.5s-1.5-.67-1.5-1.5.67-1.5 1.5-1.5 1.5.67 1.5 1.5m20 0c0 .83-.67 1.5-1.5 1.5s-1.5-.67-1.5-1.5.67-1.5 1.5-1.5 1.5.67 1.5 1.5m20 0c0 .83-.67 1.5-1.5 1.5s-1.5-.67-1.5-1.5.67-1.5 1.5-1.5 1.5.67 1.5 1.5m20 0c0 .83-.67 1.5-1.5 1.5s-1.5-.67-1.5-1.5.67-1.5 1.5-1.5 1.5.67 1.5 1.5m20 0c0 .83-.67 1.5-1.5 1.5s-1.5-.67-1.5-1.5.67-1.5 1.5-1.5 1.5.67 1.5 1.5m-80 20c0 .83-.67 1.5-1.5 1.5s-1.5-.67-1.5-1.5.67-1.5 1.5-1.5 1.5.67 1.5 1.5m20 0c0 .83-.67 1.5-1.5 1.5s-1.5-.67-1.5-1.5.67-1.5 1.5-1.5 1.5.67 1.5 1.5m20 0c0 .83-.67 1.5-1.5 1.5s-1.5-.67-1.5-1.5.67-1.5 1.5-1.5 1.5.67 1.5 1.5m20 0c0 .83-.67 1.5-1.5 1.5s-1.5-.67-1.5-1.5.67-1.5 1.5-1.5 1.5.67 1.5 1.5m20 0c0 .83-.67 1.5-1.5 1.5s-1.5-.67-1.5-1.5.67-1.5 1.5-1.5 1.5.67 1.5 1.5m-80 20c0 .83-.67 1.5-1.5 1.5s-1.5-.67-1.5-1.5.67-1.5 1.5-1.5 1.5.67 1.5 1.5m20 0c0 .83-.67 1.5-1.5 1.5s-1.5-.67-1.5-1.5.67-1.5 1.5-1.5 1.5.67 1.5 1.5m20 0c0 .83-.67 1.5-1.5 1.5s-1.5-.67-1.5-1.5.67-1.5 1.5-1.5 1.5.67 1.5 1.5m20 0c0 .83-.67 1.5-1.5 1.5s-1.5-.67-1.5-1.5.67-1.5 1.5-1.5 1.5.67 1.5 1.5m20 0c0 .83-.67 1.5-1.5 1.5s-1.5-.67-1.5-1.5.67-1.5 1.5-1.5 1.5.67 1.5 1.5m-80 20c0 .83-.67 1.5-1.5 1.5s-1.5-.67-1.5-1.5.67-1.5 1.5-1.5 1.5.67 1.5 1.5m20 0c0 .83-.67 1.5-1.5 1.5s-1.5-.67-1.5-1.5.67-1.5 1.5-1.5 1.5.67 1.5 1.5m20 0c0 .83-.67 1.5-1.5 1.5s-1.5-.67-1.5-1.5.67-1.5 1.5-1.5 1.5.67 1.5 1.5m20 0c0 .83-.67 1.5-1.5 1.5s-1.5-.67-1.5-1.5.67-1.5 1.5-1.5 1.5.67 1.5 1.5m20 0c0 .83-.67 1.5-1.5 1.5s-1.5-.67-1.5-1.5.67-1.5 1.5-1.5 1.5.67 1.5 1.5m-80 20c0 .83-.67 1.5-1.5 1.5s-1.5-.67-1.5-1.5.67-1.5 1.5-1.5 1.5.67 1.5 1.5m20 0c0 .83-.67 1.5-1.5 1.5s-1.5-.67-1.5-1.5.67-1.5 1.5-1.5 1.5.67 1.5 1.5m20 0c0 .83-.67 1.5-1.5 1.5s-1.5-.67-1.5-1.5.67-1.5 1.5-1.5 1.5.67 1.5 1.5m20 0c0 .83-.67 1.5-1.5 1.5s-1.5-.67-1.5-1.5.67-1.5 1.5-1.5 1.5.67 1.5 1.5m20 0c0 .83-.67 1.5-1.5 1.5s-1.5-.67-1.5-1.5.67-1.5 1.5-1.5 1.5.67 1.5 1.5" opacity=".18"/></g></svg>