<svg xmlns="http://www.w3.org/2000/svg" width="120" height="30" fill="none"><path fill="#fff" d="M52.278 9.386q-.177-1.66-1.495-2.584-1.304-.925-3.395-.925-1.47 0-2.52.443-1.052.444-1.61 1.204a2.93 2.93 0 0 0-.57 1.735q0 .811.368 1.406.381.596 1.026 1.013.645.406 1.432.684.784.278 1.583.47l2.432.607q1.47.342 2.825.925a10 10 0 0 1 2.445 1.47 6.5 6.5 0 0 1 1.722 2.14q.633 1.254.634 2.939 0 2.28-1.166 4.015-1.165 1.723-3.37 2.698-2.19.963-5.307.963-3.027 0-5.257-.937-2.216-.937-3.47-2.736-1.242-1.8-1.343-4.383h4.623q.102 1.355.837 2.254.735.9 1.912 1.343 1.19.444 2.66.444 1.533 0 2.686-.457 1.166-.468 1.824-1.291.659-.837.671-1.951-.013-1.014-.595-1.672-.583-.672-1.634-1.115a16 16 0 0 0-2.432-.81l-2.952-.76q-3.204-.825-5.067-2.496-1.85-1.685-1.849-4.472 0-2.292 1.241-4.015 1.254-1.723 3.408-2.673 2.153-.963 4.877-.963 2.76 0 4.839.963 2.09.95 3.28 2.647 1.191 1.686 1.229 3.877zm17.351 19.19q-2.85 0-4.94-1.254t-3.243-3.508q-1.14-2.256-1.14-5.27 0-3.015 1.14-5.282 1.152-2.268 3.242-3.522t4.94-1.254 4.94 1.254 3.23 3.522q1.154 2.267 1.154 5.282t-1.153 5.27q-1.14 2.254-3.23 3.508t-4.94 1.254m.025-3.673q1.546 0 2.584-.849 1.039-.861 1.545-2.305.52-1.444.52-3.218 0-1.785-.52-3.23-.506-1.457-1.545-2.318t-2.584-.861q-1.584 0-2.635.861-1.038.861-1.558 2.318-.507 1.445-.507 3.23 0 1.774.507 3.218.52 1.443 1.558 2.305 1.052.849 2.635.849M87.43 2.254v25.942h-4.586V2.254zm4.714 25.942V8.74h4.586v19.456zM94.45 5.978q-1.089 0-1.875-.722-.785-.735-.785-1.76 0-1.04.785-1.761A2.65 2.65 0 0 1 94.45 1q1.102 0 1.875.735.785.722.785 1.76 0 1.026-.785 1.761-.773.722-1.875.722m14.216 22.56q-2.293 0-4.105-1.178-1.81-1.177-2.862-3.42t-1.052-5.447q0-3.243 1.064-5.472 1.077-2.242 2.901-3.382 1.824-1.152 4.066-1.153 1.71 0 2.812.583 1.103.57 1.748 1.38a8.4 8.4 0 0 1 1.001 1.508h.19V2.254h4.598v25.942h-4.509v-3.065h-.279q-.354.71-1.026 1.507-.672.785-1.773 1.343-1.103.557-2.774.557m1.279-3.762q1.457 0 2.483-.785 1.026-.798 1.558-2.217.531-1.419.532-3.306 0-1.887-.532-3.28-.52-1.395-1.546-2.167-1.013-.773-2.495-.773-1.533 0-2.559.798-1.026.799-1.545 2.205-.52 1.406-.52 3.217 0 1.824.52 3.255.531 1.42 1.558 2.242 1.038.811 2.546.811"/><path fill="#006BFF" d="M14.102 0H9.707A7.525 7.525 0 0 0 2.7 4.755C1.758 7.145.8 9.599.355 10.815c-2.028 8.144 5.212 10.684 7.036 11.01 3.44.747 6.084-1.26 7.107-2.623.136-.183-.04-.405-.262-.356-5.144 1.14-6.435-3.275-5.672-5.034z"/><path fill="#57EBB9" d="M11.14 30h4.395c3.09 0 5.872-1.88 7.006-4.755.943-2.39 1.9-4.844 2.346-6.06 2.028-8.143-5.212-10.684-7.036-11.01-3.441-.747-6.084 1.26-7.106 2.624-.137.182.038.404.26.355 5.145-1.14 6.435 3.275 5.673 5.034z"/></svg>