<svg xmlns="http://www.w3.org/2000/svg" width="92" height="28" fill="none"><g clip-path="url(#a)"><path fill="#fff" d="M0 19.54V.405h3.36V19.54zM11.965 5.658A7.13 7.13 0 1 0 12 19.914a7.13 7.13 0 0 0 6.675-9.9 7.13 7.13 0 0 0-6.709-4.356m-.039 3.239a3.883 3.883 0 1 1-3.836 3.882 3.85 3.85 0 0 1 3.836-3.882m15.752-3.239a7.13 7.13 0 1 0 .034 14.256 7.06 7.06 0 0 0 7.229-7.16 5.37 5.37 0 0 0-1.096-3.651l.932-.32V6.056H30.01a7.2 7.2 0 0 0-2.33-.397m-.038 3.239a3.882 3.882 0 1 1-3.837 3.882 3.85 3.85 0 0 1 3.837-3.882m3.892 11.575a3.879 3.879 0 0 1-7.758 0h-3.411a7.04 7.04 0 0 0 7.329 7.153 7.05 7.05 0 0 0 7.228-7.149zm4.762-.935V6.055h3.362V19.54zm6.625 0V9.076h-1.803v-3.02h1.803v-4.14h3.36v4.14h1.852v3.02H46.28V19.54zM40.193 2.224a2.224 2.224 0 1 1-4.448 0 2.224 2.224 0 0 1 4.448 0M55.688 5.65a6.98 6.98 0 0 0-7.117 7.237 6.774 6.774 0 0 0 7.192 7.037 7.98 7.98 0 0 0 6.11-2.558l-2.246-2.25a6 6 0 0 1-3.82 1.83 3.634 3.634 0 0 1-3.682-2.801h10.474v-.925c0-3.694-2.138-7.57-6.905-7.57zm-.111 2.959a3.336 3.336 0 0 1 3.486 2.807h-7.04a3.51 3.51 0 0 1 3.558-2.807zm15.424 11.316a7.14 7.14 0 1 1-.014-14.279 7.4 7.4 0 0 1 5.764 2.695l-2.35 2.335a4.8 4.8 0 0 0-3.434-1.755 3.78 3.78 0 0 0-3.875 3.853 3.814 3.814 0 0 0 3.848 3.904 4.78 4.78 0 0 0 3.46-1.757l2.37 2.336A7.37 7.37 0 0 1 71 19.926zm6.993-.375V.356h3.36v7.052a5.14 5.14 0 0 1 4.088-1.762c3.52 0 5.56 2.617 5.56 5.963v7.94h-3.367v-7.427a2.837 2.837 0 0 0-2.95-3.18 3.1 3.1 0 0 0-3.337 3.355v7.258h-3.354z"/></g><defs><clipPath id="a"><path fill="#fff" d="M0 0h91.001v27.625H0z"/></clipPath></defs></svg>