<svg xmlns="http://www.w3.org/2000/svg" width="89" height="32" fill="none"><g clip-path="url(#a)"><path fill="#757693" fill-rule="evenodd" d="M11.345 1.413C5.582 8.181.056 16.573 0 22.847a7.43 7.43 0 0 0 2.54 5.982 12.32 12.32 0 0 0 8.32 3.045c4.168.005 8.306-1.681 11.544-2.973C27.863 26.72 88.19.521 88.19.521c.581-.291.472-.654-.256-.474-.294.074-65.68 17.792-65.68 17.792a14.5 14.5 0 0 1-3.805.545c-5.025.03-9.496-2.76-9.46-8.637.143-2.92.949-5.77 2.356-8.334" clip-rule="evenodd"/></g><defs><clipPath id="a"><path fill="#fff" d="M0 0h88.564v31.875H0z"/></clipPath></defs></svg>